<?xml version="1.0" encoding="utf-8"?>
<!-- Generator: Adobe Illustrator 22.0.1, SVG Export Plug-In . SVG Version: 6.00 Build 0)  -->
<svg version="1.1" id="Layer_1" xmlns="http://www.w3.org/2000/svg" xmlns:xlink="http://www.w3.org/1999/xlink" x="0px" y="0px"
	 viewBox="0 0 61 52.3" style="enable-background:new 0 0 61 52.3;" xml:space="preserve">
<style type="text/css">
	.st0{fill:#FFFFFF;}
</style>
<g>
	<g>
		<path class="st0" d="M29.6,0.2c-0.1,0-0.2,0-0.3,0C28.8,0.1,28.3,0,27.8,0H3.4C1.5,0,0,1.3,0,3v46.2c0,1.7,1.5,3,3.4,3h24.4
			c0.5,0,1-0.1,1.5-0.3c0.1,0,0.2,0.1,0.4,0.1H61V0.2H29.6z M59,8.8H31.1V3c0-0.3,0-0.5-0.1-0.8h28V8.8z M2,9.7h27.1v33H2V9.7z
			 M3.4,2h24.4c0.7,0,1.4,0.5,1.4,1v4.7H2V3C2,2.5,2.6,2,3.4,2z M3.4,50.4c-0.7,0-1.4-0.5-1.4-1v-4.6h27.1v4.6c0,0.6-0.6,1-1.4,1
			H3.4z M31,50.1c0.1-0.2,0.1-0.5,0.1-0.8v-3.4h9.4v-2h-9.4v-2.2h10.4V27.3H31.1v-2.2h27V12.7h-27v-1.9H59v39.3L31,50.1L31,50.1z
			 M31.3,39.7V29.3h8.2v10.5C39.5,39.7,31.3,39.7,31.3,39.7z M31.3,23.1v-8.4h24.9v8.4C56.2,23.1,31.3,23.1,31.3,23.1z"/>
		<rect x="34.2" y="4.5" class="st0" width="21.5" height="2"/>
		<path class="st0" d="M11.5,5.9h8c0.5,0,1-0.4,1-1s-0.4-1-1-1h-8c-0.5,0-1,0.4-1,1S11,5.9,11.5,5.9z"/>
		<path class="st0" d="M15.6,45.7c-0.9,0-1.7,0.7-1.7,1.7c0,1,0.7,1.7,1.7,1.7s1.7-0.7,1.7-1.7C17.3,46.4,16.5,45.7,15.6,45.7z
			 M15.6,47.7c-0.1,0-0.2-0.1-0.2-0.2s0.1-0.2,0.2-0.2s0.2,0.1,0.2,0.2S15.7,47.7,15.6,47.7z"/>
		<path class="st0" d="M42.3,41.7h15.8V27.3H42.3V41.7z M44.3,29.3h11.9v10.5H44.3V29.3z"/>
		<rect x="42.6" y="43.9" class="st0" width="15" height="2"/>
	</g>
</g>
</svg>
