<?xml version="1.0" encoding="utf-8"?>
<!-- Generator: Adobe Illustrator 22.0.1, SVG Export Plug-In . SVG Version: 6.00 Build 0)  -->
<svg version="1.1" id="Layer_1" xmlns="http://www.w3.org/2000/svg" xmlns:xlink="http://www.w3.org/1999/xlink" x="0px" y="0px"
	 viewBox="0 0 57 55.8" style="enable-background:new 0 0 57 55.8;" xml:space="preserve">
<style type="text/css">
	.st0{fill:#FFFFFF;}
</style>
<path class="st0" d="M46.3,55.8H0.8C0.4,55.8,0,55.4,0,55V0.8C0,0.4,0.4,0,0.8,0h45.4c0.5,0,0.8,0.4,0.8,0.8s-0.4,0.8-0.8,0.8H1.6
	v52.5h43.8V41.8c0-0.5,0.4-0.8,0.8-0.8s0.8,0.4,0.8,0.8V55C47.1,55.4,46.7,55.8,46.3,55.8z M13.7,44.1c-1.2,0-2.3-0.6-3.4-1.7
	c-0.9-0.9-0.9-1.8-0.8-2.4c0.1-0.5,0.3-0.9,0.6-1.2c-0.7-0.5-1.3-0.9-1.6-0.9c-0.4-0.1-0.8-0.5-0.7-0.9c0.1-0.4,0.5-0.8,0.9-0.7
	c0.5,0.1,1.5,0.6,2.6,1.4c0.6-0.5,1.2-0.8,1.3-0.8c1.4-0.6,3.1-0.7,5.3-0.1c2,0.5,3.9,1.8,5.6,3c1,0.7,2.4,1.7,3.2,1.9
	c-0.1-0.3-0.3-0.6-0.4-0.8l-0.1-0.2c-0.7-1.5-1.2-2.5-0.7-3.3c0.2-0.3,0.6-0.5,1-0.5c2.1,0,5.7,2,9.2,4.3l-0.8-6.1
	c0-0.2,0-0.4,0.5-1.9l0-0.1c0,0,0,0,0,0c0,0,0,0,0-0.1L47.7,5c0.1-0.3,0.4-0.5,0.8-0.5c0.9,0.1,2.7,0.3,4.6,1.1
	c1.9,0.8,3,1.9,3.6,2.4l0.1,0.1C57,8.4,57.1,8.8,57,9.1L44.7,36.9c0,0,0,0,0,0.1c-0.1,0.2-0.8,1.5-1.1,1.7l-2.8,2l-3.6,2.5
	c-0.1,0.1-0.3,0.2-0.5,0.2c0,0,0,0,0,0l0,0c0,0,0,0,0,0h0c0,0,0,0,0,0c-0.3,0-0.4-0.1-1.7-0.9c-1.8-1.1-5.8-3.7-8-4.1
	c0.2,0.5,0.5,1.1,0.6,1.4l0.1,0.2c0.5,1.1,0.9,1.9,0.6,2.5c-0.1,0.2-0.3,0.5-0.7,0.6c-1.4,0.5-3.2-0.7-5.2-2.1
	c-1.6-1.1-3.3-2.3-5-2.7c-1.7-0.4-3.2-0.4-4.2,0c-0.1,0.1-0.4,0.2-0.6,0.4c1.6,1.3,3,2.9,3.1,4c0,0.6-0.3,1.2-1.2,1.4
	C14.2,44.1,13.9,44.1,13.7,44.1z M11.4,39.7c-0.1,0.2-0.2,0.4-0.2,0.5c0,0.2,0,0.5,0.4,1c0.5,0.6,1.4,1.3,2.4,1.2
	C13.6,41.8,12.5,40.7,11.4,39.7z M36.5,34.8l0.8,6.3l2.5-1.7l2.7-2c0.1-0.1,0.2-0.3,0.3-0.4l-6.1-2.7C36.6,34.6,36.5,34.7,36.5,34.8
	z M37.3,32.7c1.5,0.7,4.7,2.1,6.2,2.8L55.2,9c-0.6-0.5-1.4-1.2-2.7-1.8c-1.3-0.6-2.6-0.8-3.5-0.9L37.3,32.7z M32.6,27.5H7.2
	c-0.5,0-0.8-0.4-0.8-0.8c0-0.5,0.4-0.8,0.8-0.8h25.4c0.5,0,0.8,0.4,0.8,0.8C33.4,27.2,33.1,27.5,32.6,27.5z M32.6,19.8H7.2
	c-0.5,0-0.8-0.4-0.8-0.8c0-0.5,0.4-0.8,0.8-0.8h25.4c0.5,0,0.8,0.4,0.8,0.8C33.4,19.4,33.1,19.8,32.6,19.8z M32.6,12H7.2
	c-0.5,0-0.8-0.4-0.8-0.8c0-0.5,0.4-0.8,0.8-0.8h25.4c0.5,0,0.8,0.4,0.8,0.8C33.4,11.6,33.1,12,32.6,12z"/>
</svg>
