<?xml version="1.0" encoding="utf-8"?>
<!-- Generator: Adobe Illustrator 22.0.1, SVG Export Plug-In . SVG Version: 6.00 Build 0)  -->
<svg version="1.1"
	 id="Layer_1" xmlns:cc="http://creativecommons.org/ns#" xmlns:dc="http://purl.org/dc/elements/1.1/" xmlns:inkscape="http://www.inkscape.org/namespaces/inkscape" xmlns:rdf="http://www.w3.org/1999/02/22-rdf-syntax-ns#" xmlns:sodipodi="http://sodipodi.sourceforge.net/DTD/sodipodi-0.dtd" xmlns:svg="http://www.w3.org/2000/svg"
	 xmlns="http://www.w3.org/2000/svg" xmlns:xlink="http://www.w3.org/1999/xlink" x="0px" y="0px" viewBox="0 0 52 67.6"
	 style="enable-background:new 0 0 52 67.6;" xml:space="preserve">
<style type="text/css">
	.st0{fill:#FFFFFF;}
</style>
<g transform="translate(0,-952.36216)">
	<g transform="translate(-2760.8569,341.00435)">
		<path class="st0" d="M2768.3,678.9v-0.7v-3.6h1.4v2.9h41.7v-56h-2.2V620h3.6v58.9H2768.3z"/>
		<path class="st0" d="M2764.7,674.6v-0.7v-3.6h1.4v2.9h41.7v-56h-2.4v-1.4h3.8v58.9H2764.7z"/>
		<path class="st0" d="M2760.9,670.3v-0.7v-58.2h44.6v58.9H2760.9z M2762.3,668.8h41.7v-56h-41.7V668.8z"/>
		<g transform="matrix(1,0,0,-1,-1e-4,1310.7078)">
			<path class="st0" d="M2771.8,665v-0.2v-1.3h22.8v1.4H2771.8z"/>
			<path class="st0" d="M2771.8,659.4v-0.2v-1.3h22.8v1.4H2771.8z"/>
			<path class="st0" d="M2778.8,678.3v-0.2v-4.3h8.7v4.5h-1.4v-3.1h-5.8v3.1H2778.8z"/>
			<path class="st0" d="M2783.1,682.8c-1.4,0-2.5-1.1-2.5-2.5c0-1.4,1.1-2.5,2.5-2.5c1.4,0,2.5,1.1,2.5,2.5
				C2785.7,681.7,2784.5,682.8,2783.1,682.8z M2783.1,681.4c0.6,0,1.1-0.5,1.1-1.1s-0.5-1.1-1.1-1.1s-1.1,0.5-1.1,1.1
				S2782.5,681.4,2783.1,681.4z"/>
			<path class="st0" d="M2783.1,687.4c-5,0-9.1-4.1-9.1-9.1c0-5,4.1-9.1,9.1-9.1s9.1,4.1,9.1,9.1
				C2792.3,683.3,2788.2,687.4,2783.1,687.4z M2783.1,686c4.3,0,7.7-3.4,7.7-7.7s-3.4-7.7-7.7-7.7c-4.3,0-7.7,3.4-7.7,7.7
				S2778.9,686,2783.1,686z"/>
			<path class="st0" d="M2771.8,653.8v-0.2v-1.3h22.8v1.4H2771.8z"/>
			<path class="st0" d="M2783.1,687.3c-5,0-9-4-9-9s4-9,9-9c5,0,9,4,9,9S2788.1,687.3,2783.1,687.3z M2783.1,686.2
				c4.3,0,7.9-3.5,7.9-7.9s-3.5-7.9-7.9-7.9c-4.3,0-7.9,3.5-7.9,7.9S2778.8,686.2,2783.1,686.2z"/>
		</g>
	</g>
</g>
</svg>
