<?xml version="1.0" encoding="utf-8"?>
<!-- Generator: Adobe Illustrator 22.0.1, SVG Export Plug-In . SVG Version: 6.00 Build 0)  -->
<svg version="1.1" id="Layer_1" xmlns="http://www.w3.org/2000/svg" xmlns:xlink="http://www.w3.org/1999/xlink" x="0px" y="0px"
	 viewBox="0 0 63 76.7" style="enable-background:new 0 0 63 76.7;" xml:space="preserve">
<style type="text/css">
	.st0{fill:#FFFFFF;}
</style>
<title>construction LANJUTAN jadi</title>
<g>
	<path class="st0" d="M21.7,9.8c-1.1,0-2,0.9-2,2s0.9,2,2,2c1.1,0,2-0.9,2-2S22.9,9.8,21.7,9.8z M21.5,11.8c0-0.1,0.1-0.2,0.2-0.2
		c0.1,0,0.2,0.1,0.2,0.2C21.9,12,21.5,12,21.5,11.8z"/>
	<path class="st0" d="M40.5,3.4h-9c-0.5,0-0.9,0.4-0.9,0.9c0,0.5,0.4,0.9,0.9,0.9h9c0.5,0,0.9-0.4,0.9-0.9C41.4,3.8,41,3.4,40.5,3.4
		z"/>
	<path class="st0" d="M63,75.5L63,75.5l-7.2-26.6h1.9c0.5,0,0.9-0.4,0.9-0.9c0-0.1,0-0.2,0-0.2L52.2,24c-0.1-0.4-0.5-0.7-0.9-0.7
		h-8.1c-0.5,0-0.9,0.4-0.9,0.9v2.1h-2.5v-3.5h4.8c0.5,0,0.9-0.4,0.9-0.9v-8.6H51c0.5,0,0.9-0.4,0.9-0.9V6.1c0-0.5-0.4-0.9-0.9-0.9
		h-5.5V0.9c0-0.5-0.4-0.9-0.9-0.9H18.3c-0.5,0-0.9,0.4-0.9,0.9v4.3H12c-0.5,0-0.9,0.4-0.9,0.9c0,0.1,0,0.3,0.1,0.4l3,6.4
		c0.1,0.3,0.5,0.5,0.8,0.5h2.5v8.6c0,0.5,0.4,0.9,0.9,0.9h4.8v3.5h-2.4v-2.1c0-0.5-0.4-0.9-0.9-0.9h-8.1c-0.4,0-0.8,0.3-0.9,0.7
		L4.4,47.8c-0.1,0.5,0.1,1,0.6,1.1c0.1,0,0.2,0,0.2,0h1.9L0,75.5c-0.1,0.5,0.1,1,0.6,1.1c0.1,0,0.2,0,0.2,0H4c0.4,0,0.8-0.3,0.9-0.7
		l7.3-27.1h2.4c0.4,0,0.8-0.3,0.9-0.7l3.8-14.1h0.5c0.5,0,0.9-0.4,0.9-0.9c0,0,0,0,0,0v-2.1h3.4c0.3,2.8,2.3,5.2,5,6.2v38.5
		c0,0.5,0.4,0.9,0.9,0.9h3c0.5,0,0.9-0.4,0.9-0.9V37.3c2.7-0.9,4.7-3.3,5-6.2h3.4v2.1c0,0.5,0.4,0.9,0.9,0.9h0.5l3.8,14.1
		c0.1,0.4,0.5,0.7,0.9,0.7h2.4L58.1,76c0.1,0.4,0.5,0.7,0.9,0.7h3.1c0.5,0,0.9-0.4,0.9-0.9C63,75.7,63,75.6,63,75.5z M45.5,7h4.6
		v4.6h-4.6V7z M17.5,11.5h-1.9L13.4,7h4.1V11.5z M19.3,12.4V1.8h24.5v14.9H19.3V12.4z M19.3,21v-2.5h24.5V21H19.3z M38,22.8v3.5H25
		v-3.5H38z M30.9,74.9V37.6h0.6H32l0.1,37.2H30.9z M32.8,35.7L32.8,35.7l-0.4,0.1c-0.6,0.1-1.2,0.1-1.8,0l-0.4-0.1
		c-2.2-0.5-3.9-2.3-4.3-4.6h11.2C36.7,33.4,35,35.2,32.8,35.7z M59.7,74.9l-7.3-27.1c-0.1-0.4-0.5-0.7-0.9-0.7h-2.4L45.3,33
		c-0.1-0.4-0.5-0.7-0.9-0.7h-0.3v-2.1c0-0.5-0.4-0.9-0.9-0.9H19.8c-0.5,0-0.9,0.4-0.9,0.9v2.2h-0.3c-0.4,0-0.8,0.3-0.9,0.7
		l-3.8,14.1h-2.4c-0.4,0-0.8,0.3-0.9,0.7L3.4,74.9H2.2l7.2-26.6c0.1-0.5-0.1-1-0.6-1.1c-0.1,0-0.2,0-0.2,0h-2l5.9-22h6.5v2.1
		c0,0.5,0.4,0.9,0.9,0.9h23.4c0.5,0,0.9-0.4,0.9-0.9v-2.1h6.6l5.9,22h-2c-0.5,0-0.9,0.4-0.9,0.9c0,0.1,0,0.2,0,0.2l7.2,26.6
		L59.7,74.9z"/>
</g>
</svg>
