<?xml version="1.0" encoding="utf-8"?>
<!-- Generator: Adobe Illustrator 22.0.1, SVG Export Plug-In . SVG Version: 6.00 Build 0)  -->
<svg version="1.1"
	 id="Layer_1" xmlns:cc="http://creativecommons.org/ns#" xmlns:dc="http://purl.org/dc/elements/1.1/" xmlns:inkscape="http://www.inkscape.org/namespaces/inkscape" xmlns:rdf="http://www.w3.org/1999/02/22-rdf-syntax-ns#" xmlns:sodipodi="http://sodipodi.sourceforge.net/DTD/sodipodi-0.dtd" xmlns:svg="http://www.w3.org/2000/svg"
	 xmlns="http://www.w3.org/2000/svg" xmlns:xlink="http://www.w3.org/1999/xlink" x="0px" y="0px" viewBox="0 0 65.4 76"
	 style="enable-background:new 0 0 65.4 76;" xml:space="preserve">
<style type="text/css">
	.st0{fill:#FFFFFF;}
</style>
<g>
	<path class="st0" d="M64.5,66.3h-4.4V61c0-0.5-0.4-0.9-0.9-0.9h-5.3V40.7h5.3c0.5,0,0.9-0.4,0.9-0.9c0-0.1,0-0.2-0.1-0.3
		C55.6,29,45.5,21.6,33.6,21.2v-8.8c4.1,0.2,5.7,1.3,7.6,2.5c2,1.3,4.3,2.7,9.2,2.7c0.5,0,0.9-0.4,0.9-0.9V6.2
		c0-0.5-0.4-0.9-0.9-0.9c-4.7,0-6.1-1.2-8-2.5C40.5,1.5,38.1,0,32.7,0c0,0-0.1,0-0.1,0c0,0-0.1,0-0.1,0c-0.4,0.1-0.7,0.5-0.7,0.9
		v20.4C19.9,21.6,9.8,29,5.4,39.4c-0.2,0.5,0,1,0.5,1.2c0.1,0,0.2,0.1,0.3,0.1h5.3v19.4H6.2c0,0-0.1,0-0.1,0c-0.5,0-0.8,0.4-0.8,0.9
		v5.3H0.9c-0.5,0-0.9,0.4-0.9,0.9v8C0,75.6,0.4,76,0.9,76h63.6c0.5,0,0.9-0.4,0.9-0.9v-8C65.4,66.7,65,66.3,64.5,66.3z M33.6,1.8
		C38,2,39.6,3,41.4,4.3c1.7,1.2,3.8,2.6,8.1,2.8v8.8c-3.9-0.2-5.6-1.2-7.4-2.4c-1.9-1.3-4.1-2.7-8.5-2.8V1.8z M7.6,38.9
		c4.5-9.4,14-15.9,25.1-15.9c11.1,0,20.6,6.5,25.1,15.9H7.6z M52.1,40.7v19.4h-5.3V40.7H52.1z M45.1,40.7v19.4h-8V40.7H45.1z
		 M35.3,40.7v19.4H30V40.7H35.3z M28.3,40.7v19.4h-8V40.7H28.3z M18.6,40.7v19.4h-5.3V40.7H18.6z M63.6,74.2H1.8V68h4.4
		c0.5,0,0.9-0.4,0.9-0.9v-5.3h51.3v5.3c0,0.5,0.4,0.9,0.9,0.9h4.4V74.2z"/>
	<path class="st0" d="M24.6,32.3c-0.1,0.3-0.2,0.6-0.3,1h0c-0.1-0.3-0.1-0.7-0.3-1l-1.4-4.2h-2.3v7.1h1.4v-3.9c0-0.5,0-1.1-0.1-1.8
		h0c0.1,0.5,0.2,0.9,0.2,1l1.7,4.7h1.3l1.7-4.8c0.1-0.2,0.1-0.5,0.2-0.9h0c0,0.6-0.1,1.1-0.1,1.5v4.2h1.6v-7.1h-2.3L24.6,32.3z"/>
	<path class="st0" d="M34.3,28.8h-0.2V28h-1.5v0.8h-0.2c-0.9,0-1.6,0.3-2.1,0.8c-0.5,0.5-0.8,1.2-0.8,2c0,0.8,0.3,1.5,0.8,2.1
		c0.5,0.5,1.2,0.8,2.1,0.8h0.2v0.8h1.5v-0.8h0.2c0.9,0,1.6-0.3,2.2-0.8c0.5-0.5,0.8-1.2,0.8-2.1c0-0.8-0.3-1.5-0.8-2
		C35.9,29,35.2,28.8,34.3,28.8z M32.6,33.2L32.6,33.2c-0.5,0-0.9-0.1-1.1-0.4c-0.2-0.3-0.4-0.7-0.4-1.2c0-0.5,0.1-0.9,0.4-1.2
		c0.3-0.3,0.6-0.4,1-0.4h0.1V33.2z M35.2,32.7c-0.3,0.3-0.6,0.4-1,0.4h-0.1V30h0.1c0.4,0,0.8,0.1,1,0.4c0.3,0.3,0.4,0.7,0.4,1.2
		C35.6,32.1,35.5,32.4,35.2,32.7z"/>
	<polygon class="st0" points="44.5,28.1 42.9,28.1 42.9,33.8 40,33.8 40,28.1 38.4,28.1 38.4,35.2 44.1,35.2 44.1,37.1 45.5,37.1 
		45.5,33.8 44.5,33.8 	"/>
</g>
</svg>
