<?xml version="1.0" encoding="utf-8"?>
<!-- Generator: Adobe Illustrator 22.0.1, SVG Export Plug-In . SVG Version: 6.00 Build 0)  -->
<svg version="1.1" id="Layer_1" xmlns="http://www.w3.org/2000/svg" xmlns:xlink="http://www.w3.org/1999/xlink" x="0px" y="0px"
	 viewBox="0 0 69.7 68" style="enable-background:new 0 0 69.7 68;" xml:space="preserve">
<style type="text/css">
	.st0{fill:#FFFFFF;}
</style>
<path class="st0" d="M68.9,17.3h-50l0-7.9c0,0,0,0,0,0c0-5.2-4.2-9.4-9.4-9.4C4.2,0,0,4.2,0,9.4c0,0,0,0,0,0v49.2c0,0,0,0,0,0
	C0,63.8,4.2,68,9.4,68h59.5c0.4,0,0.8-0.3,0.8-0.8V18.1C69.7,17.7,69.3,17.3,68.9,17.3z M10.2,50.8c3.7,0.4,6.7,3.3,7.1,7.1v0.5
	c0,2.5-2.1,4.6-4.6,4.6c-0.9,0-1.8-0.3-2.5-0.7V50.8z M1.5,9.4c0-4.3,3.5-7.9,7.9-7.9c4.3,0,7.9,3.5,7.9,7.9c0,0,0,0,0,0l0,16.5
	c0,0,0,0,0,0s0,0,0,0l0,21.3c0,0,0,0,0,0s0,0,0,0l0,6.1c-1.7-2.5-4.6-4.2-7.9-4.2c-0.8,0-1.6,0.1-2.3,0.3c-2.4,0.6-4.3,2-5.6,4
	L1.5,9.4C1.5,9.4,1.5,9.4,1.5,9.4z M68.1,66.5H9.4c-4.3,0-7.9-3.5-7.9-7.9c0,0,0,0,0,0v0c0-3.6,2.5-6.7,6-7.6
	c0.4-0.1,0.8-0.2,1.1-0.2v11.9c0,0,0,0,0,0c0,0,0,0.1,0,0.1c0,0,0,0,0,0.1c0,0,0,0,0,0.1c0,0,0,0,0,0.1c0,0,0,0,0,0.1c0,0,0,0,0,0.1
	c0,0,0,0,0,0.1c0,0,0,0,0.1,0.1c0,0,0,0,0,0c0,0,0,0,0,0c0,0,0,0,0,0c1.1,0.8,2.3,1.2,3.7,1.2c2.8,0,5.1-1.9,5.9-4.4h15.6
	c0,0,0,0,0,0c0,0,0,0,0,0h2.1c0.4,0,0.8-0.3,0.8-0.8s-0.3-0.8-0.8-0.8H35V47.3c0-0.4-0.3-0.8-0.8-0.8h-4.6c-0.4,0-0.8,0.3-0.8,0.8
	s0.3,0.8,0.8,0.8h3.8v10.6H18.8c0-0.1,0-0.1,0-0.2l0-10.3h5.1c0.4,0,0.8-0.3,0.8-0.8s-0.3-0.8-0.8-0.8h-5.1l0-7.8h12.7
	c0.4,0,0.8-0.3,0.8-0.8s-0.3-0.8-0.8-0.8H18.9l0-10.5h24.9v10.6h-6.1c-0.4,0-0.8,0.3-0.8,0.8s0.3,0.8,0.8,0.8h13.6
	c0.4,0,0.8-0.3,0.8-0.8s-0.3-0.8-0.8-0.8h-6V26.7h13.7v10.6h-2.8c-0.4,0-0.8,0.3-0.8,0.8s0.3,0.8,0.8,0.8h2.8v7.7h-8.2
	c-0.4,0-0.8,0.3-0.8,0.8s0.3,0.8,0.8,0.8h8.2v10.6H43.7V48.1H46c0.4,0,0.8-0.3,0.8-0.8s-0.3-0.8-0.8-0.8h-3.1
	c-0.4,0-0.8,0.3-0.8,0.8v11.3h-1.8c-0.4,0-0.8,0.3-0.8,0.8s0.3,0.8,0.8,0.8h2.6c0,0,0,0,0,0s0,0,0,0h16.8c0.4,0,0.8-0.3,0.8-0.8
	V47.3c0,0,0,0,0,0s0,0,0,0v-9.2c0,0,0,0,0,0s0,0,0,0V26c0-0.4-0.3-0.8-0.8-0.8H44.5c0,0,0,0,0,0c0,0,0,0,0,0H18.9l0-6.3h49.3V66.5z"
	/>
</svg>
