<svg xmlns="http://www.w3.org/2000/svg" xmlns:xlink="http://www.w3.org/1999/xlink" width="20" height="20" viewBox="0 0 20 20"><defs><path id="ewoda" d="M287.42 32.55a5.11 5.11 0 0 1-5.14-5.13 5.11 5.11 0 0 1 5.14-5.14 5.11 5.11 0 0 1 5.13 5.14 5.11 5.11 0 0 1-5.13 5.13zm6.84 0h-.91l-.34-.34a7.14 7.14 0 0 0 1.82-4.8 7.4 7.4 0 0 0-7.41-7.41 7.4 7.4 0 0 0-7.42 7.42 7.4 7.4 0 0 0 7.42 7.41c1.82 0 3.53-.68 4.79-1.82l.34.34v.91l5.7 5.7 1.72-1.7z"/></defs><g><g transform="translate(-280 -20)"><use fill="#4d6675" xlink:href="#ewoda"/></g></g></svg>