<svg xmlns="http://www.w3.org/2000/svg" xmlns:xlink="http://www.w3.org/1999/xlink" width="142" height="119" viewBox="0 0 142 119"><defs><path id="kffoa" d="M695 148.67v46.66l-22.67 11.5v-69.66zM672 207v-.17l.17.09zm0-70l.33.17V137L719 160.33V137l-.07-.03L649 102v93.33l23 11.5zm70 58.33v-46.5l23-11.5V207zm0-46.5l-23 11.5V137l70-35v93.33L765.67 207v-70l-.67.33V137l-23 11.67zm-23-35.33L765.67 90 789 101.75 719 137zm-70-11.75L672.33 90 719 113.5V137l-.07-.03zM672.33 207v-.17l-.16.09z"/></defs><g><g transform="translate(-648 -89)"><g><use fill="#fff" fill-opacity="0" stroke="#fff" stroke-linecap="round" stroke-linejoin="round" stroke-miterlimit="50" stroke-width="2" xlink:href="#kffoa"/></g></g></g></svg>