<svg xmlns="http://www.w3.org/2000/svg" xmlns:xlink="http://www.w3.org/1999/xlink" width="60" height="50" viewBox="0 0 60 50"><defs><path id="btk6a" d="M130 30.52l30 14.54v-.74l30-14.5V69.9L179.71 75V45.17L160 55.4v-.08l-19.71-9.4V75L130 70.72z"/><path id="btk6c" d="M130.17 30.69L140.3 25 160 35.17v.43l19.71-10.26L190 30.47 160 45v.34z"/><path id="btk6e" d="M179.71 25L190 30.09l-30 15.25V35.17z"/><path id="btk6g" d="M180 44.31l-9.31 5.12v20.46L180 75z"/><path id="btk6i" d="M150 50.14v20.57L139.66 75V45L150 50.14z"/><linearGradient id="btk6b" x1="160" x2="160" y1="29.83" y2="75" gradientUnits="userSpaceOnUse"><stop offset="0" stop-color="#33aed8"/><stop offset="1" stop-color="#247eb0"/></linearGradient><linearGradient id="btk6d" x1="160.09" x2="160.09" y1="25" y2="45.34" gradientUnits="userSpaceOnUse"><stop offset="0" stop-color="#33aed8"/><stop offset="1" stop-color="#247eb0"/></linearGradient><linearGradient id="btk6f" x1="175" x2="175" y1="25" y2="45.34" gradientUnits="userSpaceOnUse"><stop offset="0" stop-color="#33aed8"/><stop offset="1" stop-color="#247eb0"/></linearGradient><linearGradient id="btk6h" x1="175.34" x2="175.34" y1="44.31" y2="75" gradientUnits="userSpaceOnUse"><stop offset="0" stop-color="#33aed8"/><stop offset="1" stop-color="#247eb0"/></linearGradient><linearGradient id="btk6j" x1="144.83" x2="144.83" y1="45" y2="75" gradientUnits="userSpaceOnUse"><stop offset="0" stop-color="#33aed8"/><stop offset="1" stop-color="#247eb0"/></linearGradient></defs><g><g transform="translate(-130 -25)"><g><g><use fill="url(#btk6b)" xlink:href="#btk6a"/></g><g><use fill="url(#btk6d)" xlink:href="#btk6c"/></g><g><use fill="url(#btk6f)" xlink:href="#btk6e"/></g><g><use fill="url(#btk6h)" xlink:href="#btk6g"/></g><g><use fill="url(#btk6j)" xlink:href="#btk6i"/></g></g></g></g></svg>