<?xml version="1.0" encoding="utf-8"?>
<!-- Generator: Adobe Illustrator 22.0.1, SVG Export Plug-In . SVG Version: 6.00 Build 0)  -->
<svg version="1.1" id="Layer_1" xmlns="http://www.w3.org/2000/svg" xmlns:xlink="http://www.w3.org/1999/xlink" x="0px" y="0px"
	 viewBox="0 0 24.1 18.6" style="enable-background:new 0 0 24.1 18.6;" xml:space="preserve">
<style type="text/css">
	.st0{fill:#221E1B;}
</style>
<g>
	<path class="st0" d="M10.1,3C8.5,3,7.3,4.2,7.3,5.8s1.3,2.9,2.9,2.9S13,7.5,13,5.8C13,4.3,11.8,3,10.1,3z M10.1,7
		C9.5,7,9,6.5,9,5.8c0-0.6,0.5-1.2,1.2-1.2s1.2,0.5,1.2,1.2C11.3,6.6,10.8,7,10.1,7z"/>
	<path class="st0" d="M23.4,3h-3.1V0.8C20.4,0.4,20,0,19.6,0H0.8C0.4,0,0,0.4,0,0.8v10.1c0,0.4,0.4,0.8,0.8,0.8h2.3v6.1
		c0,0.4,0.4,0.8,0.8,0.8h12.2c0.4,0,0.8-0.4,0.8-0.8v-6.1h2.3c0.4,0,0.8-0.4,0.8-0.8V8.7h3.1c0.4,0,0.8-0.4,0.8-0.8v-4
		C24.2,3.4,23.9,3,23.4,3z M15.4,17H4.9v-5.2h10.5L15.4,17L15.4,17z M18.6,10.1H1.7V1.7h16.9C18.6,1.7,18.6,10.1,18.6,10.1z M22.5,7
		h-2.2V4.7h2.2V7z"/>
</g>
</svg>
