<?xml version="1.0" encoding="utf-8"?>
<!-- Generator: Adobe Illustrator 22.0.1, SVG Export Plug-In . SVG Version: 6.00 Build 0)  -->
<svg version="1.1" id="Layer_1" xmlns="http://www.w3.org/2000/svg" xmlns:xlink="http://www.w3.org/1999/xlink" x="0px" y="0px"
	 viewBox="0 0 23.1 19.6" style="enable-background:new 0 0 23.1 19.6;" xml:space="preserve">
<style type="text/css">
	.st0{fill:#231E1C;}
</style>
<g>
	<path class="st0" d="M22,4.7h-0.3V1.2c0-0.7-0.5-1.2-1.1-1.2H2.2C1.6,0,1.1,0.5,1.1,1.2v5l0,0C0.5,6.2,0,6.7,0,7.3c0,0,0,0,0,0.1
		l1.1,11.1c0,0.6,0.5,1.1,1.1,1.1h18.4c0.6,0,1.1-0.5,1.1-1.1L23.1,6c0,0,0,0,0-0.1C23.1,5.2,22.6,4.7,22,4.7z M2.2,1.2
		C2.2,1.1,2.2,1.1,2.2,1.2l18.4-0.1c0,0,0,0,0,0.1v3.5h-0.8V2.4c0-0.3-0.3-0.5-0.5-0.5H6c-0.3,0-0.5,0.3-0.5,0.5v0.9H3.7
		c-0.3,0-0.5,0.3-0.5,0.5v2.4H2.2V1.2z M16.9,3.3H6.5V2.9h12.2v1.8h-1.4V3.8C17.4,3.5,17.3,3.3,16.9,3.3z M16.4,4.3v0.3h-3.7
		c-0.2,0-0.3,0.1-0.5,0.3l-0.7,1.2H4.2V4.3H16.4z M20.7,18.4C20.7,18.5,20.7,18.5,20.7,18.4c0,0.1,0,0.2,0,0.2H2.2c0,0,0,0,0-0.1
		c0,0,0,0,0-0.1L1.1,7.3c0-0.1,0-0.1,0-0.1h10.8c0.2,0,0.3-0.1,0.5-0.3l0.7-1.2H17l0,0l0,0h5c0,0,0,0,0,0.1L20.7,18.4z"/>
	<path class="st0" d="M14.5,10.2H8.8c-0.3,0-0.5,0.3-0.5,0.5v4.9c0,0.3,0.3,0.5,0.5,0.5h5.8c0.3,0,0.5-0.3,0.5-0.5v-4.9
		C15.1,10.5,14.9,10.2,14.5,10.2z M14,15.1H9.4v-3.8H14V15.1z"/>
</g>
</svg>
