<?xml version="1.0" encoding="utf-8"?>
<!-- Generator: Adobe Illustrator 22.0.1, SVG Export Plug-In . SVG Version: 6.00 Build 0)  -->
<svg version="1.1" id="Layer_1" xmlns="http://www.w3.org/2000/svg" xmlns:xlink="http://www.w3.org/1999/xlink" x="0px" y="0px"
	 viewBox="0 0 24.2 27.4" style="enable-background:new 0 0 24.2 27.4;" xml:space="preserve">
<style type="text/css">
	.st0{fill:#231E1C;}
</style>
<g>
	<path class="st0" d="M18.5,12.6L18.5,12.6c0.4,0.3,1,0.4,1.4,0.4s1-0.1,1.3-0.4h0.1c0.9-0.4,1.4-1.4,1.4-2.4s-0.5-1.9-1.4-2.4l0,0
		c-0.8-0.4-1.9-0.4-2.6,0l0,0c-0.9,0.4-1.4,1.4-1.4,2.4C17.2,11.3,17.7,12.2,18.5,12.6z M19.1,8.9L19.1,8.9c0.3-0.2,0.5-0.3,0.8-0.3
		c0.3,0,0.5,0.1,0.8,0.2l0,0c0.5,0.3,0.8,0.8,0.8,1.3c0,0.5-0.3,1.1-0.8,1.3h-0.1c-0.4,0.3-1.1,0.3-1.5,0l0,0
		c-0.5-0.3-0.8-0.8-0.8-1.3C18.3,9.7,18.6,9.2,19.1,8.9z"/>
	<path class="st0" d="M23.7,14.5l-1.9-1.1c-0.2-0.1-0.4-0.1-0.6,0c-0.8,0.4-1.9,0.4-2.6,0c-0.2-0.1-0.4-0.1-0.6,0L16,14.5
		c-0.2,0.1-0.3,0.3-0.3,0.5v4.1c0,0.4,0.3,0.6,0.6,0.6h7.2c0.4,0,0.6-0.3,0.6-0.6V15C24.1,14.8,23.9,14.6,23.7,14.5z M22.9,18.5h-6
		v-3.2l1.4-0.8c1.1,0.4,2.2,0.4,3.3,0l1.4,0.8L22.9,18.5L22.9,18.5z"/>
	<path class="st0" d="M13.3,15.4c-0.8-0.4-1.9-0.4-2.6,0l0,0c-0.9,0.5-1.4,1.4-1.4,2.4s0.5,1.9,1.4,2.4h0.1c0.4,0.3,0.9,0.4,1.3,0.4
		s1-0.1,1.3-0.4l0,0c0.9-0.5,1.4-1.4,1.4-2.4C14.7,16.8,14.2,16,13.3,15.4L13.3,15.4z M12.8,19.2L12.8,19.2c-0.5,0.3-1.1,0.3-1.6,0
		l0,0c-0.5-0.3-0.8-0.8-0.8-1.3s0.3-1.1,0.8-1.3l0,0c0.3-0.2,0.5-0.2,0.8-0.2s0.5,0.1,0.8,0.2h0.1c0.5,0.3,0.8,0.8,0.8,1.3
		C13.6,18.4,13.3,19,12.8,19.2z"/>
	<path class="st0" d="M15.9,22.1L13.9,21c-0.2-0.1-0.4-0.1-0.6,0L12,21.8L10.7,21c-0.2-0.1-0.4-0.1-0.6,0l-1.9,1.1
		c-0.2,0.1-0.3,0.3-0.3,0.5v4.1c0,0.4,0.3,0.6,0.6,0.6h7.2c0.4,0,0.6-0.3,0.6-0.6v-4.1C16.2,22.4,16.1,22.2,15.9,22.1z M15.1,26.1
		L15.1,26.1H9v-3.2l1.4-0.8l1.1,0.6v1.1c0,0.4,0.3,0.6,0.6,0.6s0.6-0.3,0.6-0.6v-1.1l1.1-0.6l1.4,0.8L15.1,26.1L15.1,26.1z"/>
	<path class="st0" d="M2.8,12.6L2.8,12.6C3.3,12.9,3.7,13,4.2,13s1-0.1,1.3-0.4h0.1c0.9-0.4,1.4-1.4,1.4-2.4S6.5,8.4,5.6,7.8l0,0
		C4.9,7.4,3.8,7.4,3,7.8L2.8,7.9c-0.9,0.4-1.4,1.4-1.4,2.4C1.4,11.2,1.9,12.2,2.8,12.6z M3.4,8.9L3.4,8.9c0.3-0.2,0.5-0.3,0.8-0.3
		c0.3,0,0.5,0.1,0.8,0.2l0,0c0.5,0.3,0.8,0.8,0.8,1.3c0,0.5-0.3,1.1-0.8,1.3H4.9c-0.4,0.3-1.1,0.3-1.5,0l0,0
		c-0.5-0.3-0.8-0.8-0.8-1.3C2.6,9.7,2.9,9.2,3.4,8.9z"/>
	<path class="st0" d="M8.4,19.1V15c0-0.2-0.1-0.4-0.3-0.5l-1.9-1.1c-0.4-0.1-0.7,0-0.9,0.3l-1.1,1.5L3,13.6
		c-0.2-0.3-0.5-0.3-0.8-0.2l-1.9,1.1C0.1,14.6,0,14.8,0,15v4.1c0,0.4,0.3,0.6,0.6,0.6h7.2C8.1,19.7,8.4,19.5,8.4,19.1z M1.1,18.5
		v-3.2l1.2-0.7l1.3,1.7c0.1,0.2,0.3,0.3,0.4,0.3c0.2,0,0.4-0.1,0.4-0.3l1.3-1.7l1.2,0.7v3.2H1.1z"/>
	<path class="st0" d="M10.7,5.1L10.7,5.1c0.4,0.3,0.9,0.4,1.4,0.4c0.4,0,1-0.1,1.3-0.4h0.1c0.9-0.4,1.4-1.4,1.4-2.4
		s-0.5-1.9-1.4-2.4l0,0c-0.8-0.4-1.9-0.4-2.6,0h-0.1C9.9,0.9,9.4,1.7,9.4,2.7C9.3,3.7,9.8,4.6,10.7,5.1z M11.2,1.4L11.2,1.4
		c0.3-0.2,0.5-0.3,0.8-0.3s0.5,0.1,0.8,0.2l0,0c0.5,0.3,0.8,0.8,0.8,1.3s-0.3,1.1-0.8,1.3h-0.1c-0.4,0.4-1,0.4-1.4,0.2l0,0
		c-0.5-0.3-0.8-0.8-0.8-1.3C10.5,2.2,10.8,1.7,11.2,1.4z"/>
	<path class="st0" d="M8.5,12.2h7.2c0.4,0,0.6-0.3,0.6-0.6V7.5c0-0.2-0.1-0.4-0.3-0.5l-1.9-1.1c-0.2-0.1-0.4-0.1-0.6,0l-1.3,0.8
		l-1.3-0.8c-0.2-0.1-0.4-0.1-0.6,0L8.1,7C7.9,7.1,7.9,7.3,7.9,7.5v4.1C7.9,11.9,8.1,12.2,8.5,12.2z M12.6,7.7L13.7,7l1.4,0.8V11
		h-2.5V7.7z M9,7.8L10.4,7l1.1,0.6V11H9V7.8z"/>
</g>
</svg>
