<?xml version="1.0" encoding="utf-8"?>
<!-- Generator: Adobe Illustrator 22.0.1, SVG Export Plug-In . SVG Version: 6.00 Build 0)  -->
<svg version="1.1" id="Layer_1" xmlns="http://www.w3.org/2000/svg" xmlns:xlink="http://www.w3.org/1999/xlink" x="0px" y="0px"
	 viewBox="0 0 19.3 22" style="enable-background:new 0 0 19.3 22;" xml:space="preserve">
<style type="text/css">
	.st0{fill:#231E1C;}
</style>
<title>all</title>
<g>
	<path class="st0" d="M19,5.6c-1.8-1.8-3.5-3.5-5.3-5.3c-0.1-0.1-0.3-0.2-0.4-0.3H1.1c0,0-0.1,0-0.1,0.1C0.4,0.1,0,0.8,0,1.4
		c0,2.5,0,5,0,7.5c0,3.9,0,7.7,0,11.6C0,21.4,0.6,22,1.5,22h16.3c0.9,0,1.5-0.6,1.5-1.5c0-4.7,0-9.4,0-14.2
		C19.3,6.1,19.2,5.8,19,5.6z M13.8,2.4l3.1,3.1h-3.1V2.4z M17.9,7.1c0,4.2,0,8.5,0,12.7c0,0.6-0.3,0.8-0.8,0.8h-15
		c-0.1,0-0.1,0-0.1,0c-0.4,0-0.6-0.4-0.6-0.7c0-1.4,0-2.9,0-4.4c0-4.4,0-8.9,0-13.4c0-0.4,0.1-0.7,0.5-0.8c0.1,0,0.1,0,0.2,0h10.2
		h0.1c0,0.6,0,1.3,0,1.9c0,0.9,0,1.9,0,2.8c0,0.5,0.3,0.8,0.8,0.8h4.7L17.9,7.1L17.9,7.1z"/>
	<path class="st0" d="M14.4,13.8c-1.6,0-3.2,0-4.8,0l0,0H8.2c-1.1,0-2.2,0-3.4,0c-0.4,0-0.6,0.2-0.7,0.6c-0.1,0.4,0.2,0.7,0.6,0.8
		c0.1,0,0.1,0,0.2,0h9.4c0.1,0,0.1,0,0.3,0c0.4-0.1,0.6-0.4,0.6-0.7C15.2,14.1,14.8,13.7,14.4,13.8z"/>
	<path class="st0" d="M14.4,16.5H4.9c-0.4,0-0.8,0.3-0.8,0.7c0,0.4,0.3,0.7,0.8,0.7h4.7l0,0h4.8c0.4,0,0.8-0.3,0.8-0.7
		C15.2,16.8,14.9,16.5,14.4,16.5z"/>
	<path class="st0" d="M9.6,11H4.9c-0.3,0-0.6,0.1-0.7,0.4c-0.1,0.5,0.1,0.9,0.7,0.9h7.3c0.8,0,1.6,0,2.4,0c0.4,0,0.6-0.2,0.6-0.6
		c0.1-0.4-0.1-0.7-0.6-0.8c-0.1,0-0.2,0-0.3,0H9.6L9.6,11z"/>
	<path class="st0" d="M4.9,9.6h4c0.4,0,0.8-0.3,0.8-0.7c0-0.4-0.3-0.7-0.8-0.7h-2c-0.6,0-1.4,0-2,0c-0.1,0-0.1,0-0.1,0
		c-0.4,0-0.6,0.4-0.6,0.7C4.2,9.4,4.5,9.6,4.9,9.6z"/>
</g>
</svg>
