<?xml version="1.0" encoding="utf-8"?>
<!-- Generator: Adobe Illustrator 22.0.1, SVG Export Plug-In . SVG Version: 6.00 Build 0)  -->
<svg version="1.1" id="Layer_1" xmlns="http://www.w3.org/2000/svg" xmlns:xlink="http://www.w3.org/1999/xlink" x="0px" y="0px"
	 viewBox="0 0 24 24" style="enable-background:new 0 0 24 24;" xml:space="preserve">
<style type="text/css">
	.st0{fill:#231E1C;}
</style>
<title>Bold Cross</title>
<desc>Created with Sketch.</desc>
<g>
	<g>
		<path class="st0" d="M12,10.6L22.3,0.3c0.4-0.4,1-0.4,1.4,0s0.4,1,0,1.4L13.4,12l10.3,10.3c0.4,0.4,0.4,1,0,1.4s-1,0.4-1.4,0
			L12,13.4L1.7,23.7c-0.4,0.4-1,0.4-1.4,0s-0.4-1,0-1.4L10.6,12L0.3,1.7c-0.4-0.4-0.4-1,0-1.4s1-0.4,1.4,0L12,10.6L12,10.6z"/>
	</g>
</g>
</svg>
