<?xml version="1.0" encoding="utf-8"?>
<!-- Generator: Adobe Illustrator 22.0.1, SVG Export Plug-In . SVG Version: 6.00 Build 0)  -->
<svg version="1.1"
	 id="Layer_1" xmlns:cc="http://creativecommons.org/ns#" xmlns:dc="http://purl.org/dc/elements/1.1/" xmlns:inkscape="http://www.inkscape.org/namespaces/inkscape" xmlns:rdf="http://www.w3.org/1999/02/22-rdf-syntax-ns#" xmlns:sodipodi="http://sodipodi.sourceforge.net/DTD/sodipodi-0.dtd" xmlns:svg="http://www.w3.org/2000/svg"
	 xmlns="http://www.w3.org/2000/svg" xmlns:xlink="http://www.w3.org/1999/xlink" x="0px" y="0px" viewBox="0 0 18.3 34"
	 style="enable-background:new 0 0 18.3 34;" xml:space="preserve">
<style type="text/css">
	.st0{opacity:0.7;}
	.st1{fill:#FFFFFF;}
</style>
<g transform="translate(0,-952.36218)" class="st0">
	<path class="st1" d="M0,969.1c0.1-0.7,0.3-1.3,0.8-1.8l11.7-13.7c1.1-1.4,3.2-1.6,4.6-0.5s1.6,3.2,0.5,4.6c0,0.1-0.1,0.1-0.1,0.2
		l-9.9,11.5l9.9,11.5c1.2,1.3,1.1,3.4-0.2,4.6s-3.4,1.1-4.6-0.2c0-0.1-0.1-0.1-0.1-0.2L0.8,971.5C0.2,970.8-0.1,969.9,0,969.1
		L0,969.1z"/>
</g>
</svg>
