<?xml version="1.0" encoding="utf-8"?>
<!-- Generator: Adobe Illustrator 22.0.1, SVG Export Plug-In . SVG Version: 6.00 Build 0)  -->
<svg version="1.1" id="Layer_1" xmlns="http://www.w3.org/2000/svg" xmlns:xlink="http://www.w3.org/1999/xlink" x="0px" y="0px"
	 viewBox="0 0 123.7 161.7" style="enable-background:new 0 0 123.7 161.7;" xml:space="preserve">
<style type="text/css">
	.st0{fill:#EFEDE7;}
</style>
<g>
	<g>
		<g>
			<path class="st0" d="M120.5,49.9H87.3c-7.4,0-13.5-6.1-13.5-13.5V3.2C73.8,2.1,74,1,74.4,0H7C3.2,0,0,3.2,0,7v147.7
				c0,3.9,3.2,7,7,7h109.7c3.9,0,7-3.2,7-7V49.3C122.7,49.7,121.6,49.9,120.5,49.9z M16.6,52.6c0-1.8,1.5-3.2,3.2-3.2h39.3
				c1.8,0,3.2,1.5,3.2,3.2v39.3c0,1.8-1.5,3.2-3.2,3.2H19.8c-1.8,0-3.2-1.4-3.2-3.2C16.6,91.9,16.6,52.6,16.6,52.6z M102,139.5H19.8
				c-1.8,0-3.2-1.4-3.2-3.2s1.4-3.2,3.2-3.2H102c1.8,0,3.2,1.4,3.2,3.2C105.3,138,103.8,139.5,102,139.5z M102,115.8H19.8
				c-1.8,0-3.2-1.4-3.2-3.2c0-1.8,1.4-3.2,3.2-3.2H102c1.8,0,3.2,1.4,3.2,3.2C105.3,114.3,103.8,115.8,102,115.8z M106.2,61.2
				L86.5,80.8c-0.6,0.6-1.5,0.9-2.3,0.9s-1.7-0.3-2.3-0.9l-9.6-9.6c-1.3-1.3-1.3-3.3,0-4.6s3.3-1.3,4.6,0l7.3,7.3l17.4-17.4
				c1.3-1.3,3.3-1.3,4.6,0C107.4,57.9,107.4,59.9,106.2,61.2z"/>
			<path class="st0" d="M87.3,43.4h33.2c1.3,0,2.5-0.8,3-2s0.2-2.6-0.7-3.5l-36.9-37C85,0,83.6-0.3,82.4,0.2s-2,1.7-2,3v33.1
				C80.3,40.2,83.5,43.4,87.3,43.4z"/>
		</g>
	</g>
</g>
</svg>
