<?xml version="1.0" encoding="utf-8"?>
<!-- Generator: Adobe Illustrator 22.0.1, SVG Export Plug-In . SVG Version: 6.00 Build 0)  -->
<svg version="1.1" id="Layer_1" xmlns="http://www.w3.org/2000/svg" xmlns:xlink="http://www.w3.org/1999/xlink" x="0px" y="0px"
	 viewBox="0 0 168.5 57.6" style="enable-background:new 0 0 168.5 57.6;" xml:space="preserve">
<style type="text/css">
	.st0{fill:#241F1D;}
</style>
<g>
	<path class="st0" d="M57.6,28.8c0-0.6,0-1.2-0.1-1.7C56.6,12,44.1,0,28.8,0C12.9,0,0,12.9,0,28.8s12.9,28.8,28.8,28.8
		c15.3,0,27.8-12,28.7-27.1C57.6,30,57.6,29.4,57.6,28.8z M55.3,30.3c-0.8,7.4-7,13.2-14.7,13.2c-6,0-11.2-3.6-13.5-8.8l14.7-20.6
		c7.1,0.6,12.8,6.1,13.5,13.2c0,0.5,0.1,1,0.1,1.5S55.3,29.8,55.3,30.3z M25.9,28.8c0-7.6,5.8-13.9,13.2-14.7l-12.8,18
		C26,31,25.9,29.9,25.9,28.8z M52.4,16.6c-2.4-2.3-5.6-4-9.1-4.5l2.6-3.6C48.5,10.7,50.7,13.4,52.4,16.6z M44.1,7.1l-3.4,4.7
		c0,0,0,0-0.1,0c-9.4,0-17,7.6-17,17c0,2,0.4,3.9,1,5.6l-4.3,6.1V3.6c2.7-0.9,5.5-1.4,8.5-1.4C34.5,2.2,39.7,4,44.1,7.1z M28.8,55.4
		c-14.7,0-26.6-11.9-26.6-26.6C2.2,18,8.8,8.6,18.1,4.5v43l7.6-10.7c2.9,5.3,8.5,9,15,9c4.6,0,8.7-1.8,11.7-4.7
		C47.9,49.5,39,55.4,28.8,55.4z"/>
	<g>
		<path class="st0" d="M77.4,19v7.1H75V11.9h2.3v6.8l5.3-6.8h2.9l-5.4,6.9l5.8,7.3h-3L77.4,19z"/>
		<path class="st0" d="M97.3,22.7h-6.4l-1.5,3.4h-2.7L93,11.9h2.2l6.3,14.2h-2.7L97.3,22.7z M91.7,20.6h4.8l-2.4-5.7L91.7,20.6z"/>
		<path class="st0" d="M104.4,26.1v3h-2.1v-4.9c1.4,0,2.3-1.1,2.3-3.1v-9.2h9.1v12.3h1.5v4.9H113v-3H104.4z M105.9,24.2h5.3V13.9
			H107v7.3C107,22.3,106.7,23.5,105.9,24.2z"/>
		<path class="st0" d="M121.5,11.9h7.5v1.9h-5.2v12.3h-2.3V11.9z"/>
		<path class="st0" d="M133.2,18.1h4.8V20h-4.8v4.2h5.5v1.9h-7.8V11.9h7.7v1.9h-5.4V18.1z"/>
		<path class="st0" d="M147.5,11.8c4.3,0,7.2,3,7.2,7.3s-2.9,7.3-7.2,7.3c-4.3,0-7.2-3-7.2-7.3S143.2,11.8,147.5,11.8z M147.5,24.2
			c2.9,0,4.8-2.1,4.8-5.2s-2-5.2-4.8-5.2c-2.9,0-4.8,2.1-4.8,5.2S144.7,24.2,147.5,24.2z"/>
		<g>
			<path class="st0" d="M77.4,40.8v7.1H75V33.8h2.3v6.8l5.3-6.8h2.9l-5.4,6.9l5.8,7.3h-3L77.4,40.8z"/>
			<path class="st0" d="M93.3,33.6c4.3,0,7.2,3,7.2,7.3s-2.9,7.3-7.2,7.3c-4.3,0-7.2-3-7.2-7.3S88.9,33.6,93.3,33.6z M93.3,46
				c2.9,0,4.8-2.1,4.8-5.2c0-3.1-2-5.2-4.8-5.2c-2.9,0-4.8,2.1-4.8,5.2C88.4,43.9,90.4,46,93.3,46z"/>
			<path class="st0" d="M104.9,39.9h6.8v-6.1h2.3v14.2h-2.3v-6.2h-6.8v6.2h-2.3V33.8h2.3V39.9z"/>
			<path class="st0" d="M123.4,46c1.5,0,2.8-0.5,3.6-1.4l1.5,1.5c-1.3,1.3-3.1,2-5.2,2c-4.3,0-7.2-3-7.2-7.3s2.9-7.3,7.2-7.3
				c2.1,0,4,0.7,5.2,2l-1.5,1.5c-0.9-0.9-2.1-1.4-3.6-1.4c-2.9,0-5,2.1-5,5.2C118.5,43.9,120.5,46,123.4,46z"/>
			<path class="st0" d="M140.1,44.5h-6.4l-1.5,3.4h-2.7l6.3-14.2h2.2l6.3,14.2h-2.7L140.1,44.5z M134.5,42.5h4.8l-2.4-5.7
				L134.5,42.5z"/>
			<path class="st0" d="M145.3,46.5c1.4,0,2.3-0.8,2.3-2.4V33.8h9.1v14.2h-2.4V35.7H150V44c0,2.4-1.3,4-3.5,4c-0.4,0-0.9,0-1.2-0.1
				V46.5z"/>
			<path class="st0" d="M164.7,47.9h-2.3V35.7h-3.8v-1.9h9.9v1.9h-3.8V47.9z"/>
		</g>
	</g>
</g>
</svg>
