<?xml version="1.0" encoding="utf-8"?>
<!-- Generator: Adobe Illustrator 22.0.1, SVG Export Plug-In . SVG Version: 6.00 Build 0)  -->
<svg version="1.1" id="Layer_1" xmlns="http://www.w3.org/2000/svg" xmlns:xlink="http://www.w3.org/1999/xlink" x="0px" y="0px"
	 viewBox="0 0 88.9 89" style="enable-background:new 0 0 88.9 89;" xml:space="preserve">
<style type="text/css">
	.st0{fill:#F8F7F3;}
</style>
<g>
	<g>
		<path class="st0" d="M43.1,4.1l-0.1,3.9l-1.5,0L41.7,0l1.5,0l-0.1,3.6l2.8-3.6l1.9,0l-2.9,3.8L48,8l-2,0L43.1,4.1z"/>
		<path class="st0" d="M61.9,10.5L58.8,9l-1.4,1.2l-1.6-0.7l6.5-5.7l1.3,0.6l-0.1,8.7l-1.6-0.7L61.9,10.5z M59.8,8L62,9l0.1-3.1
			L59.8,8z"/>
		<path class="st0" d="M70.8,19.1l-1.3,1.1l-0.9-1.1l2.2-1.9c0.5,0.6,1.3,0.5,2.1-0.2l3.8-3.2l3.4,4L75,22.2l0.5,0.6l-2.2,1.9
			l-0.9-1.1l1.3-1.1L70.8,19.1z M72.3,19l1.7,2l4.1-3.5l-1.4-1.6l-2.8,2.4C73.4,18.7,72.9,19,72.3,19z"/>
		<path class="st0" d="M88.8,41.4l0.1,4.3l-1.2,0L87.6,43l-6.7,0.1l0-1.5L88.8,41.4z"/>
		<path class="st0" d="M83.4,57.4l-0.8,2.3l-1.2-0.4l0.8-2.3l-2-0.7l-0.9,2.7l-1.2-0.4l1.5-4.2l7.5,2.6l-1.4,4.1l-1.2-0.4l0.9-2.7
			L83.4,57.4z"/>
		<path class="st0" d="M77.1,74.7c-1.7,1.8-4,1.9-5.8,0.2c-1.8-1.6-1.9-4-0.2-5.8c1.6-1.8,4-1.9,5.8-0.2
			C78.7,70.6,78.7,72.9,77.1,74.7z M72.1,70.1c-1,1.1-0.9,2.6,0.3,3.7c1.2,1.1,2.7,1.1,3.7,0c1-1.1,0.9-2.6-0.3-3.7
			C74.6,69,73.1,69,72.1,70.1z"/>
		<path class="st0" d="M50.1,84.5l-0.4-3.9l1.5-0.2l0.8,7.9l-1.5,0.2l-0.4-3.6l-2.3,3.9L45.9,89l2.4-4.1l-3.5-3.7l2-0.2L50.1,84.5z"
			/>
		<path class="st0" d="M30.8,86.9c-2.3-0.7-3.4-2.8-2.6-5.1c0.7-2.3,2.8-3.4,5.1-2.6c2.3,0.7,3.4,2.8,2.6,5.1
			C35.2,86.6,33.1,87.6,30.8,86.9z M32.9,80.4c-1.4-0.4-2.7,0.3-3.2,1.8c-0.5,1.5,0.1,2.9,1.5,3.3c1.4,0.4,2.7-0.3,3.2-1.8
			C34.9,82.2,34.3,80.9,32.9,80.4z"/>
		<path class="st0" d="M17.7,75.7l-2.6-2.4l-2.3,2.4l-1.1-1l5.4-5.8l1.1,1L16,72.5l2.6,2.4l2.3-2.4l1.1,1l-5.4,5.8l-1.1-1L17.7,75.7
			z"/>
		<path class="st0" d="M9.3,58.4c-0.3-0.7-0.8-1.2-1.4-1.5l0.5-1.3c0.9,0.4,1.7,1.2,2.2,2.3c0.9,2.2,0.1,4.4-2.2,5.3
			c-2.2,0.9-4.4,0.1-5.3-2.2C2.6,60,2.6,58.9,3,58l1.3,0.5c-0.3,0.6-0.2,1.3,0.1,2c0.6,1.4,2,1.9,3.5,1.3S9.9,59.8,9.3,58.4z"/>
		<path class="st0" d="M6.3,41.3l-0.1,3.4l1.7,0.8l-0.1,1.8L0,43.5l0.1-1.4l8-3.2L8,40.6L6.3,41.3z M4.8,44.1l0.1-2.4L2,42.9
			L4.8,44.1z"/>
		<path class="st0" d="M9.5,30.5c0.3-0.7,0.1-1.3-0.6-1.7l-5-2.6l2.4-4.7l7.1,3.6l-0.7,1.4l-5.9-3l-1,1.9l3.9,2
			c1.2,0.6,1.8,1.8,1.2,3c-0.1,0.2-0.3,0.5-0.4,0.6L9.5,30.5z"/>
		<path class="st0" d="M21.5,16.1l-1.2,1L16,11.9l-1.6,1.3l-0.8-1l4.3-3.6l0.8,1L17.2,11L21.5,16.1z"/>
	</g>
	<path class="st0" d="M73.6,44.5c0-0.6,0-1.2-0.1-1.8c-0.9-15.3-13.6-27.5-29.1-27.5c-16.1,0-29.2,13.1-29.2,29.2
		s13.1,29.2,29.2,29.2c15.5,0,28.2-12.2,29.1-27.5C73.6,45.7,73.6,45.1,73.6,44.5z M71.3,46c-0.8,7.5-7.1,13.4-14.9,13.4
		c-6.1,0-11.4-3.7-13.7-8.9l14.9-20.9c7.2,0.6,13,6.2,13.7,13.4c0,0.5,0.1,1,0.1,1.5C71.4,45,71.3,45.5,71.3,46z M41.5,44.5
		c0-7.7,5.9-14.1,13.4-14.9l-13,18.2C41.6,46.8,41.5,45.7,41.5,44.5z M68.3,32.1c-2.5-2.4-5.7-4-9.2-4.6l2.6-3.7
		C64.4,26.1,66.7,28.9,68.3,32.1z M59.9,22.5l-3.4,4.8c0,0,0,0-0.1,0c-9.5,0-17.2,7.7-17.2,17.2c0,2,0.4,3.9,1,5.7l-4.4,6.2V19
		c2.7-0.9,5.6-1.4,8.6-1.4C50.2,17.5,55.5,19.4,59.9,22.5z M44.4,71.4c-14.9,0-27-12.1-27-27c0-11,6.6-20.4,16.1-24.6v43.6l7.7-10.8
		c2.9,5.4,8.6,9.1,15.2,9.1c4.6,0,8.8-1.8,11.9-4.8C63.8,65.5,54.8,71.4,44.4,71.4z"/>
</g>
</svg>
