<?xml version="1.0" encoding="utf-8"?>
<!-- Generator: Adobe Illustrator 22.0.1, SVG Export Plug-In . SVG Version: 6.00 Build 0)  -->
<svg version="1.1" id="Layer_1" xmlns="http://www.w3.org/2000/svg" xmlns:xlink="http://www.w3.org/1999/xlink" x="0px" y="0px"
	 viewBox="0 0 38.5 39" style="enable-background:new 0 0 38.5 39;" xml:space="preserve">
<style type="text/css">
	.st0{fill:#8C8C8E;}
</style>
<g>
	<path class="st0" d="M13,21.6c0,0,0.1,0,0.1,0c0,0,0.1-0.1,0.1-0.1c0,0,0,0,0.1-0.1c0,0,0.1-0.1,0.2-0.1h0c0.1,0,0.1,0,0.2-0.1
		c0.1-0.1,0.1-0.1,0.1-0.2c0-0.1,0-0.3,0-0.5c0-0.3,0-0.5,0.1-0.7c0,0,0,0,0-0.1s0-0.1,0-0.1c0-0.1,0-0.1,0-0.2
		c0.1-0.1,0.1-0.3,0.1-0.5c0-0.2,0-0.3,0-0.3c0-0.3,0-0.5,0.1-0.7c0,0,0-0.1,0-0.1c0,0,0-0.1,0-0.1c0,0,0-0.1,0-0.1
		c0-0.1,0.1-0.2,0.1-0.3c0-0.1,0-0.2,0.1-0.3c0-0.2,0-0.4,0-0.4c0.1-0.1,0.1-0.3,0.1-0.5c0-0.2,0-0.3,0-0.3c0-0.2,0-0.3,0-0.4
		s0.1-0.2,0.1-0.3c0-0.1,0.1-0.2,0.1-0.3c0-0.2,0.1-0.4,0.1-0.5c0-0.1,0-0.1,0.1-0.2c0-0.1,0.1-0.2,0.1-0.2c0-0.1,0-0.1,0-0.1
		c0-0.1,0.1-0.2,0.1-0.4c0.1-0.2,0.1-0.4,0.2-0.5c0-0.1,0.1-0.3,0.1-0.5c0.1-0.2,0.1-0.4,0.1-0.5c0-0.1,0.1-0.2,0.1-0.4
		c0.1-0.2,0.1-0.3,0.1-0.5c0-0.1,0.1-0.4,0.2-0.8c0.2-0.5,0.3-0.9,0.4-1.4c0,0,0-0.1,0-0.1s0,0,0-0.1c0,0,0.1-0.1,0.1-0.1
		c0.1,0,0.1,0,0.1,0.1c0,0.1,0,0.2,0,0.4c0,0.2,0.1,0.3,0.2,0.5c0,0.2,0.1,0.6,0.2,1.1v0.1c0,0.2,0,0.4,0.1,0.6
		c0,0.1,0.1,0.2,0.1,0.3c0,0.1,0,0.2,0.1,0.3c0.1,0.3,0.2,0.6,0.3,0.8c0,0.1,0.1,0.2,0.1,0.4c0,0.2,0.1,0.4,0.1,0.5
		c0.1,0.4,0.2,0.7,0.2,0.9c0,0.1,0,0.2,0.1,0.3c0,0.1,0,0.2,0.1,0.2c0.1,0.1,0.1,0.3,0.1,0.4c0,0.1,0,0.2,0.1,0.3
		c0,0.1,0.1,0.2,0.1,0.4c0,0,0,0.1,0.1,0.2c0,0.1,0.1,0.2,0.1,0.2c0,0.1,0,0.1-0.1,0.2c0,0,0,0.1,0,0.1c0.1,0.2,0.2,0.4,0.3,0.6
		c0.1,0.2,0.1,0.4,0.1,0.4c0.1,0.3,0.3,0.6,0.6,0.9h0.1c0,0,0-0.1,0-0.1c0,0,0-0.1,0-0.1c0-0.1,0-0.1,0-0.1
		c-0.1-0.1-0.1-0.3-0.1-0.6v-0.2c0,0,0,0,0,0c0,0,0,0,0-0.1c0-0.1,0.1-0.1,0.1-0.1c0.1,0,0.1,0,0.1,0.1c0,0.1,0,0.2,0,0.4V18
		c0,0.3,0,0.5,0.2,0.6c0.1,0.1,0.1,0.2,0.1,0.3c0,0.1,0.1,0.2,0.1,0.3c0,0,0,0,0.1,0.1c0,0.1,0,0.1,0,0.3c0,0.1,0,0.2,0.1,0.3
		c0,0,0,0,0,0.1c0,0,0,0,0,0c0,0,0,0,0.1,0h0.1c0.1-0.1,0.1-0.3,0.1-0.5c0-0.2,0.1-0.4,0.1-0.5c0-0.3,0-0.6,0.1-0.9
		c0-0.1,0-0.2,0.1-0.4c0-0.2,0.1-0.4,0-0.6c0-0.1,0-0.1,0-0.1c0.1-0.1,0.1-0.2,0.1-0.3c0-0.1,0-0.2,0-0.3c0-0.1,0-0.2,0-0.3
		c0-0.1,0-0.1,0.1-0.2c0-0.1,0.1-0.2,0.1-0.2c0-0.1,0-0.2,0-0.4c0-0.2,0.1-0.3,0.1-0.5c0,0,0,0,0-0.1c0,0,0-0.1,0-0.1
		c0-0.2,0-0.4,0.1-0.6c0-0.1,0.1-0.3,0.1-0.5c0-0.2,0-0.3,0-0.5c0-0.2,0.1-0.4,0.2-0.6C22,12.4,22,12.2,22,12
		c0.1-0.2,0.1-0.4,0.2-0.5c0-0.1,0-0.3,0.1-0.5c0-0.1,0-0.2,0.1-0.3c0-0.2,0.1-0.3,0-0.5c0-0.1,0-0.2,0.1-0.3c0-0.1,0.1-0.3,0.1-0.3
		c0.1-0.1,0.1-0.3,0.1-0.5c0-0.2,0-0.3,0.1-0.4c0,0,0-0.1,0-0.2V8.3c0-0.1,0-0.1,0-0.2C22.9,8,23,8,23,7.9c0-0.1,0-0.1,0-0.2
		c0-0.1,0-0.1,0-0.1c0,0,0,0,0,0.1c0,0,0,0,0,0.1c0,0.1-0.1,0.2-0.1,0.2c0,0.1-0.1,0.1-0.1,0.2c0,0.1,0,0.1,0,0.2s0,0.2-0.1,0.2
		c0,0,0,0-0.1,0c0-0.4,0-0.6,0-0.7c0-0.1,0.1-0.3,0.2-0.6c0.1-0.1,0.1-0.3,0.1-0.4c0-0.2,0.1-0.4,0.2-0.9c0.1-0.4,0.2-0.7,0.2-0.8
		c0.1-0.2,0.2-0.5,0.3-1c0.1-0.5,0.2-0.8,0.3-1.1c0,0,0,0,0,0s0,0,0-0.1c0-0.1,0-0.3,0.1-0.5C24,2.4,24,2.2,24,2.1
		c0-0.3,0.1-0.5,0.3-0.8c0.1-0.1,0.1-0.2,0.1-0.3c0-0.2,0-0.5,0-0.9c0,0,0-0.1,0-0.1s-0.1,0-0.1,0c-0.1,0-0.2,0-0.4,0
		c-0.1,0-0.2,0-0.2,0.1c-0.1,0.1-0.1,0.1-0.1,0.2c-0.1,0.4-0.3,0.9-0.5,1.5c0,0.1-0.1,0.3-0.1,0.5c-0.1,0.3-0.2,0.6-0.1,0.8
		c0,0.3,0,0.6-0.2,0.9c0,0,0,0.1-0.1,0.1c0,0.1,0,0.1,0,0.1c0,0.1,0,0.3-0.1,0.5c0,0,0,0.1-0.1,0.2c0,0.1,0,0.2,0,0.3
		c0,0.1,0,0.2,0,0.3c0,0.1,0,0.2-0.1,0.2c0,0,0,0.1-0.1,0.2c0,0.1,0,0.2,0,0.3c0,0,0,0.1,0,0.2c-0.1,0.3-0.2,0.6-0.2,0.8
		c-0.1,0.4-0.2,0.7-0.3,0.8c-0.1,0.2-0.1,0.5-0.2,0.8c0,0.3-0.1,0.6-0.2,0.7c-0.1,0.1-0.1,0.3-0.1,0.4c0,0.2-0.1,0.3-0.1,0.4
		l-0.1,0.6c0,0.4-0.1,0.8-0.2,1c0,0.1,0,0.4-0.1,0.7c-0.1,0.3-0.1,0.5-0.1,0.7c-0.1,0.2-0.1,0.4-0.1,0.6c0,0.2,0,0.3,0,0.4
		c0,0.1,0,0.2,0,0.3c-0.1,0.1-0.1,0.2-0.1,0.4c0,0.2,0,0.3-0.1,0.4c0,0.1,0,0.2,0,0.2c0,0.1,0,0.1,0,0.1c0,0.1,0,0.2,0,0.3
		c0,0.2-0.1,0.4-0.2,0.6c0,0,0,0,0,0c0,0,0,0,0,0c0-0.1,0-0.2,0-0.3c0-0.1,0-0.2-0.1-0.3c-0.1-0.2-0.2-0.4-0.2-0.5
		c0,0,0-0.1-0.1-0.1s-0.1,0-0.1-0.1c0,0,0,0-0.1,0c0,0-0.1,0-0.1-0.1c0,0,0,0,0-0.1c0.1-0.1,0.1-0.2,0.1-0.3c0-0.1,0-0.2,0-0.2
		c0-0.1-0.1-0.3-0.2-0.5c-0.1-0.2-0.2-0.4-0.3-0.6c0,0,0-0.1,0-0.2c0-0.1,0-0.1,0-0.2c0-0.1,0-0.2,0-0.3c-0.1-0.3-0.2-0.5-0.3-0.6
		c-0.1-0.2-0.1-0.3-0.1-0.5c0,0,0-0.1,0-0.1c0-0.1,0-0.1,0-0.1c-0.1-0.2-0.2-0.5-0.3-1c0-0.1-0.1-0.4-0.2-0.7
		c-0.1-0.2-0.1-0.4-0.2-0.6c-0.1-0.2-0.1-0.4-0.1-0.5c-0.1-0.5-0.2-0.9-0.3-1.1c0-0.1,0-0.1,0-0.2c0-0.1,0-0.2,0-0.2
		c-0.1-0.2-0.1-0.3-0.1-0.5c0-0.2-0.1-0.3-0.1-0.5c0-0.1,0-0.2-0.1-0.2l-0.3-0.9c0-0.1-0.1-0.2-0.2-0.2l-0.1,0
		c-0.2,0-0.3,0.1-0.4,0.3C16,5.4,15.9,5.6,16,5.7c0,0.3,0,0.6-0.2,1.1c0,0.1-0.1,0.3-0.2,0.7c0,0.1-0.1,0.2-0.1,0.4
		c-0.1,0.2-0.1,0.3-0.2,0.4c-0.1,0.1-0.1,0.2-0.1,0.4C15.1,8.9,15,9,15,9.1c-0.1,0.2-0.2,0.4-0.3,0.7c-0.1,0.3-0.1,0.5-0.2,0.6
		c0,0,0,0.1,0,0.2s0,0.1,0,0.2c-0.1,0.1-0.1,0.3-0.1,0.4c0,0.1-0.1,0.3-0.1,0.5c0,0.1-0.1,0.2-0.1,0.4c0,0.2-0.1,0.3-0.2,0.5
		c0,0.1,0,0.3-0.1,0.5c-0.1,0.2-0.1,0.3-0.1,0.5l-0.1,0.8c0,0.1-0.1,0.2-0.1,0.4c0,0.2-0.1,0.3-0.1,0.4c-0.1,0.1-0.1,0.2-0.1,0.4
		c0,0.1,0,0.4-0.1,0.6c-0.1,0.3-0.1,0.6-0.1,0.8c0,0.1,0,0.2,0,0.2c-0.1,0.1-0.1,0.3-0.1,0.4c0,0.2,0,0.3,0,0.4
		c0,0.5-0.1,0.9-0.1,1.2c-0.1,0.2-0.1,0.4-0.1,0.6c0,0.2,0,0.4,0,0.4c0,0,0,0.1,0,0.2c0,0.1,0,0.2-0.1,0.3c0,0,0,0.1,0,0.2
		c0,0.1,0,0.2,0,0.2c0,0.1,0,0.1,0,0.2c0,0.1,0,0.2,0,0.2c0,0.1,0,0.1,0.1,0.2C12.9,21.5,12.9,21.6,13,21.6z M22,10
		c0.1-0.2,0.1-0.4,0.1-0.5c0.1-0.1,0.1-0.2,0.2-0.4c0-0.2,0-0.2,0-0.3c0-0.1,0.1-0.2,0.2-0.2c0,0.4,0,0.9-0.2,1.4
		c-0.1,0.1-0.1,0.2-0.1,0.3c0,0.1,0,0.2,0,0.3c0,0,0,0,0,0.1c0,0,0,0-0.1,0c0,0,0,0,0-0.1C21.9,10.4,21.9,10.2,22,10z M21.4,12.4
		c0-0.1,0.1-0.2,0.1-0.3s0-0.2,0-0.3c0-0.1,0.1-0.2,0.1-0.3c0-0.1,0.1-0.2,0.1-0.3c0,0,0-0.1,0-0.1c0.1-0.1,0.1-0.1,0.1,0
		c0,0,0,0.1,0,0.1c0,0,0,0.1,0,0.2c0,0.1,0,0.1,0,0.2c-0.1,0.2-0.1,0.4-0.2,0.8c0,0.1-0.1,0.2-0.1,0.3c0,0.1-0.1,0.2-0.1,0.3l0,0.1
		c0,0-0.1,0.1-0.1,0.1c0,0-0.1-0.1-0.1-0.2c0-0.1,0-0.2,0-0.3C21.3,12.6,21.4,12.5,21.4,12.4z M21.1,13.9c0-0.1,0.1-0.2,0.1-0.3
		c0,0,0,0,0.1-0.1c0,0,0,0,0,0c0,0,0,0,0,0c0,0.1,0,0.1,0,0.2c0,0.2,0,0.3-0.1,0.5c0,0,0,0-0.1,0.1c-0.1-0.1-0.1-0.2-0.1-0.3
		C21.1,14,21.1,13.9,21.1,13.9z M20.3,17.5c0.1-0.3,0.1-0.4,0.1-0.5c0-0.1,0-0.1,0.1-0.2c0-0.1,0-0.2,0-0.2c0.1-0.5,0.2-0.9,0.3-1.2
		c0-0.3,0.1-0.5,0.2-0.9c0,0,0.1-0.1,0.1-0.1c0,0.1,0,0.2,0,0.3c0,0.1,0,0.3-0.1,0.5C21,15.4,21,15.6,21,15.8c0,0,0,0.1,0,0.3
		c0,0.1,0,0.3,0,0.4c0,0.1-0.1,0.3-0.1,0.4c0,0,0,0.1,0,0.1c0,0.1,0,0.1,0,0.1c0,0.1,0,0.2,0,0.4c0,0.2,0,0.3-0.1,0.4
		c-0.1,0.1-0.1,0.2-0.1,0.4c0,0.2,0,0.4-0.1,0.6c-0.1,0.2-0.1,0.3-0.2,0.4c0,0-0.1,0-0.1,0.1c0-0.1,0-0.2,0-0.4c0-0.2,0-0.3-0.1-0.4
		c0-0.1-0.1-0.3-0.1-0.4C20.2,18.1,20.2,17.8,20.3,17.5z M19.5,16.5c0,0.1,0,0.1-0.1,0.1c0,0,0,0,0,0c0,0,0,0,0,0c0-0.1,0-0.2,0-0.2
		C19.5,16.4,19.5,16.4,19.5,16.5z M19.3,16.2L19.3,16.2L19.3,16.2C19.3,16.3,19.3,16.2,19.3,16.2z M13.5,16.5c0,0,0-0.1,0-0.2
		c0-0.1,0-0.2,0.1-0.2c0,0,0,0,0-0.1c0,0,0,0,0,0c0,0,0,0,0,0.1c0,0,0,0.1,0,0.1c0,0,0,0.1,0,0.2c0,0.1,0,0.2-0.1,0.3
		c0,0.1,0,0.1-0.1,0.1c0,0,0-0.1,0-0.1C13.5,16.6,13.5,16.6,13.5,16.5L13.5,16.5z M13.2,17.9c0.1-0.1,0.1-0.2,0.1-0.3
		c0,0,0-0.1,0-0.2c0-0.1,0-0.1,0-0.2c0-0.1,0.1-0.2,0.1-0.3c0-0.1,0-0.2,0.1-0.2c0,0,0,0,0.1,0c0,0.1,0,0.2,0,0.3
		c0,0.1,0,0.2-0.1,0.3c0,0.2-0.1,0.3-0.1,0.5c0,0.1,0,0.2-0.1,0.2c0,0.1-0.1,0.2-0.1,0.3c0,0.1,0,0.2,0,0.3c0,0,0,0.1,0,0.1
		c0,0,0,0,0,0c0,0,0,0,0,0c0-0.2,0-0.4,0-0.5c0,0,0-0.1,0-0.1c0,0,0-0.1,0-0.1C13.2,18,13.2,18,13.2,17.9z M13.1,19.5
		C13.1,19.5,13.1,19.5,13.1,19.5C13.2,19.5,13.2,19.5,13.1,19.5l0.1,0.1c0,0,0,0.1-0.1,0.1c0,0,0,0,0,0s0,0,0,0V19.5z M13.1,19.9
		L13.1,19.9c0,0.1,0,0.1,0,0.1C13.1,20,13.1,19.9,13.1,19.9z M13.1,20l0,0.2c0,0,0,0.1-0.1,0.1c0-0.1-0.1-0.1-0.1-0.2
		C13,20.1,13,20.1,13.1,20z"/>
	<path class="st0" d="M32.5,12c-0.1,0-0.2,0-0.2,0c-0.1,0-0.2,0-0.3-0.1c-0.1,0-0.1,0-0.2,0c-0.2,0.1-0.4,0.1-0.5,0.1h-0.1
		c-0.1,0-0.2,0-0.3,0.1c-0.1,0-0.2,0-0.4,0.1c-0.2,0-0.3,0-0.4,0.1c-0.1,0-0.3,0-0.4,0.1c-0.2,0.1-0.3,0.1-0.4,0.1
		c-0.1,0-0.2,0.1-0.4,0.1c-0.2,0-0.3,0-0.4,0.1c-0.1,0-0.1,0.1-0.2,0.1c-0.1,0.1-0.2,0.1-0.2,0.2c0,0,0,0.1,0,0.1
		c0,0.1,0,0.2-0.1,0.2c0,0-0.1,0-0.1,0.1c0,0,0,0,0,0.1s0,0.1,0,0.1c0,0,0,0,0,0.1c0,0,0,0,0.1,0l0.5,0c0.1,0,0.3,0,0.6-0.1
		c0.1,0,0.3-0.1,0.5-0.1c0.2,0,0.4,0,0.6-0.1s0.4-0.1,0.4-0.1c0.1,0,0.4-0.1,0.7-0.1l0.8-0.1c0,0,0,0,0,0.1c0,0,0,0,0,0.1
		c0,0.1,0,0.2-0.1,0.3c-0.1,0.1-0.1,0.2-0.1,0.2l-0.4,0.5c-0.2,0.2-0.3,0.5-0.5,0.6c0,0.1-0.1,0.2-0.3,0.3c-0.3,0.2-0.5,0.4-0.8,0.7
		c-0.3,0.3-0.4,0.4-0.5,0.5c-0.1,0.1-0.1,0.1-0.2,0.1c-0.1,0.1-0.1,0.1-0.2,0.2c-0.1,0.1-0.2,0.2-0.2,0.3l0,0
		c-0.3,0.1-0.5,0.3-0.7,0.6c0,0,0,0.1-0.1,0.1c0,0,0,0-0.1,0.1c0,0-0.1,0.1-0.2,0.1c-0.1,0-0.1,0.1-0.1,0.2c0.1,0.1,0.1,0.1,0.2,0.1
		c0,0,0.1,0,0.1,0c0.1-0.1,0.2-0.1,0.3-0.2c0.1-0.1,0.3-0.1,0.3-0.2c0.3-0.1,0.6-0.2,0.8-0.4c0.1,0,0.3-0.2,0.6-0.4
		c0.3-0.2,0.4-0.3,0.5-0.3c0.1-0.1,0.3-0.2,0.6-0.5c0,0,0,0,0-0.1c0,0,0,0,0.1-0.1c0.1-0.1,0.1-0.1,0.2-0.2c0.1-0.1,0.1-0.1,0.2-0.2
		c0.1-0.1,0.3-0.3,0.4-0.6c0,0,0.1,0,0.1-0.1c0,0,0.1-0.1,0.1-0.1H32c0,0,0,0,0,0c0,0,0,0,0,0c0,0.1,0,0.2,0,0.3
		c0,0.2,0,0.3-0.1,0.4c-0.1,0.2-0.1,0.3-0.1,0.5c0,0.1,0,0.4,0,0.7c0,0.1,0,0.3,0,0.5c0,0.2,0,0.4-0.1,0.6c0,0.1,0,0.3,0.1,0.5
		c0,0,0,0.1,0,0.1c0,0.1,0,0.1,0,0.2c0,0,0,0,0,0c0,0,0,0,0,0.1c0,0.1,0.1,0.3,0.1,0.5c0,0.2,0,0.4,0,0.5c0,0,0,0.1,0,0.2
		c0,0.1,0,0.1,0,0.2c0,0.1,0,0.3,0,0.5v0.5c0,0.1,0,0.1,0,0.1c0,0,0,0.1,0,0.1l0,0.1c0,0.1,0.1,0.2,0.1,0.3c0.1,0.3,0.4,0.3,0.7,0v0
		c0-0.2,0-0.4,0-0.5l0-0.3c0-0.1,0-0.1-0.1-0.2c0-0.4,0.1-0.6,0.1-0.6l0-0.3c0-0.7,0.1-1.2,0.1-1.6l0-0.7c0-0.3,0-0.7,0.1-1.3
		c0-0.1,0-0.3,0-0.4c0-0.2,0-0.4,0-0.6c0,0,0-0.1,0-0.3c0-0.1,0-0.2,0.1-0.3c0-0.1,0.1-0.3,0.1-0.4c0-0.1,0-0.3,0.1-0.5
		c0-0.3,0.1-0.5,0-0.7c0-0.1,0-0.2,0.1-0.2c0,0,0.1-0.1,0.2-0.1l0.2,0c0.1,0,0.1,0,0.1,0c0.2,0,0.3-0.1,0.4-0.1l0.2,0
		c0,0,0.1,0,0.2,0c0.1,0,0.1,0,0.2,0c0.1-0.1,0.3-0.1,0.6-0.1c0.1,0,0.2,0,0.3-0.1c0,0,0,0,0-0.1c0,0,0-0.1,0-0.1c0,0,0,0,0-0.1
		c0,0,0-0.1,0-0.1c-0.1,0-0.1-0.1-0.1-0.1c0,0,0-0.1,0-0.1c0,0,0.1-0.1,0-0.1c0,0,0-0.1-0.1-0.1h0h-0.2c-0.1,0.1-0.3,0.1-0.5,0.1
		c-0.2,0-0.3,0-0.5,0.1c0,0-0.1,0-0.1,0s-0.1,0-0.1,0c-0.2,0-0.5,0-0.9,0.1c-0.1,0-0.2,0-0.3,0C32.8,12,32.7,12,32.5,12z M29.7,12.8
		c0,0-0.1,0-0.1,0c-0.1,0-0.3,0-0.5,0.1C28.9,13,28.8,13,28.7,13c-0.1,0-0.2,0-0.4,0c0,0-0.1,0-0.1-0.1c0,0,0-0.1,0.1-0.1
		c0.1,0,0.1,0,0.2-0.1c0.1,0,0.2,0,0.3-0.1c0.2,0,0.3,0,0.4-0.1c0.1,0,0.1,0,0.2,0c0.1,0,0.1,0,0.2,0C29.6,12.7,29.7,12.7,29.7,12.8
		C29.7,12.8,29.7,12.8,29.7,12.8z M32.3,21.3c0,0.1,0,0.1-0.1,0.1c0,0-0.1-0.1-0.1-0.2c0,0,0-0.1,0-0.1c0,0,0,0,0-0.1c0,0,0,0,0-0.1
		c0.1,0,0.1,0,0.1,0C32.3,21.1,32.3,21.2,32.3,21.3z M32.3,20.2v0.1c0,0,0,0,0,0c0,0,0,0,0,0.1l-0.1,0c0.1,0,0.1,0.1,0.1,0.1
		c0,0,0,0.1,0,0.1c0,0,0,0-0.1,0h0c0-0.1,0-0.2,0-0.2v0h0.1c-0.1-0.2-0.1-0.4-0.1-0.5v-0.1c0,0,0-0.1,0-0.4c0,0,0,0,0.1,0
		c0,0,0,0,0.1,0c0.1,0.1,0.1,0.2,0.1,0.2c0,0.1,0,0.1,0,0.2C32.3,20,32.3,20.1,32.3,20.2z"/>
	<path class="st0" d="M3.9,14.3C4,14.4,4,14.4,4.1,14.4l0.1,0c0.1-0.1,0.3-0.2,0.5-0.2C4.8,14.1,5,14,5.1,14h0.1
		c0.1,0,0.1,0,0.1,0.1c0,0,0,0,0,0.1c0,0,0,0,0,0c-0.2,0.3-0.3,0.5-0.3,0.6c0,0-0.1,0.1-0.1,0.2c0,0.1,0,0.1-0.1,0.1
		c0,0.1-0.1,0.3-0.2,0.5c-0.1,0.2-0.1,0.4-0.2,0.6c0,0.1-0.1,0.3-0.2,0.4c-0.1,0.2-0.1,0.4-0.1,0.5c-0.1,0.1-0.1,0.3-0.1,0.4v0.1
		c0,0,0,0.1,0,0.2c0,0.1,0,0.1-0.1,0.2C4.1,18,4,18.2,4,18.3c0,0.1,0,0.1,0,0.2c0,0.1,0,0.2,0,0.3c0,0.1,0,0.1,0.1,0.1
		c0,0,0.1,0,0.1,0h0c0.2-0.1,0.3-0.2,0.3-0.4c0-0.1,0.1-0.3,0.1-0.5c0.1-0.2,0.1-0.3,0.1-0.3c0.1-0.2,0.2-0.5,0.3-0.8
		c0.1-0.3,0.2-0.6,0.3-0.9c0-0.1,0-0.2,0.1-0.3c0.1-0.1,0.1-0.2,0.1-0.3c0.1-0.1,0.2-0.2,0.2-0.4C5.9,15.1,6,15.1,6,15l0.4-0.7
		c0.1-0.1,0.2-0.3,0.3-0.5c0,0,0.1-0.1,0.2-0.2c0.1,0,0.3-0.1,0.5-0.1c0.1,0,0.2,0,0.2,0c0.2-0.1,0.5-0.2,0.8-0.2
		c0.1,0,0.1,0,0.3-0.1c0.1,0,0.2-0.1,0.3-0.1H9c0.1,0,0.1,0,0.1,0C9.3,13,9.5,13,9.8,13c0.1,0,0.2,0,0.2,0s0.2,0,0.3,0
		c0,0,0.1,0,0.1,0c0,0,0,0.1,0,0.1c0,0.2,0,0.4,0,0.5c0,0.1,0,0.3,0.1,0.5c0,0,0,0.1,0,0.3c0,0.1,0,0.1,0,0.2c0,0.1,0,0.1,0,0.2
		c0.1,0.5,0.1,0.8,0.2,1c0.1,0.1,0.1,0.3,0.1,0.5c0,0.3,0,0.5,0.1,0.7c0,0.1,0,0.1,0,0.2c0,0.2,0,0.4,0.1,0.6c0,0.1,0,0.3,0,0.6
		c0,0.1,0,0.1,0,0.2c0.1,0.2,0.1,0.5,0.1,0.6c0,0.1,0.1,0.2,0.1,0.3c0,0,0,0,0.1,0.1c0,0,0,0.1,0.1,0.1c0.1,0,0.2,0,0.3,0
		c0,0,0,0,0,0c0,0,0,0,0,0c0.1-0.1,0.1-0.2,0.1-0.3v0c0-0.1,0-0.1,0-0.2c0-0.1,0-0.1,0-0.2c0.1-0.2,0.2-0.4,0.2-0.6
		c0-0.1,0-0.3-0.1-0.4c0,0,0-0.1,0-0.2c0-0.3,0-0.5-0.1-0.7c0-0.1,0-0.2,0-0.3c0,0,0-0.1,0-0.1c0-0.1-0.1-0.4-0.1-0.7l0-0.5
		c0,0,0-0.1,0-0.2c0-0.1,0-0.2-0.1-0.3c0,0,0-0.1,0-0.3c0-0.4,0-0.7,0-0.9c0-0.1,0-0.2-0.1-0.3c0-0.1,0-0.1,0-0.2v-0.2
		c0-0.1,0.1-0.1,0.2-0.2c0.2,0,0.3,0,0.3-0.1c0.1,0,0.2-0.1,0.2-0.2l0.1-0.2c0,0,0-0.1,0-0.2c-0.1-0.1-0.2-0.2-0.3-0.2
		c-0.2,0-0.4-0.1-0.4-0.1s0,0-0.1,0c0,0,0,0,0,0c0,0,0-0.1,0-0.2c0-0.1,0-0.2-0.1-0.3c0,0,0,0,0-0.1c0,0,0,0,0-0.1
		c0.1-0.1,0.1-0.3,0.1-0.6v-0.4V9.4c0-0.1,0-0.2,0-0.4c0-0.1,0-0.3,0.1-0.4V8.6l0-0.7c0-0.1,0-0.3,0-0.6c0-0.1,0-0.2,0-0.5
		c0-0.2,0-0.5,0.1-0.7c0-0.1,0-0.1,0-0.2c0-0.1,0-0.1,0-0.2c0-0.1,0-0.2-0.1-0.2l-0.2-0.3c0-0.1-0.1-0.1-0.2-0.1c-0.1,0-0.1,0-0.1,0
		C11.1,5.3,11,5.4,11,5.5c-0.3,0.5-0.7,0.9-1,1.4C9.9,6.9,9.9,7,9.8,7C9.8,7.1,9.7,7.1,9.7,7.2C9.5,7.4,9.5,7.5,9.4,7.6
		c0,0-0.1,0.2-0.3,0.3C9.1,8,9.1,8,9,8.1c0,0-0.1,0.1-0.1,0.2C8.8,8.3,8.7,8.5,8.6,8.7C8.5,8.7,8.4,8.8,8.4,8.9
		c0,0.1-0.1,0.2-0.2,0.2C8.1,9.3,8,9.4,7.8,9.7c-0.1,0.1-0.1,0.2-0.3,0.4c0,0,0,0,0,0.1c-0.2,0.5-0.4,0.9-0.6,1.1l-0.1,0.1
		c0,0.1-0.1,0.2-0.1,0.3c-0.1,0.1-0.1,0.1-0.1,0.2c-0.2,0.3-0.3,0.5-0.3,0.5c-0.1,0.2-0.2,0.3-0.5,0.4c-0.2,0.1-0.3,0.1-0.4,0.2
		c-0.2,0.1-0.4,0.2-0.5,0.2c-0.1,0-0.2,0.1-0.3,0.1c-0.1,0.1-0.2,0.1-0.2,0.1C4,13.5,3.8,13.7,3.7,14v0.1
		C3.7,14.2,3.8,14.3,3.9,14.3z M11.8,18.3C11.8,18.3,11.8,18.3,11.8,18.3c0,0.1,0,0.1,0,0.1c0,0,0,0.1,0.1,0.1h-0.1c0,0,0,0-0.1-0.1
		C11.8,18.4,11.8,18.4,11.8,18.3C11.7,18.4,11.7,18.4,11.8,18.3C11.8,18.3,11.8,18.3,11.8,18.3C11.8,18.3,11.8,18.3,11.8,18.3z
		 M11.7,16.9c0,0,0,0.1,0,0.2s0,0.2,0,0.2c0,0,0,0,0,0c0,0,0,0,0,0l0,0c0,0-0.1-0.1-0.1-0.1c0-0.1,0-0.1,0-0.2c0,0,0-0.1,0-0.1
		c0,0,0,0,0-0.1C11.6,16.9,11.6,16.9,11.7,16.9C11.7,16.9,11.7,16.9,11.7,16.9z M11.7,16C11.7,16,11.7,16,11.7,16c0,0.1,0,0.1,0,0.1
		c0,0.1,0,0.1,0,0.1c0,0,0,0-0.1-0.1c0,0,0,0,0,0c0,0,0,0,0,0c0,0,0,0,0-0.1C11.6,16,11.6,15.9,11.7,16C11.6,15.9,11.7,15.9,11.7,16
		z M11.4,14.5c0.1,0.1,0.1,0.2,0.1,0.4c0,0.1,0,0.2,0,0.4c0,0,0,0,0,0.1c0,0,0,0,0,0h0l0,0c0,0,0,0,0,0.1c0,0,0,0.1,0,0.1
		c0,0,0,0,0,0c0,0,0,0,0,0c0,0,0,0-0.1,0c0-0.1,0-0.1,0-0.2v0c-0.1-0.2-0.2-0.3-0.2-0.5L11.4,14.5C11.4,14.5,11.4,14.5,11.4,14.5z
		 M8,11.5c0.2-0.3,0.3-0.5,0.3-0.5c0.1-0.3,0.3-0.6,0.6-1.1c0.1-0.2,0.3-0.4,0.4-0.7c0.1-0.1,0.2-0.3,0.4-0.6
		c0.1-0.1,0.1-0.2,0.2-0.3c0.1-0.1,0.2-0.2,0.2-0.3c0-0.1,0.1-0.2,0.2-0.3h0c0,0,0,0,0,0c0,0,0,0,0,0c0,0.1,0,0.1,0,0.2
		c0,0.1,0,0.2,0,0.3c0,0.2,0,0.4-0.1,0.7c0,0.1,0,0.3,0,0.5v0.7c0,0,0,0.1,0,0.1c0,0,0,0.1,0,0.1c0,0.1-0.1,0.3-0.1,0.4
		c0,0.1,0,0.2,0,0.3c0,0,0,0.1,0,0.1c0,0.1,0,0.2-0.1,0.3c0,0.1,0,0.2,0,0.3c0,0.1-0.1,0.2-0.2,0.2c-0.4,0.1-0.6,0.1-0.8,0.1
		c0,0-0.1,0-0.2,0c-0.1,0-0.2,0-0.4,0.1c0,0-0.1,0-0.1,0c0,0-0.1,0-0.1,0c0,0-0.1,0-0.1,0c-0.1,0-0.1,0-0.2,0c0,0-0.1,0-0.1,0
		c0,0-0.1,0-0.1,0l-0.1,0c0,0-0.1,0-0.1,0.1c-0.1,0-0.1,0-0.2-0.1c0,0,0,0,0-0.1c0,0,0,0,0-0.1C7.7,11.9,7.8,11.8,8,11.5z M5.7,14.5
		c0.1,0,0.1-0.1,0.1-0.2c0-0.1,0-0.1,0.1-0.2c0,0,0.1-0.1,0.1-0.2c0-0.1,0.1-0.1,0.1-0.1c0,0,0,0,0,0c0,0,0,0,0,0c0.1,0,0.1,0,0.1,0
		c0,0,0,0.1,0,0.1l-0.1,0.2c-0.1,0.1-0.2,0.3-0.3,0.5L5.7,15c0,0,0,0,0,0s0,0,0,0c0,0,0,0,0,0c0,0,0,0,0,0l0-0.1
		C5.6,14.8,5.6,14.6,5.7,14.5z"/>
	<path class="st0" d="M26.7,18.6c0,0,0.1,0,0.1,0C26.8,18.5,26.8,18.5,26.7,18.6C26.8,18.5,26.8,18.5,26.7,18.6
		C26.7,18.5,26.7,18.5,26.7,18.6z"/>
	<path class="st0" d="M24,12.3l-0.1,0.3c-0.1,0.1-0.1,0.2-0.2,0.4c0,0.1-0.1,0.2-0.2,0.4c-0.1,0.1-0.2,0.4-0.3,0.8
		c-0.2,0.4-0.3,0.9-0.4,1.5c-0.1,0.5-0.1,1-0.1,1.6v0.5c0,0,0,0.1,0,0.2c0,0.1,0,0.2,0,0.3c0,0.1,0.1,0.2,0.2,0.3
		c0,0.1,0.1,0.1,0.1,0.2c0.1,0.2,0.3,0.3,0.6,0.5c0.1,0,0.1,0.1,0.2,0.1c0,0,0.1,0.1,0.1,0.1l0.2,0.1c0.3,0.1,0.6,0.1,1.1,0.1
		c0.2,0,0.4-0.1,0.6-0.2c0.1,0,0.1-0.1,0.2-0.1c0.1-0.1,0.1-0.1,0.2-0.1c0.1-0.1,0.2-0.2,0.2-0.3s0.1-0.2,0.1-0.3l-0.2,0h0
		c-0.2,0.1-0.3,0.2-0.5,0.2c-0.1,0-0.2,0-0.3,0.1c-0.2,0-0.3,0.1-0.4,0.1c-0.1,0-0.2,0-0.3,0c0,0,0,0,0-0.1c0,0,0,0,0,0
		c0.1-0.1,0.2-0.1,0.2-0.1c0.3,0,0.5-0.1,0.6-0.2c0,0,0,0,0,0c0,0,0,0,0,0c0,0,0,0,0-0.1c0,0,0,0-0.1,0l-0.3,0c-0.1,0-0.2,0-0.3,0
		c-0.2,0-0.3,0-0.5-0.1c-0.2,0-0.4-0.1-0.5-0.2c-0.1,0-0.2-0.1-0.3-0.1c-0.1-0.1-0.1-0.2-0.2-0.3c-0.1-0.2-0.2-0.5-0.2-0.7
		c0-0.1,0-0.2,0-0.3c0-0.2,0-0.3,0.1-0.5c0-0.1,0-0.2,0-0.3c0,0,0-0.1,0-0.2c0-0.1,0-0.2,0.1-0.3c0,0,0-0.1,0-0.1
		c0-0.3,0.1-0.6,0.2-1c0,0,0-0.1,0.1-0.2c0-0.2,0-0.4,0.1-0.6c0.1-0.2,0.2-0.3,0.2-0.5c0-0.1,0-0.1,0.1-0.2c0.1-0.1,0.1-0.1,0.1-0.2
		l0,0c0,0,0,0,0,0s0,0,0,0c0,0.1,0,0.2-0.1,0.4c0,0.2-0.1,0.3-0.1,0.5c0,0.1,0,0.1,0,0.2c0,0.1,0,0.1,0,0.2c-0.1,0-0.1,0.1-0.1,0.2
		c0,0.1,0,0.1,0.1,0.1c0,0,0,0,0,0c0,0,0,0,0,0l0-0.3h0.1c0-0.1,0.1-0.3,0.2-0.4c0-0.1,0-0.3,0.1-0.4c0.1-0.1,0.1-0.3,0.3-0.5
		c0,0,0.1-0.1,0.1-0.2c0-0.1,0.1-0.2,0.1-0.2c0-0.1,0.1-0.2,0.1-0.4c0.1-0.2,0.2-0.4,0.2-0.5c0.1-0.1,0.2-0.3,0.2-0.4
		c0.1-0.2,0.1-0.4,0.2-0.6c0.1-0.2,0.2-0.4,0.2-0.5C26.5,9.5,26.7,9.2,27,9c0.1-0.1,0.2-0.2,0.2-0.2c0.1-0.1,0.2-0.2,0.3-0.4
		c0.1-0.1,0.2-0.2,0.3-0.3C27.8,8,27.9,7.9,28,7.7c0.1-0.1,0.2-0.3,0.4-0.5c0.3-0.4,0.7-0.7,1.1-1c0,0,0.1-0.1,0.2-0.1
		c0.1,0,0.1-0.1,0.2-0.1l0.4-0.2c0,0,0.1,0,0.2,0c0.1,0,0.1,0,0.2,0c0.1,0,0.2,0,0.2,0h0.1c0.2,0,0.3,0,0.5,0.1
		c0.1,0.1,0.2,0.1,0.2,0.1l0.1,0.1c0.1,0.1,0.1,0.2,0.2,0.4C32,6.8,32,6.9,32,7c0,0.1,0,0.2,0,0.3c0,0.1,0,0.2,0,0.2
		c0,0.1,0,0.3,0,0.5c0,0.1,0,0.3,0,0.6c0,0.3-0.1,0.5-0.1,0.7c0,0.1-0.1,0.2-0.1,0.3c0,0,0,0.1,0,0.3c0,0.1,0.1,0.2,0.3,0.2
		c0,0,0.1,0,0.1,0c0.1-0.1,0.2-0.2,0.3-0.3c0.1-0.1,0.1-0.2,0.2-0.4c0.1-0.2,0.1-0.3,0.2-0.4C33,8.6,33,8.4,33,8.2
		c0-0.1,0-0.1,0-0.3c0-0.1,0-0.2,0-0.3c0-0.3,0-0.5-0.1-0.7c-0.1-0.2-0.1-0.3-0.1-0.5c0-0.1,0-0.2-0.1-0.4l-0.3-0.4l-0.2-0.1
		c-0.4-0.3-0.7-0.4-0.8-0.5c-0.1,0-0.1,0-0.2,0s-0.2,0-0.3,0c-0.1,0-0.2,0-0.2,0c-0.6,0.2-1.1,0.4-1.4,0.5c-0.1,0-0.1,0.1-0.2,0.1
		c-0.1,0-0.2,0.1-0.3,0.1c-0.1,0-0.1,0-0.2,0.1c-0.5,0.4-0.7,0.6-0.8,0.7c-0.1,0.1-0.2,0.2-0.3,0.3C27.3,6.8,27.2,7,27,7.2l-0.3,0.3
		c-0.1,0.2-0.3,0.4-0.6,0.7L26,8.3c-0.2,0.3-0.4,0.5-0.4,0.7c0,0.1-0.1,0.2-0.2,0.4c-0.1,0.2-0.2,0.3-0.2,0.4
		c-0.1,0.1-0.1,0.3-0.2,0.4c-0.1,0.2-0.2,0.4-0.2,0.5c0,0.1-0.1,0.2-0.3,0.4c-0.1,0.3-0.2,0.7-0.4,0.9C24.1,12.2,24,12.3,24,12.3z
		 M24.7,18.9c0,0,0.1-0.1,0.1-0.1c0,0,0.1,0,0.1,0c0.1,0.1,0.1,0.1,0.1,0.1C24.9,19,24.9,19,24.8,19c-0.1,0-0.1,0-0.1,0
		C24.6,19,24.6,18.9,24.7,18.9z M32.4,9.6L32.4,9.6L32.4,9.6c0,0,0-0.1,0-0.3c0-0.1,0-0.2,0.1-0.3c0-0.1,0.1-0.2,0.1-0.4
		c0,0,0,0,0.1,0c0,0,0.1,0,0.1,0c0,0,0,0.1,0,0.2l0,0.3c-0.1,0.1-0.1,0.1-0.1,0.2c0,0.1-0.1,0.2-0.1,0.2C32.5,9.6,32.5,9.6,32.4,9.6
		C32.5,9.6,32.5,9.6,32.4,9.6L32.4,9.6c0,0,0,0.1,0,0.2c0,0,0,0-0.1,0.1c0,0,0,0,0,0l0,0C32.3,9.7,32.4,9.6,32.4,9.6z M24.9,12.2
		L24.9,12.2C24.9,12.1,24.9,12.1,24.9,12.2c0-0.1,0-0.1,0-0.1C24.9,12.1,24.9,12.1,24.9,12.2L24.9,12.2c0.1,0.1,0,0.2,0,0.2
		C24.8,12.3,24.8,12.3,24.9,12.2z"/>
	<path class="st0" d="M6.5,26.4c0-0.1,0-0.1-0.1-0.1c-0.1,0-0.1,0.1-0.1,0.1C6.4,26.5,6.4,26.5,6.5,26.4C6.4,26.5,6.5,26.5,6.5,26.4
		C6.5,26.5,6.5,26.5,6.5,26.4z"/>
	<path class="st0" d="M6.2,25.1C6.2,25.1,6.2,25.1,6.2,25.1C6.2,25.1,6.2,25.1,6.2,25.1l0-0.2c-0.1,0-0.1,0.1-0.1,0.1
		C6.1,25.1,6.1,25.1,6.2,25.1z"/>
	<path class="st0" d="M6.2,25.9c0-0.1,0-0.2,0-0.2c0-0.1,0-0.2-0.1-0.3c0,0,0-0.1,0-0.1c0,0,0-0.1-0.1-0.1c0,0,0,0,0,0.1
		c0,0,0,0,0,0.1c0,0.1,0,0.2,0,0.3v0.1c0,0.1,0,0.1,0,0.2c0,0,0.1,0.1,0.1,0.1C6.2,26,6.3,26,6.2,25.9z"/>
	<path class="st0" d="M6,23.5c0,0,0-0.1,0-0.2c0-0.1,0-0.1,0-0.2c0,0,0-0.1-0.1-0.1H5.9c-0.1,0.1-0.1,0.2-0.2,0.3
		c-0.1,0.1-0.1,0.3-0.2,0.4c0,0-0.1,0.1-0.1,0.3S5.2,24.4,5,24.6c0,0-0.1,0-0.1,0c0,0-0.1,0-0.1-0.1c-0.1-0.3-0.3-0.7-0.6-1.1
		c-0.1-0.1-0.1-0.1-0.2-0.2c-0.1-0.1-0.2-0.2-0.2-0.2c-0.1-0.2-0.3-0.3-0.4-0.3c0,0,0,0,0-0.1c0,0,0,0,0-0.1c-0.1-0.1-0.1-0.1-0.2,0
		c-0.2,0.2-0.4,0.3-0.5,0.5c-0.1,0.1-0.2,0.3-0.4,0.5c-0.2,0.3-0.3,0.5-0.4,0.8c0,0.1-0.1,0.2-0.2,0.4c-0.1,0.1-0.1,0.2-0.2,0.3
		c-0.1,0.1-0.1,0.2-0.2,0.3L1,26.1c0,0.1-0.1,0.1-0.1,0.2c-0.1,0.1-0.1,0.2-0.2,0.3c0,0.1-0.1,0.2-0.1,0.3c0,0.1-0.1,0.1-0.1,0.3
		s-0.1,0.2-0.2,0.3c0,0-0.1,0.1-0.1,0.1c0,0.1,0,0.3-0.1,0.4C0.1,28.2,0,28.3,0,28.4c0,0.1,0,0.1,0,0.2v0.1c0.1,0.3,0.1,0.5,0.1,0.6
		c0,0.1,0,0.1,0.1,0.2c0,0,0,0.1,0.1,0.1c0,0,0.1,0.1,0.1,0.1c0.1,0.1,0.1,0.2,0.2,0.3c0.1,0,0.2,0.1,0.4,0.2l0.3,0
		c0.2,0,0.5-0.1,0.8-0.2c0.1,0,0.2-0.1,0.3-0.2c0.1-0.1,0.3-0.2,0.3-0.2c0.2-0.2,0.3-0.3,0.3-0.3c0,0,0.1-0.1,0.1-0.1
		c0.1,0,0.1-0.1,0.1-0.1c0.1-0.2,0.3-0.4,0.3-0.4c0.1-0.1,0.1-0.1,0.2-0.3c0.1-0.1,0.1-0.2,0.2-0.2c0.1-0.2,0.3-0.3,0.3-0.6
		c0.1-0.3,0.2-0.5,0.3-0.7c0,0,0,0,0-0.1c0,0,0,0,0-0.1c0-0.2,0.1-0.3,0.2-0.5c0.1-0.2,0.2-0.4,0.2-0.5c0.1-0.2,0.2-0.5,0.2-0.7
		c0-0.2,0.1-0.4,0.2-0.6c0.1-0.1,0.1-0.3,0.2-0.6C6,23.7,6,23.6,6,23.5z M4.8,25.2c0,0.1-0.1,0.2-0.2,0.4c-0.1,0.1-0.1,0.3-0.2,0.4
		c0,0.1-0.1,0.2-0.2,0.3c-0.1,0.2-0.2,0.4-0.3,0.6c0,0.1-0.1,0.1-0.1,0.2c0,0.1-0.1,0.1-0.1,0.2c0,0-0.1,0.1-0.2,0.4
		c-0.1,0.1-0.2,0.3-0.3,0.4c0,0-0.1,0.1-0.3,0.3c0,0-0.1,0.1-0.3,0.3c-0.1,0.1-0.3,0.3-0.5,0.3c0,0-0.1,0.1-0.2,0.1
		c-0.1,0.1-0.3,0.2-0.5,0.2l-0.1,0c-0.1,0-0.1,0-0.2,0c0,0-0.1,0-0.1-0.1c0-0.1,0-0.2,0-0.2c0-0.1,0-0.2,0.1-0.4
		c0-0.1,0.1-0.2,0.2-0.4c0.1-0.2,0.2-0.4,0.2-0.6c0,0,0-0.1,0-0.1c0,0,0-0.1,0.1-0.1c0.1-0.1,0.1-0.1,0.1-0.2c0-0.1,0-0.2,0.1-0.3
		c0-0.1,0.1-0.2,0.1-0.3C2,26.6,2,26.6,2,26.5c0.1-0.1,0.1-0.1,0.2-0.2c0-0.1,0.1-0.1,0.1-0.2c0,0,0-0.1,0-0.1c0-0.1,0-0.1,0-0.1
		c0.1-0.1,0.2-0.3,0.3-0.5c0.1-0.2,0.1-0.3,0.2-0.3C2.9,24.9,3,24.6,3,24.5c0-0.1,0-0.1,0.1-0.2c0.1-0.1,0.1-0.2,0.1-0.2
		s0-0.1,0-0.1c0,0,0.1-0.1,0.1-0.2c0-0.1,0.1-0.2,0.2-0.2c0.1,0,0.1,0,0.1,0c0.1,0.1,0.1,0.1,0.1,0.1c0,0,0.1,0.1,0.2,0.3
		c0.1,0.2,0.2,0.3,0.2,0.5c0.1,0.3,0.3,0.5,0.6,0.6C4.8,25.1,4.8,25.1,4.8,25.2z"/>
	<polygon class="st0" points="6.2,26 6.2,26 6.2,26 	"/>
	<path class="st0" d="M6.6,33.8c-0.1-0.1-0.1-0.2-0.1-0.4c0-0.1,0-0.3,0-0.3c0,0,0-0.1,0-0.2c0-0.1,0-0.3-0.1-0.4
		c0-0.1-0.1-0.3-0.1-0.4v-0.4c0-0.1,0-0.2,0-0.3c0-0.1,0-0.3,0-0.5c0-0.3,0-0.5,0-0.7c0-0.1,0-0.1-0.1-0.2c0-0.1,0-0.1,0-0.2
		c0-0.1,0-0.1,0.1-0.2l0-0.1c0-0.1-0.1-0.2-0.1-0.3c0,0,0-0.1,0-0.2c0-0.1,0-0.1,0-0.2l0-0.2c0-0.1,0-0.2,0-0.3c0-0.1,0-0.2,0-0.3v0
		v0c0,0,0-0.1-0.1-0.1l0,0l0-0.1l0.1-0.1l0-0.1h0c0,0,0,0,0-0.1c0,0,0,0,0-0.1c0,0,0-0.1,0-0.2l0-0.3l0-0.3c0-0.1,0-0.2,0-0.3
		c0,0,0-0.1,0-0.3c0,0,0,0-0.1,0c0,0,0,0,0,0c0,0.1,0,0.2,0,0.2c0,0.1,0,0.2-0.1,0.3c0,0,0,0.1,0,0.2c0,0.1,0,0.1,0,0.2
		c0,0.1,0,0.2-0.1,0.3c0,0-0.1,0.1,0,0.1c0,0.1,0,0.1,0,0.1l0,0c-0.1,0.1-0.1,0.2-0.1,0.3v2c0,0.2,0,0.3,0.1,0.5c0,0.1,0,0.1,0,0.3
		c-0.1,0.2-0.1,0.3-0.1,0.5c0,0.2,0,0.4,0,0.7C5.9,32,6,32.4,5.9,32.8c0,0.1,0,0.3,0,0.4c0,0.2,0,0.4,0.1,0.5c0,0,0,0.1,0,0.2
		c0,0.2,0,0.3,0,0.4c0,0.2,0.1,0.4,0.3,0.5c0,0,0.1,0,0.1,0c0.1,0,0.1-0.1,0.1-0.1c0-0.1,0-0.1,0-0.3c0-0.1,0-0.3,0-0.4
		C6.6,34,6.6,33.9,6.6,33.8z M6,29.4L6,29.4L6,29.4C6,29.3,6,29.3,6,29.4z"/>
	<path class="st0" d="M6.3,24.7C6.3,24.7,6.2,24.7,6.3,24.7l-0.1,0.2C6.3,24.9,6.3,24.8,6.3,24.7C6.3,24.7,6.3,24.7,6.3,24.7z"/>
	<path class="st0" d="M6.4,26.7C6.4,26.7,6.4,26.7,6.4,26.7c-0.1-0.1-0.1,0-0.1,0c0,0.1,0,0.1,0,0.2c0,0.1,0,0.1,0,0.2
		c0,0,0,0.1,0.1,0.1l0,0.1c0,0,0,0,0,0c0,0,0,0,0,0c0-0.1,0-0.1,0-0.2C6.4,26.9,6.4,26.8,6.4,26.7z"/>
	<path class="st0" d="M7.9,22.2c0-0.1,0-0.2,0.1-0.3C8,21.8,8,21.6,8,21.3c0,0,0-0.1,0-0.1c0-0.1,0-0.1,0-0.1
		c0.1-0.2,0.1-0.4,0.1-0.6c0-0.1,0-0.2,0.1-0.3c0.1-0.2,0.2-0.5,0.2-0.8c0-0.1,0-0.3,0-0.6L8.7,18c0-0.1,0-0.2,0.1-0.3
		c0-0.2,0.1-0.3,0.1-0.4c0-0.1,0-0.1,0-0.2c0-0.1-0.1-0.3-0.2-0.4c-0.1-0.1-0.1-0.1-0.2-0.1c-0.1,0-0.1,0-0.1,0.1
		c0,0-0.1,0.1-0.1,0.1c0,0-0.1,0.1-0.1,0.1c0,0.1-0.1,0.1-0.1,0.1s-0.1,0-0.1,0c-0.1,0-0.1,0-0.2,0c-0.1,0.3-0.3,0.6-0.4,0.9
		c0,0.1,0,0.2-0.1,0.3s-0.1,0.3-0.1,0.3c0,0,0,0.1,0,0.1c0,0.1,0,0.1,0,0.1s0,0.1,0,0.1c0,0.1,0,0.1,0,0.1c0,0.1-0.1,0.2-0.1,0.4
		c0,0.2-0.1,0.3-0.1,0.4c0,0.2-0.1,0.4-0.1,0.6s-0.1,0.3-0.1,0.4c-0.1,0.2-0.1,0.6-0.3,1.1c0,0,0,0.1,0,0.1c0,0,0,0.1,0,0.2
		c-0.2,0.4-0.3,0.6-0.3,0.7c0,0.1,0,0.1,0.1,0.2c0.1,0,0.1,0.1,0.1,0.1v0c0,0.1,0,0.2,0,0.4c0,0.2,0,0.3-0.1,0.5c0,0,0,0.1,0,0.2
		c0,0.1,0,0.1,0.1,0.1c0,0,0,0,0,0c0.1-0.1,0.1-0.1,0.1-0.2c0-0.1,0-0.2,0-0.3c0-0.1,0-0.3,0.1-0.4c0-0.1,0.1-0.2,0.1-0.3
		c0-0.1,0.1-0.2,0.1-0.3c0-0.1,0-0.2,0.1-0.3c0-0.1,0.1-0.2,0.1-0.2c0,0,0,0,0.1,0s0,0,0,0.1c0,0.2,0,0.3,0,0.4c0,0.1,0,0.2,0,0.3
		c0,0,0,0.1,0,0.1c0,0,0,0.1,0,0.2c0,0.1,0,0.1,0,0.1c0,0.1-0.1,0.2-0.1,0.4c0,0.2-0.1,0.3-0.1,0.4c0,0.1,0,0.1,0,0.1
		c0,0.1,0,0.2,0,0.3c0,0,0,0.1,0,0.1c0,0,0,0.1,0,0.1v1v1.7c0,0,0,0.1,0,0.2c0,0.1,0,0.1,0,0.2c-0.1,0.1-0.1,0.2,0,0.3
		c0,0.1,0,0.2,0,0.3c0,0,0,0.1,0,0.2c0,0.1,0,0.1,0,0.2c0,0,0,0.1-0.1,0.2c0,0.1,0,0.1,0,0.2v0.3l0,1c0,0.2,0,0.4,0,0.5
		c0,0.3,0,0.8,0,1.5c0,0.1,0,0.2,0.1,0.3c0,0.1,0,0.2,0,0.3c0,0.1,0,0.1,0,0.2c0,0.1,0.1,0.2,0.1,0.2l0,0.2l0,0.1v0.5
		c0,0.1,0.1,0.3,0.2,0.4l0.1,0c0.1,0,0.2,0,0.3-0.1c0.1-0.1,0.2-0.2,0.2-0.4c0-0.2,0-0.5,0-1c-0.1-0.1-0.1-0.3-0.1-0.4
		c0-0.2,0-0.3,0-0.3c0,0,0-0.1,0-0.2s0-0.1,0-0.2c-0.1-0.1-0.1-0.3-0.1-0.4c0-0.2,0-0.3,0-0.3c0-0.1,0-0.1,0-0.2c0-0.1,0-0.2,0-0.3
		c0-0.1,0-0.1,0-0.2c0,0,0-0.1,0-0.2l0-0.1c0-0.1,0-0.2,0-0.3c0-0.1-0.1-0.2-0.1-0.2c0-0.1,0-0.1,0-0.3c0-0.1,0-0.2-0.1-0.3
		c0,0,0,0,0-0.1c0,0,0,0,0-0.1c0-0.1,0-0.1,0-0.2v-0.2c0-0.2,0-0.5,0-1v-1c0,0,0-0.1,0-0.1c0,0,0-0.1,0-0.2c0-0.1,0-0.1,0-0.1
		c0-0.1,0-0.2,0-0.3c0.1-0.1,0.1-0.2,0.1-0.3v-0.5l0-0.6c0.1-0.1,0.1-0.2,0.1-0.4c0-0.2,0-0.3,0.1-0.4c0-0.1,0-0.1,0-0.2
		c0-0.1,0-0.1,0-0.3c0-0.1,0-0.2,0.1-0.3s0.1-0.2,0.1-0.3c0-0.1,0-0.2,0.1-0.3C7.8,22.8,7.9,22.5,7.9,22.2z M7.1,22L7.1,22
		C7,22,7,22,7.1,22L7,21.6c0,0,0,0,0.1-0.1l0,0.2L7.1,22z M7.1,21.5c0,0,0-0.1,0-0.2c0-0.1,0-0.1,0-0.2l0,0c0,0,0,0,0,0.1
		C7.2,21.4,7.2,21.5,7.1,21.5z M7.4,19.9L7.4,19.9C7.4,19.9,7.3,19.9,7.4,19.9c-0.1-0.1-0.1-0.1-0.1-0.2c0-0.1,0-0.1,0.1-0.2
		C7.4,19.7,7.4,19.8,7.4,19.9z M7.5,19.5C7.5,19.5,7.5,19.6,7.5,19.5c-0.1-0.1,0-0.3,0-0.4l0,0c0,0,0,0,0,0.1L7.5,19.5z"/>
	<path class="st0" d="M6.3,25.7c0,0.2,0,0.4,0.1,0.6c0,0,0,0,0.1-0.1c0,0,0,0,0,0l0-0.3v-0.1c0-0.2,0-0.3-0.1-0.4c0,0,0,0-0.1,0
		c0,0,0,0,0,0.1c0,0,0,0.1,0,0.1S6.3,25.7,6.3,25.7z"/>
	<path class="st0" d="M6.3,27.5C6.3,27.5,6.3,27.5,6.3,27.5c0,0.1,0,0.1,0,0.1c0,0,0,0,0,0.1c0,0.1,0.1,0.1,0.1,0.1c0,0,0,0,0,0
		c0,0,0,0,0-0.1l0-0.2C6.4,27.5,6.4,27.5,6.3,27.5z"/>
	<path class="st0" d="M6.3,28.2C6.3,28.2,6.3,28.3,6.3,28.2c0,0.1,0,0.1,0.1,0.1C6.3,28.3,6.3,28.2,6.3,28.2
		c0.1-0.1,0.1-0.1,0.1-0.1c0,0,0,0,0,0c0,0,0,0,0,0L6.3,28.2C6.2,28.1,6.3,28.2,6.3,28.2z"/>
	<path class="st0" d="M13.4,28.8l0.2-0.1c0.1,0,0.1-0.1,0.2-0.2l0.2-0.3c0-0.1,0-0.1,0-0.1c0,0,0,0,0.1-0.1l0.2-0.2
		c0,0,0.1-0.1,0.1-0.2c0,0,0,0,0,0c0,0,0,0,0,0c0,0-0.1,0-0.1,0c0,0-0.1,0-0.1,0l-0.1,0l0,0l0-0.1c0,0,0,0,0.1,0c0,0,0,0,0.1,0
		l0.1-0.1h0h0c-0.1,0-0.1,0-0.2,0c0,0,0,0-0.1,0c0,0-0.1,0-0.1,0c0,0-0.1,0-0.1,0s-0.1,0-0.1,0.1l-0.2,0.1c0,0-0.1,0.1-0.2,0.1
		L13.1,28c0,0-0.1,0-0.1,0.1c0,0-0.1,0.1-0.1,0.1l-0.1,0.1c0,0-0.1,0.1-0.2,0.2c-0.1,0-0.1,0.1-0.2,0.1c0,0-0.1,0.1-0.1,0.1
		c0,0-0.1,0.1-0.3,0.2c0,0-0.1,0.1-0.2,0.1c-0.1,0-0.2,0.1-0.2,0.1c-0.1,0.1-0.3,0.2-0.4,0.2l-0.8,0.3c-0.1,0-0.1,0.1-0.2,0.1
		c-0.1,0-0.2,0.1-0.3,0.1c-0.1,0-0.2,0-0.3,0c-0.1,0-0.1,0-0.2,0s-0.1,0-0.1,0c0,0-0.1,0-0.2,0c-0.2,0-0.4,0-0.7-0.1l-0.1-0.2
		c0-0.1,0-0.1,0-0.1c0-0.1,0.1-0.2,0.2-0.4c0.1-0.2,0.2-0.4,0.3-0.5c0,0,0,0,0-0.1c0,0,0-0.1,0-0.1c0-0.1,0.1-0.3,0.2-0.4
		c0.1-0.2,0.2-0.3,0.2-0.4c0.1-0.1,0.1-0.2,0.2-0.2c0.1,0,0.1,0,0.2-0.1c0.1,0,0.1,0,0.2-0.1c0.1,0,0.2,0,0.4-0.1
		c0.1-0.1,0.3-0.2,0.5-0.3c0.4-0.2,0.6-0.4,0.9-0.6c0,0,0,0,0.1-0.1c0.1-0.2,0.2-0.3,0.2-0.3l0.2-0.2c0.1-0.2,0.4-0.6,0.6-1.1
		c0.1-0.3,0.3-0.7,0.4-1.2v-0.1l0-0.2c-0.1-0.1-0.2-0.2-0.2-0.3c-0.1-0.2-0.3-0.2-0.5-0.2c-0.3,0-0.5,0.1-0.7,0.2
		c-0.3,0.1-0.5,0.3-0.6,0.5c-0.1,0-0.1,0.1-0.2,0.2c-0.1,0.1-0.2,0.2-0.2,0.2c-0.1,0.1-0.2,0.2-0.3,0.2c-0.1,0.1-0.1,0.1-0.1,0.3
		L10,24.2c0,0,0,0.1-0.1,0.1c0,0-0.1,0.1-0.1,0.1c0,0.2-0.1,0.3-0.3,0.4L9.5,25c-0.1,0.1-0.1,0.2-0.2,0.3c0,0.1-0.1,0.2-0.1,0.2
		c0,0.1-0.1,0.1-0.1,0.2c0,0.1,0,0.1-0.1,0.2C9,26.1,9,26.2,8.9,26.2c-0.1,0.1-0.2,0.1-0.3,0.1c0,0,0,0.1,0.1,0.2l0,0.2
		c0,0,0,0,0,0.1c0,0-0.1,0-0.1,0c-0.1,0-0.1-0.1-0.2-0.2c-0.1-0.1-0.1-0.1-0.2-0.1c0,0.1,0,0.3,0.1,0.3c0.1,0.1,0.1,0.2,0.1,0.2
		c0,0.2,0,0.3-0.1,0.4c0,0.1,0,0.1-0.1,0.2c0,0.1-0.1,0.2-0.1,0.3c-0.1,0.2-0.1,0.3-0.1,0.5c0,0.1,0,0.1-0.1,0.2
		c-0.1,0.1-0.1,0.2-0.1,0.3c0,0.2,0,0.4,0,0.8c0,0.1,0,0.3,0,0.5c0,0.1,0,0.1,0,0.1c0,0.1,0.1,0.2,0.1,0.3c0,0.1,0.1,0.2,0.1,0.3
		c0,0,0.1,0.1,0.2,0.1c0.1,0,0.2,0.1,0.2,0.1c0,0,0.1,0,0.1,0c0,0,0.1,0,0.1,0h0C8.8,31,8.9,31,8.9,31l0.4,0h0l0.6-0.1l0.3-0.1
		c0.1,0,0.2-0.1,0.3-0.1l0.2-0.1c0.1-0.1,0.2-0.1,0.2-0.1c0.1-0.1,0.2-0.1,0.3-0.2c0.1-0.1,0.1-0.1,0.2-0.1c0.2-0.2,0.4-0.3,0.4-0.3
		c0.1-0.1,0.1-0.1,0.1-0.1l0.1,0l0.3-0.1c0,0,0.1-0.1,0.2-0.1l0.3-0.2l0.2-0.2C13.1,28.9,13.2,28.9,13.4,28.8z M13.5,28.4
		c0,0,0.1,0,0.1-0.1c0,0,0.1,0,0.1-0.1c0,0,0,0,0.1,0c0,0,0,0,0.1,0c0,0.1-0.1,0.2-0.3,0.3c0,0-0.1,0.1-0.2,0.1
		c-0.1,0-0.1,0.1-0.2,0.1c0,0,0,0-0.1,0c0,0,0,0-0.1,0C13.3,28.6,13.4,28.4,13.5,28.4z M10.1,25.8l0.2-0.2c0,0,0.1-0.1,0.1-0.1
		c0.1-0.1,0.1-0.2,0.1-0.3l0.2-0.3c0.4-0.5,0.7-0.9,0.9-1c0-0.1,0.1-0.1,0.1-0.2c0-0.1,0.1-0.1,0.1-0.1l0.2-0.1c0,0,0.1,0,0.1,0
		c0,0,0,0.1,0,0.1l0,0.1c-0.1,0.3-0.2,0.6-0.3,0.8c-0.1,0.2-0.3,0.5-0.5,0.8c-0.1,0.2-0.4,0.4-0.8,0.8c0,0-0.1,0-0.1,0.1
		c-0.1,0-0.1,0-0.2,0c-0.1,0-0.1,0-0.1-0.1C10,25.9,10,25.8,10.1,25.8z M9.6,26.7C9.7,26.7,9.7,26.7,9.6,26.7c0.1,0,0.2-0.1,0.2-0.1
		c0.1,0,0.1,0,0.1,0c0,0,0.1,0,0,0c0,0,0,0.1-0.1,0.1l-0.2,0.1l-0.1,0C9.7,26.9,9.6,26.9,9.6,26.7C9.6,26.8,9.6,26.8,9.6,26.7z
		 M8.8,30.7l-0.1,0c-0.1,0-0.1,0-0.1,0c-0.1,0-0.1-0.1-0.2-0.1c-0.1,0-0.1,0-0.2-0.1c0,0,0,0-0.1-0.1s0-0.1,0-0.1c0.1,0,0.1,0,0.1,0
		c0.1,0,0.2,0.1,0.3,0.1C8.7,30.6,8.8,30.6,8.8,30.7c0-0.1,0.1-0.1,0.1,0C8.9,30.7,8.9,30.7,8.8,30.7z M9.3,30.7H9.2l0,0
		c0,0,0,0,0,0C9.2,30.6,9.2,30.6,9.3,30.7l0.2-0.1C9.5,30.7,9.4,30.7,9.3,30.7z M9.8,30.6C9.8,30.6,9.8,30.6,9.8,30.6l-0.2,0
		c0-0.1,0-0.1,0.1-0.1C9.8,30.6,9.8,30.6,9.8,30.6C9.8,30.6,9.8,30.6,9.8,30.6z M10,30.6L10,30.6C10,30.5,10,30.5,10,30.6
		C10.1,30.5,10.1,30.5,10,30.6C10.1,30.5,10.1,30.5,10,30.6C10.1,30.6,10.1,30.6,10,30.6z M11.7,29.6c0,0-0.1,0.1-0.2,0.1l0-0.1
		c0,0,0,0,0.1-0.1c0,0,0,0,0-0.1L11.7,29.6C11.7,29.5,11.7,29.5,11.7,29.6C11.7,29.5,11.7,29.5,11.7,29.6z M12.1,29.4
		C12.1,29.4,12.1,29.4,12.1,29.4C12,29.4,12,29.4,12,29.4c0,0,0,0,0,0c0,0,0,0,0-0.1c0,0,0-0.1,0-0.1l0.1,0c0,0,0,0,0.1,0
		c0,0,0,0,0.1,0C12.2,29.3,12.2,29.3,12.1,29.4C12.2,29.4,12.2,29.4,12.1,29.4z M12.8,29c0,0-0.1,0.1-0.2,0.1
		c-0.1,0-0.1,0.1-0.2,0.1c0,0,0,0,0,0c0,0,0,0,0,0l0-0.1c0,0,0-0.1,0-0.1C12.5,28.9,12.6,28.9,12.8,29L12.8,29
		C12.8,28.9,12.8,28.9,12.8,29C12.8,28.9,12.8,29,12.8,29z M13,28.8C13,28.9,13,28.9,13,28.8C13,28.8,13,28.8,13,28.8
		c0-0.1,0-0.1,0-0.1c0,0,0,0,0.1,0C13.1,28.8,13.1,28.8,13,28.8z"/>
	<path class="st0" d="M20.9,23.5c-0.1,0-0.2,0-0.3,0.1c-0.3,0.3-0.5,0.5-0.5,0.8L20,24.8c-0.2,0.5-0.4,0.9-0.5,1.3h0.1
		c0.1,0,0.1,0,0.1,0.1c0,0,0.1,0.1,0.1,0.1v0c0,0.1,0,0.1-0.1,0.2c-0.1,0-0.2,0-0.3,0.1c0,0,0,0,0,0c-0.1,0.2-0.1,0.5-0.1,0.8
		c0,0.2-0.1,0.4-0.2,0.6c-0.2,0.5-0.3,1.1-0.2,1.6l0,0.5c0,0.1,0.1,0.2,0.1,0.2c0.1,0.1,0.2,0.2,0.3,0.3c0,0,0.1,0.1,0.1,0.1
		c0.1,0,0.1,0,0.2-0.1c0.1,0,0.1-0.1,0.2-0.2c0.1-0.2,0.2-0.4,0.2-0.6v-0.7c0.1-0.1,0.1-0.2,0.1-0.4c0-0.1,0-0.3,0.1-0.4
		c0.1-0.4,0.2-0.7,0.2-0.9c0.1-0.1,0.1-0.3,0.1-0.4c0-0.1,0.1-0.2,0.1-0.3l0.1-0.4c0-0.1,0-0.2,0.1-0.4c0-0.2,0.1-0.3,0.1-0.5
		c0-0.1,0.1-0.3,0.2-0.5c0.1-0.2,0.1-0.3,0.2-0.5c0.1-0.1,0.1-0.2,0.1-0.4s0-0.3-0.1-0.4C21.2,23.6,21.1,23.5,20.9,23.5z M19.4,28.6
		c0,0,0,0.1,0,0.1L19.4,28.6C19.3,28.6,19.3,28.6,19.4,28.6c-0.1-0.1-0.1-0.1-0.1-0.1l0.1,0c0,0,0,0,0,0c0,0,0,0,0,0
		C19.4,28.5,19.4,28.5,19.4,28.6z M19.6,28.1C19.6,28.1,19.6,28.2,19.6,28.1C19.6,28.2,19.5,28.2,19.6,28.1c-0.1,0.1-0.1,0-0.1-0.1
		c0,0,0,0,0,0c0,0,0,0,0,0c0,0,0,0,0,0c0,0,0,0,0,0c0.1,0,0.1,0,0.1,0.1L19.6,28.1z M19.8,27.2l-0.1,0.4c0,0,0,0,0,0c0,0,0,0,0,0
		v-0.1c0,0,0,0,0-0.1c0-0.1,0-0.1,0-0.2C19.7,27.2,19.7,27.2,19.8,27.2C19.8,27.2,19.8,27.1,19.8,27.2
		C19.8,27.2,19.8,27.2,19.8,27.2z M19.9,27L19.9,27c-0.1-0.1-0.1-0.1,0-0.2c0,0,0.1,0,0.1,0C19.9,26.8,19.9,26.8,19.9,27
		C19.9,26.9,20,26.9,19.9,27C19.9,27,19.9,27,19.9,27z M20.2,26.3c0,0,0,0.1,0,0.2c0,0.1,0,0.1-0.1,0.2c0,0-0.1,0-0.1,0.1
		c0-0.1,0-0.1,0-0.2c0-0.1,0-0.2,0-0.3c0,0,0-0.1,0-0.1c0,0,0-0.1,0.1-0.1c0,0,0,0,0.1-0.1c0,0.1,0,0.1,0,0.2L20.2,26.3z"/>
	<path class="st0" d="M19.6,26.2c0,0,0.1-0.1,0.1-0.1c0,0,0,0-0.1,0c0,0,0,0-0.1,0h0c0,0,0,0,0,0c0,0.1,0,0.2-0.1,0.3
		C19.5,26.3,19.6,26.3,19.6,26.2z"/>
	<path class="st0" d="M8.6,26.3C8.6,26.3,8.6,26.2,8.6,26.3c0-0.1-0.1-0.1-0.1-0.1C8.5,26.3,8.5,26.3,8.6,26.3z"/>
	<polygon class="st0" points="8.4,26.1 8.5,26.2 8.4,26.1 	"/>
	<path class="st0" d="M19.1,26.5c-0.1,0-0.1,0-0.1,0h0c0,0,0.1-0.1,0.1-0.1c0,0,0.1-0.1,0.1-0.1c0,0,0.1,0,0.2-0.1
		c0.1,0,0.1,0,0.2,0c0,0,0,0,0,0h-0.1c-0.1,0.1-0.3,0.1-0.6,0.2c-0.4,0.1-0.7,0.3-0.8,0.3c-0.1,0-0.1,0.1-0.2,0.1
		c-0.1,0.1-0.1,0.1-0.2,0.1c-0.3,0.1-0.7,0.3-1.2,0.6c0,0-0.1,0-0.1,0c-0.1,0-0.1-0.1-0.1-0.1c-0.2-0.5-0.3-0.8-0.4-1
		c0-0.1,0-0.1-0.1-0.3c0-0.1-0.1-0.2-0.1-0.3c0-0.1,0-0.1,0-0.2s0-0.2,0-0.2c0-0.1,0-0.1,0-0.2c0,0,0-0.1,0.1-0.1c0,0,0-0.1,0.1-0.1
		c0,0,0-0.1,0.1-0.1c0-0.1,0.1-0.2,0.1-0.3c0.1-0.1,0.1-0.2,0.1-0.2c0-0.1,0.1-0.1,0.2-0.2c0.2-0.1,0.3-0.2,0.5-0.4
		c0.2-0.2,0.3-0.3,0.4-0.4l0.2-0.1c0.2-0.1,0.3-0.1,0.4-0.2l0-0.1c0.2,0,0.3,0,0.4,0.1l0.1,0.1c0,0,0,0.1,0,0.2c0,0.1,0,0.1,0,0.2
		c0,0.1,0,0.2-0.1,0.3c0,0.1-0.1,0.3-0.2,0.5c-0.1,0.2-0.2,0.3-0.2,0.4c0,0,0,0.1-0.1,0.1c0,0.1,0,0.1-0.1,0.2
		c-0.1,0.1-0.1,0.2-0.1,0.3c0,0.1,0,0.1,0.1,0.1c0,0,0.1,0.1,0.1,0.1h0c0.1,0,0.2,0,0.3-0.1c0.1,0,0.2-0.1,0.3-0.1
		c0.1,0,0.1,0,0.1-0.1l0.2-0.4c0,0,0-0.1,0.1-0.2s0.1-0.2,0.1-0.2c0.1-0.1,0.2-0.3,0.2-0.6c0-0.1,0-0.2,0.1-0.2l0-0.2
		c0-0.1,0-0.2-0.1-0.3L18.7,23c0-0.1-0.1-0.3-0.2-0.3c-0.1-0.1-0.2-0.2-0.3-0.3c-0.1-0.1-0.1-0.2-0.2-0.2C17.9,22,17.8,22,17.7,22
		c-0.1,0-0.2-0.1-0.2-0.1c-0.1,0-0.1,0-0.2,0c-0.2,0-0.4,0.1-0.6,0.2c-0.1,0.1-0.2,0.2-0.4,0.3c-0.1,0.1-0.2,0.2-0.3,0.3
		c-0.1,0.1-0.3,0.2-0.3,0.3c0,0-0.1,0.1-0.1,0.1c-0.1,0.1-0.2,0.2-0.3,0.3c-0.1,0.1-0.2,0.2-0.3,0.4c0,0.1-0.1,0.2-0.1,0.3
		c-0.1,0.1-0.3,0.3-0.3,0.6c0,0.1,0,0.2,0,0.2c0,0.1,0,0.1,0,0.2c0,0.1,0,0.1,0,0.2c0,0.1,0,0.1,0,0.2c0,0.1,0,0.2,0.1,0.2
		c0,0,0.1,0.1,0.2,0.2c0.1,0.1,0.1,0.3,0.2,0.4l0.1,0.1c0.2,0.2,0.3,0.4,0.5,0.7c0,0.1,0.1,0.1,0.1,0.2c0.1,0.1,0.1,0.2,0.1,0.3
		c0,0.1,0.1,0.2,0,0.2c0,0-0.1,0.1-0.2,0.1c-0.2,0.1-0.4,0.2-0.5,0.2c-0.1,0.1-0.2,0.2-0.3,0.3c-0.2,0.1-0.3,0.2-0.5,0.3
		c-0.3,0.1-0.5,0.4-0.8,0.8c-0.1,0-0.1,0.1-0.2,0.3c0,0.1-0.1,0.1-0.1,0.2c0,0.2,0.1,0.5,0.3,0.7c0,0,0.1,0,0.1,0.1
		c0,0,0.1,0,0.1,0.1c0.2,0,0.3,0.1,0.5,0.1c0.1,0,0.2,0,0.3-0.1c0.1,0,0.3,0,0.4,0c0.3,0,0.6,0,1-0.1c0.4-0.1,0.8-0.3,1.1-0.6
		c0.1-0.1,0.1-0.1,0.1-0.2c0.1-0.2,0.1-0.5,0.2-0.7c0-0.1,0-0.2-0.1-0.2c0-0.1,0-0.1,0-0.2c0-0.1,0-0.1,0-0.2
		c-0.1-0.2-0.2-0.4-0.4-0.4c0,0-0.1,0-0.1-0.1c0,0-0.1-0.1-0.1-0.1c-0.1-0.1,0-0.1,0-0.2l0.6-0.2c0.1,0,0.2-0.1,0.3-0.1
		c0.1-0.1,0.2-0.1,0.3-0.2l0.6-0.3c0.2-0.1,0.5-0.2,1-0.3c0.1,0,0.1,0,0.2-0.1c0-0.1,0-0.1,0-0.2C19.3,26.4,19.2,26.4,19.1,26.5z
		 M18.2,24.5L18.2,24.5c0.1,0.1,0.1,0.1,0.1,0.1c0,0,0,0.1,0.1,0.1l-0.1,0c0,0,0,0,0,0c0,0,0,0,0,0c0,0,0-0.1,0-0.1
		C18.2,24.6,18.2,24.6,18.2,24.5z M18.1,25C18.1,25,18.1,25,18.1,25c0,0.1,0,0.1,0,0.2c0,0,0,0-0.1,0.1c0,0-0.1,0-0.1,0
		c0,0,0,0,0-0.1L18,25C18,25,18,24.9,18.1,25C18,24.9,18.1,24.9,18.1,25z M16.3,22.9C16.3,22.9,16.3,22.9,16.3,22.9
		c0.1-0.1,0.1-0.1,0.2-0.1c0,0,0.1-0.1,0.1-0.1c0.1,0,0.1,0,0.1,0c0,0,0,0,0,0.1c0,0,0,0,0,0.1c0,0,0,0.1-0.1,0.1
		c-0.1,0-0.1,0.1-0.1,0.1C16.5,22.9,16.4,23,16.3,22.9L16.3,22.9C16.3,22.9,16.3,22.9,16.3,22.9z M15.9,23.2
		c0.1-0.1,0.1-0.1,0.1-0.1c0,0,0.1,0,0.1,0c0,0,0,0.1,0,0.1c0,0,0,0-0.1,0c0,0,0,0.1,0,0.1v0C16,23.4,15.9,23.3,15.9,23.2
		C15.9,23.3,15.9,23.3,15.9,23.2C15.9,23.3,15.9,23.3,15.9,23.2z M15.7,23.5C15.7,23.5,15.7,23.5,15.7,23.5
		C15.7,23.5,15.7,23.6,15.7,23.5l0,0.1c0,0-0.1,0-0.1,0c0,0,0,0-0.1,0h-0.1C15.6,23.6,15.6,23.6,15.7,23.5z M16.1,29.4
		C16.1,29.4,16.1,29.5,16.1,29.4c0,0.1,0,0.1,0,0.1c0,0.1-0.1,0.2-0.2,0.3c-0.2,0.2-0.5,0.3-0.7,0.3c-0.2,0.1-0.5,0.1-1,0.1
		c-0.2,0-0.4-0.1-0.4-0.1c-0.1,0-0.1-0.1-0.1-0.2c0,0,0-0.1,0-0.1c0.1-0.1,0.2-0.3,0.3-0.4c0.5-0.4,0.9-0.7,1.2-0.9l0.4-0.2
		c0.1-0.1,0.1-0.1,0.2-0.1c0,0,0,0,0.1,0c0.1,0.1,0.2,0.2,0.2,0.3c0,0,0,0.1,0.1,0.3c0,0.1,0.1,0.2,0.1,0.2
		C16.2,29.2,16.2,29.3,16.1,29.4z M16.4,27.5C16.4,27.5,16.4,27.5,16.4,27.5c-0.1,0.1-0.2,0.1-0.2,0.1c0,0,0,0,0.1-0.1
		c0,0,0-0.1,0.1-0.1c0,0,0,0,0.1,0c0,0,0.1,0,0.1,0C16.5,27.4,16.4,27.5,16.4,27.5z M16.7,27.4c0,0-0.1,0-0.1,0
		C16.6,27.4,16.6,27.4,16.7,27.4L16.7,27.4z M16.9,27.2C16.9,27.3,16.9,27.3,16.9,27.2c-0.1,0.1-0.1,0.1-0.1,0c0,0,0,0,0,0
		c0,0,0,0,0,0L16.9,27.2C16.9,27.2,16.9,27.2,16.9,27.2C16.9,27.2,16.9,27.2,16.9,27.2C16.9,27.2,16.9,27.2,16.9,27.2z M18.7,26.6
		c-0.1,0.1-0.2,0.1-0.3,0.1c-0.2,0-0.3,0.1-0.5,0.2c-0.1,0-0.1,0-0.2,0h0c-0.1,0-0.2,0-0.3,0.1s-0.2,0.1-0.3,0.1c0,0,0,0-0.1,0
		c0,0,0,0,0-0.1l0,0c0.1,0,0.2-0.1,0.3-0.1c0.1,0,0.2-0.1,0.3-0.1c0.2-0.1,0.2-0.1,0.2-0.1c0.1,0,0.1,0,0.1-0.1c0,0,0.1,0,0.1-0.1
		c0,0,0.1,0,0.2-0.1c0.1,0,0.1-0.1,0.2-0.1c0.1,0,0.2,0,0.3,0c0.1,0,0.2,0,0.2-0.1c0,0,0,0,0,0c0,0,0,0,0,0
		C18.8,26.5,18.7,26.6,18.7,26.6z"/>
	<path class="st0" d="M21.8,21.8c0,0,0.1,0,0.1-0.1c0.1,0,0.1-0.1,0.2-0.1c0.1,0,0.1-0.1,0.1-0.2c0-0.1,0-0.1,0.1-0.2
		c0-0.1,0.1-0.1,0.1-0.2c0.1-0.2,0.1-0.4,0.1-0.5c0-0.1,0-0.2-0.1-0.4c-0.1-0.1-0.1-0.2-0.1-0.4c0,0,0-0.1-0.1-0.1s-0.1,0-0.1,0
		c0,0,0,0-0.1,0c0,0-0.1,0-0.1,0.1c0,0-0.1,0.1-0.1,0.2c0,0.1-0.1,0.1-0.1,0.1c-0.1,0.1-0.2,0.2-0.3,0.4c-0.1,0.1-0.1,0.3-0.2,0.5
		c0,0,0,0.1,0,0.2c0,0.1,0,0.1,0,0.2c0,0.1,0.1,0.2,0.1,0.2c0.1,0.1,0.2,0.1,0.3,0.2C21.7,21.8,21.7,21.8,21.8,21.8z"/>
	<path class="st0" d="M7.7,26.7L7.7,26.7C7.8,26.7,7.8,26.7,7.7,26.7L7.7,26.7z"/>
	<path class="st0" d="M7.5,26.4C7.5,26.4,7.5,26.4,7.5,26.4C7.5,26.4,7.5,26.4,7.5,26.4C7.5,26.4,7.5,26.4,7.5,26.4
		c0,0.2,0.1,0.3,0.2,0.3C7.7,26.6,7.7,26.5,7.5,26.4C7.5,26.4,7.5,26.4,7.5,26.4z"/>
	<path class="st0" d="M8.2,26.4L8.2,26.4C8.2,26.4,8.1,26.4,8.2,26.4C8.1,26.4,8.2,26.4,8.2,26.4z"/>
	<path class="st0" d="M36.2,23.6c0,0,0.1-0.1,0.1-0.1c0,0,0.1-0.1,0.1-0.1c0,0,0,0,0-0.1c0,0,0,0,0-0.1c-0.1,0-0.2,0.1-0.3,0.2
		c0,0-0.1,0.1-0.1,0.1c0,0.1-0.1,0.1-0.1,0.2c0,0,0,0,0,0c0,0,0,0.1,0,0.1C35.9,23.8,36.1,23.7,36.2,23.6z"/>
	<path class="st0" d="M35.3,25.6c0.1,0,0.1-0.1,0.1-0.1v-0.1c0,0-0.1,0-0.1,0.1L35.3,25.6z"/>
	<path class="st0" d="M35.2,25.7c0.1,0,0.1,0,0.1-0.1C35.2,25.6,35.2,25.6,35.2,25.7z"/>
	<path class="st0" d="M35.5,24.2C35.5,24.2,35.5,24.2,35.5,24.2l-0.3,0.3c0,0,0,0,0,0c0,0,0,0,0,0l0.1,0c0,0,0,0,0.1,0
		c0,0,0,0,0.1,0C35.5,24.5,35.5,24.4,35.5,24.2C35.6,24.3,35.6,24.3,35.5,24.2z"/>
	<path class="st0" d="M35.7,24.7L35.7,24.7L35.7,24.7C35.7,24.7,35.7,24.7,35.7,24.7z"/>
	<path class="st0" d="M35.6,24.1c0,0,0.1,0,0.1,0c0,0,0,0,0.1-0.1c0,0,0-0.1,0-0.1C35.7,23.9,35.7,24,35.6,24.1
		C35.6,24,35.6,24,35.6,24.1z"/>
	<path class="st0" d="M35.8,24.6C35.8,24.6,35.8,24.6,35.8,24.6L35.8,24.6C35.9,24.6,35.8,24.6,35.8,24.6z"/>
	<path class="st0" d="M35.9,25c-0.2,0-0.3,0.1-0.3,0.3C35.7,25.3,35.8,25.2,35.9,25z"/>
	<path class="st0" d="M34.1,26.8C34.1,26.8,34.1,26.8,34.1,26.8C34.1,26.7,34.1,26.7,34.1,26.8c-0.1-0.1-0.1-0.2-0.1-0.2
		c0,0,0.1-0.1,0.1-0.2c0-0.1,0.1-0.1,0.2-0.2c0.1-0.1,0.1-0.1,0.1-0.2v-0.1c0,0,0,0,0-0.1c0,0,0,0,0,0c0,0,0,0,0,0.1
		c-0.1,0.1-0.1,0.1-0.1,0.1c-0.1,0-0.2,0.1-0.3,0.2c-0.1,0.1-0.2,0.1-0.3,0.2l-0.3,0.3c0,0,0,0-0.1,0c0,0,0,0-0.1,0c0,0,0,0,0-0.1
		c0-0.1,0-0.2,0-0.4c0,0,0,0,0,0c0,0,0,0,0,0c0,0,0,0,0,0c0,0.1-0.1,0.2-0.1,0.3c0,0.1-0.1,0.2-0.1,0.3c-0.1,0.1-0.2,0.3-0.2,0.5
		c0,0.1-0.1,0.2-0.1,0.3c-0.1,0.1-0.1,0.1-0.1,0.1h0c-0.1-0.1-0.1-0.1-0.1-0.2v0c0,0,0-0.1,0.1-0.2c0-0.1,0.1-0.1,0.1-0.2
		c0-0.1,0-0.2,0.1-0.4c0.1-0.2,0.1-0.3,0.1-0.5c0-0.1,0.1-0.2,0.1-0.3c0.1-0.1,0.1-0.2,0-0.3c0,0,0,0,0-0.1c0,0,0-0.1,0-0.1
		C33,25.2,33,25.1,33,25c0-0.1,0-0.2,0.1-0.3c0-0.1,0-0.2,0.1-0.3c0.1-0.1,0.1-0.2,0.1-0.3c0,0,0,0,0,0c0,0,0,0,0,0
		c0-0.1,0-0.1-0.1-0.3c0-0.1,0-0.2-0.1-0.3c0-0.1-0.1-0.1-0.1,0c-0.1,0-0.2,0-0.2,0.1c0,0-0.1,0.1-0.1,0.2c0,0.1,0,0.1-0.1,0.2
		c-0.1,0.1-0.1,0.2-0.1,0.2c0,0.2-0.1,0.4-0.3,0.7c-0.1,0.3-0.2,0.5-0.2,0.7c0,0.1,0,0.3-0.1,0.7c0,0,0,0.1,0,0.2
		c0,0.1,0,0.1-0.1,0.2l-0.1,0.2l0,0c-0.1,0-0.1,0-0.2,0c-0.1,0-0.1,0.1-0.2,0.1c-0.1,0.1-0.1,0.1-0.2,0.1c-0.2,0.2-0.3,0.3-0.3,0.3
		c0,0-0.1,0.1-0.2,0.2c0,0-0.1,0.1-0.2,0.1c-0.1,0-0.2,0.1-0.2,0.2c0,0.1-0.1,0.2-0.2,0.2c-0.1,0.1-0.1,0.1-0.2,0.2
		c-0.1,0.1-0.4,0.3-0.7,0.6c-0.2,0.2-0.3,0.3-0.5,0.4c0,0,0,0-0.1,0c0,0,0,0,0-0.1c0-0.1,0-0.1,0-0.2c0-0.1,0-0.2,0.1-0.4
		c0-0.1,0.1-0.2,0.1-0.3c0-0.2,0-0.4,0-0.8l0-0.1c0.1-0.1,0.1-0.2,0.1-0.4c0-0.1,0-0.3,0-0.3c0-0.3,0-0.6,0.1-0.8
		c0-0.2,0.1-0.4,0.1-0.8c0-0.3,0-0.5,0.1-0.8c0-0.1,0.1-0.2,0.1-0.4c0-0.1,0-0.2,0.1-0.4c0.1-0.2,0.1-0.5,0.1-0.8c0-0.1,0-0.1,0-0.2
		c0,0,0-0.1,0-0.2l0-0.1c0-0.1,0-0.1-0.1-0.1c-0.1,0-0.2,0-0.2,0c-0.1,0.1-0.1,0.1-0.2,0.2c0,0-0.1,0-0.1,0c0,0,0,0-0.1-0.1
		c-0.1-0.1-0.1-0.2-0.2-0.2c0,0-0.1,0-0.1,0c-0.1,0-0.1,0-0.1,0.1c0,0.1-0.1,0.1-0.1,0.2c0,0.1,0,0.1-0.1,0.3c0,0.1-0.1,0.2-0.1,0.3
		c0,0-0.1,0.2-0.3,0.4c-0.3,0.4-0.5,0.7-0.6,0.9c0,0.1-0.1,0.1-0.2,0.2c-0.1,0.1-0.4,0.4-0.7,0.9c-0.2,0.2-0.3,0.3-0.3,0.3l-0.3,0.4
		l-0.6,0.8c-0.5,0.6-0.8,1-0.9,1.2c-0.1,0.2-0.2,0.3-0.4,0.4c-0.1,0.1-0.2,0.2-0.3,0.3c-0.1,0.1-0.1,0.1-0.2,0.2
		c-0.1,0.1-0.2,0.2-0.3,0.2c0,0,0,0-0.1,0c0,0-0.1,0-0.1-0.1c0-0.1-0.1-0.2-0.1-0.3c0-0.1,0-0.1,0-0.2c0-0.2,0.1-0.4,0.2-0.5
		c0.1-0.3,0.2-0.5,0.2-0.7c0,0,0-0.1,0-0.1c0,0,0-0.1,0-0.1c0-0.1,0.1-0.3,0.1-0.5c0.1-0.2,0.1-0.4,0.2-0.6c0-0.1,0.1-0.3,0.1-0.5
		c0.1-0.2,0.1-0.3,0.1-0.4c0-0.1,0.1-0.2,0.2-0.5l0.1-0.4c0-0.1,0.1-0.2,0.1-0.3c0-0.1,0.1-0.3,0.1-0.4c0-0.1,0.1-0.3,0.2-0.6
		c0-0.1,0.1-0.1,0.1-0.1c0,0,0.1-0.1,0.1-0.1c0,0,0.1,0,0.1,0s0.1,0,0.1,0c0.1,0.1,0.2,0.2,0.3,0.4l0.5,0.9c0.1,0.1,0.2,0.2,0.3,0.2
		c0.1,0,0.2,0,0.2-0.1c0,0,0,0,0.1-0.1c0,0,0.1-0.1,0.1-0.1s0.1,0,0.1,0c0,0,0,0,0.1,0c0.1-0.1,0.1-0.2,0.1-0.3c0-0.1,0-0.1-0.1-0.2
		c-0.1-0.1-0.1-0.2-0.2-0.3c0-0.1-0.1-0.2-0.2-0.3c0-0.1-0.1-0.1-0.2-0.1c0,0.1,0,0.1,0.1,0.2c0,0.1,0.1,0.1,0.1,0.2
		c0,0.1,0,0.1,0.1,0.2s0.1,0.1,0.1,0.2l0,0.1c0,0.1-0.1,0.1-0.1-0.1c-0.1-0.2-0.1-0.3-0.1-0.3c-0.1-0.1-0.1-0.2-0.1-0.3
		c0-0.1,0-0.2,0-0.2c-0.1,0-0.1,0-0.1-0.1c-0.1-0.1-0.2-0.3-0.4-0.5c0,0-0.1-0.1-0.4-0.3c-0.1-0.1-0.2-0.1-0.3-0.1h-0.1
		c-0.3,0.1-0.5,0.2-0.7,0.3c-0.2,0.2-0.4,0.4-0.5,0.7c-0.1,0.3-0.3,0.6-0.4,0.9l-0.2,0.4c-0.1,0.3-0.1,0.5-0.2,0.6
		c0,0.1,0,0.2-0.1,0.4c0,0.2-0.1,0.4-0.2,0.5c-0.1,0.1-0.1,0.3-0.1,0.5c0,0.2-0.1,0.3-0.1,0.4c0,0,0,0.1-0.1,0.2
		c0,0.1-0.1,0.2-0.1,0.2v0c0,0.1,0,0.2,0,0.3c0,0.1-0.1,0.2-0.1,0.3c0,0.1,0,0.1,0,0.1c0,0.2-0.1,0.4-0.1,0.8c0,0,0,0.1,0,0.1
		c0,0.1,0,0.2,0,0.3c0,0.1,0,0.3,0.1,0.3c0.1,0.2,0.1,0.4,0.2,0.4c0.1,0.2,0.3,0.3,0.6,0.3c0.1,0,0.2,0,0.2,0c0.5-0.2,1-0.6,1.3-1
		c0.2-0.3,0.4-0.4,0.7-0.5c0.2-0.1,0.4-0.3,0.5-0.5c0-0.1,0.1-0.1,0.1-0.1c0.1-0.1,0.2-0.2,0.3-0.3c0.1-0.2,0.2-0.3,0.2-0.3
		c0.1-0.1,0.1-0.2,0.2-0.3c0.1-0.1,0.2-0.2,0.2-0.3c0.1-0.1,0.3-0.4,0.4-0.7c0,0,0,0,0-0.1c0.1-0.1,0.2-0.2,0.3-0.4
		c0.1-0.2,0.1-0.3,0.2-0.3c0,0,0,0,0.1,0l0,0c0,0,0,0.1,0,0.2c0,0.1,0,0.1,0,0.2c0,0.1-0.1,0.2-0.1,0.3c0,0.1-0.1,0.2-0.1,0.3
		c0,0.1,0,0.2,0,0.3c0,0.1,0,0.2,0,0.3L27.1,28c0,0.1-0.1,0.2-0.1,0.4v0.2c0,0.1,0,0.2,0,0.4c0,0.2,0,0.3-0.1,0.4
		c0,0.1,0,0.3-0.1,0.5c0,0,0,0.1-0.1,0.3c0,0.1,0,0.3,0,0.4c0,0.1-0.1,0.3-0.1,0.4c0,0.1-0.1,0.2-0.2,0.2c-0.1,0.1-0.3,0.3-0.6,0.5
		c-0.4,0.3-0.6,0.5-0.6,0.4c-0.5,0.4-0.9,0.8-1.2,1.2c0,0.1-0.1,0.1-0.1,0.1c-0.1,0.1-0.2,0.2-0.3,0.3c0,0-0.2,0.3-0.6,0.8l-0.1,0.2
		c-0.1,0.1-0.2,0.4-0.3,0.7c-0.1,0.3-0.2,0.5-0.3,0.6c0,0.1-0.1,0.2-0.1,0.4c0,0.1,0,0.3,0,0.3c0,0,0,0,0,0.1
		c-0.1,0.1-0.1,0.3-0.1,0.5l0,0.4c0,0.4,0.3,0.8,0.7,1c0.1,0,0.1,0.1,0.2,0.1c0.1,0,0.1,0.1,0.2,0.1c0.1,0,0.2,0.1,0.3,0.1
		c0,0,0.1,0,0.1,0c0,0,0.1,0,0.2,0c0,0,0.1,0,0.2,0c0.2,0,0.4-0.1,0.5-0.2c0.2-0.1,0.3-0.2,0.3-0.2c0.1-0.1,0.2-0.2,0.2-0.2
		c0.1-0.1,0.2-0.1,0.2-0.2c0,0,0.1-0.2,0.3-0.5c0.1-0.1,0.1-0.1,0.1-0.2c0-0.1,0-0.2,0-0.3c0.1-0.1,0.2-0.4,0.3-0.7
		c0.1-0.2,0.1-0.4,0.2-0.7c0.1-0.2,0.1-0.4,0.2-0.4c0-0.1,0.1-0.4,0.2-0.7c0-0.1,0-0.2,0.1-0.4c0.1-0.2,0.1-0.3,0.1-0.5
		c0-0.1,0-0.1,0-0.2c0.1-0.2,0.1-0.4,0.2-0.6c0.1-0.2,0.1-0.4,0.1-0.4l0.1-0.1c0,0,0,0.1,0,0.2c0,0.3,0,0.6-0.1,0.8
		c0,0.1-0.1,0.2-0.1,0.3c0,0.1,0,0.3-0.1,0.3c0,0.1,0,0.1,0,0.2v0.2c0,0,0,0,0,0.1c0,0,0,0,0,0.1c0,0,0,0,0,0c0-0.1,0.1-0.2,0.2-0.3
		c0.1-0.2,0.1-0.3,0.1-0.5c0,0,0-0.1,0-0.1c0.1-0.1,0.1-0.3,0.2-0.5c0.1-0.2,0.1-0.3,0.1-0.4l0.1-0.4c0-0.1,0.1-0.2,0.1-0.3
		c0-0.2,0.1-0.4,0.1-0.5c0.1-0.2,0.1-0.4,0.2-0.5c0-0.1,0.1-0.1,0.1-0.2c0.1-0.1,0.2-0.3,0.4-0.4l0.4-0.3l0.2-0.1
		c0.1,0,0.2-0.1,0.3-0.2c0.1-0.1,0.2-0.2,0.2-0.2c0.1-0.1,0.2-0.1,0.3-0.2c0.1-0.1,0.2-0.2,0.3-0.2c0.1-0.1,0.1-0.1,0.3-0.3
		c0.1-0.1,0.3-0.2,0.4-0.3l0.2-0.2c0.1-0.1,0.2-0.1,0.2-0.2c0,0.3-0.1,0.5-0.1,0.6c0,0.1-0.1,0.4-0.1,0.8c0,0.1,0,0.2,0.1,0.3
		c0.1,0.2,0.3,0.2,0.5,0.2h0.1c0.1,0,0.1,0,0.2-0.1l0.3-0.3c0.1,0,0.2-0.1,0.2-0.2c0.1-0.1,0.1-0.1,0.1-0.2c0.1-0.1,0.1-0.2,0.2-0.3
		c0.1-0.1,0.2-0.2,0.2-0.3c0-0.1,0.1-0.2,0.2-0.4c0.1-0.1,0.2-0.3,0.2-0.3c0-0.1,0.1-0.2,0.2-0.4c0.1-0.1,0.2-0.2,0.2-0.3l0.4-0.6
		c0,0,0-0.1,0.1-0.1c0,0,0-0.1,0-0.1L34.1,26.8C34.2,26.7,34.2,26.8,34.1,26.8z M23.2,25.7c0,0,0-0.1,0-0.1c0,0,0-0.1,0.1-0.1
		c0,0,0,0,0.1-0.1c0,0.1,0,0.2,0,0.2s0,0.1,0,0.2c0,0.1,0,0.1,0,0.2c0,0.1,0,0.1-0.1,0.2c0,0,0,0-0.1,0c0,0,0,0-0.1,0.1
		c0-0.1,0-0.2,0-0.3C23.2,25.9,23.2,25.8,23.2,25.7z M23.1,26.4C23.1,26.4,23.1,26.3,23.1,26.4c0.1,0,0.1,0.1,0.1,0.1c0,0,0,0,0,0
		c0,0,0,0-0.1,0L23.1,26.4C23.1,26.4,23.1,26.4,23.1,26.4z M22.9,26.9c0-0.1,0-0.1,0.1-0.1c0,0,0-0.1,0.1-0.1c0,0,0,0.1,0,0.1
		c0,0.1,0,0.1-0.1,0.2c0,0.1,0,0.1,0,0.2c0,0,0,0,0,0c0,0,0,0,0,0l0-0.1c0,0,0,0,0-0.1C22.9,27,22.9,27,22.9,26.9z M22.8,27.6
		C22.8,27.6,22.8,27.6,22.8,27.6C22.8,27.5,22.8,27.5,22.8,27.6c0.1-0.1,0.2-0.1,0.2,0l-0.1,0.2c0,0,0,0,0,0.1c0,0,0,0,0,0
		C22.8,27.8,22.8,27.7,22.8,27.6L22.8,27.6z M22.7,28C22.7,28,22.7,28,22.7,28C22.8,28,22.8,28.1,22.7,28c0.1,0,0.1,0.1,0,0.1
		c0,0,0,0.1,0,0.1l-0.1,0c0,0,0,0,0-0.1C22.7,28.1,22.7,28.1,22.7,28L22.7,28z M26.2,33.1c0,0.2,0,0.5-0.2,0.8
		c-0.1,0.2-0.1,0.5-0.3,1.1c0,0.1,0,0.2-0.1,0.4c0,0.2-0.1,0.4-0.2,0.6c-0.1,0.1-0.1,0.2-0.1,0.3c0,0.1-0.1,0.2-0.2,0.4
		c-0.1,0.1-0.1,0.2-0.1,0.2c0,0.1-0.1,0.3-0.2,0.4l-0.4,0.4c-0.1,0.1-0.2,0.1-0.3,0.1c-0.1,0-0.3,0-0.5,0c-0.2,0-0.3-0.1-0.3-0.2
		C23.1,37.4,23,37.2,23,37c0-0.1,0-0.3,0.1-0.4c0-0.1,0.1-0.3,0.2-0.5c0.1-0.2,0.1-0.4,0.1-0.5c0,0,0-0.1,0.1-0.1
		c0,0,0.1-0.1,0.1-0.1c0,0,0,0,0.1-0.1c0.1,0,0.1-0.1,0.1-0.2v0c0-0.1,0-0.2,0.1-0.3c0,0,0.1-0.1,0.1-0.1c0-0.1,0.1-0.1,0.1-0.2
		c0-0.1,0.1-0.1,0.2-0.2c0.1-0.1,0.1-0.2,0.2-0.3c0-0.1,0.1-0.1,0.2-0.2c0.1-0.1,0.1-0.2,0.2-0.3c0.1-0.2,0.2-0.3,0.3-0.3
		c0.1-0.1,0.4-0.3,0.6-0.5c0.1-0.1,0.1-0.1,0.2-0.1c0.1,0,0.1-0.1,0.2-0.1c0,0,0.1,0,0.1,0c0,0,0,0.1,0,0.1V33.1z M27.4,31.9
		c-0.1,0.1-0.1,0.3-0.2,0.6c0,0,0,0.1-0.1,0.1c0-0.1,0-0.3,0-0.6c0-0.1,0-0.2,0.1-0.2l0,0c0,0,0,0,0,0.1
		C27.4,31.8,27.4,31.9,27.4,31.9z M27.6,30.2C27.6,30.2,27.6,30.1,27.6,30.2l0-0.1c0,0,0,0,0,0s0,0,0,0
		C27.7,30.1,27.6,30.1,27.6,30.2z M27.8,29.3C27.8,29.3,27.8,29.3,27.8,29.3l-0.1,0c0-0.1,0-0.2,0.1-0.3c0,0,0,0.1,0,0.2
		C27.8,29.2,27.8,29.3,27.8,29.3z M27.9,28.9C27.9,29,27.9,29,27.9,28.9c-0.1,0-0.1-0.2-0.1-0.3c0-0.1,0-0.1,0.1-0.1c0,0,0,0,0,0
		c0,0,0,0,0,0L27.9,28.9z M28.3,26c0,0.2-0.1,0.3-0.1,0.4c0,0,0,0.1,0,0.2v0.2c0,0.1,0,0.2,0,0.3c0,0.1,0,0.2,0,0.2
		c0,0.1,0,0.1-0.1,0.3c-0.1,0.1-0.1,0.2-0.1,0.3c0,0,0,0,0,0.1c0,0,0,0,0-0.1c0,0,0,0,0-0.1c0,0,0-0.1,0-0.1c0,0,0-0.1,0-0.2
		c0-0.2,0-0.3,0.1-0.5c0-0.1,0.1-0.2,0.1-0.4v-0.2c0-0.3,0-0.5,0.1-0.6c0-0.1,0-0.1,0-0.2v-0.3c0,0,0-0.1,0-0.3c0-0.2,0-0.3,0.1-0.5
		c0,0,0-0.1,0.1-0.3l0-0.1c0,0,0,0,0,0c0,0,0,0,0,0.1c0,0.1,0,0.2,0,0.5c0,0.3,0,0.5-0.1,0.8C28.4,25.7,28.4,25.8,28.3,26z
		 M33.1,28.4C33.1,28.4,33,28.4,33.1,28.4C33,28.4,33,28.4,33.1,28.4c-0.1-0.1,0-0.2,0-0.2L33.1,28.4z M33.1,28.2l0-0.2c0,0,0,0,0,0
		c0,0,0,0,0,0c0,0,0.1,0.1,0,0.1C33.2,28.1,33.2,28.2,33.1,28.2z M33.4,27.7L33.4,27.7c-0.1,0-0.1,0-0.1,0c0-0.1,0.1-0.1,0.1-0.1
		L33.4,27.7z M33.7,27.3c-0.1,0.1-0.1,0.1-0.2,0.2c0,0,0,0,0,0l0-0.1c0-0.2,0.1-0.3,0.3-0.3C33.8,27.1,33.8,27.2,33.7,27.3z
		 M34,26.9c0,0.1-0.1,0.1-0.1,0.1l0-0.1c0-0.1,0-0.1,0.1-0.1C34,26.8,34,26.8,34,26.9z"/>
	<path class="st0" d="M34.5,26.4c-0.1,0-0.1,0-0.1,0.1c0,0,0,0.1,0,0.1C34.4,26.7,34.5,26.6,34.5,26.4z"/>
	<polygon class="st0" points="35.1,25.7 35.1,25.7 35.1,25.8 	"/>
	<path class="st0" d="M34.8,26.2c0-0.1,0-0.1,0-0.1c-0.1,0-0.1,0-0.1,0.1c0,0,0,0.1,0,0.2C34.7,26.3,34.8,26.2,34.8,26.2z"/>
	<path class="st0" d="M38.4,29.4C38.4,29.4,38.4,29.4,38.4,29.4c-0.1,0-0.1,0-0.1,0c0,0-0.1,0-0.1,0c0,0-0.1,0-0.1,0L37.5,30
		c-0.2,0.2-0.5,0.4-0.8,0.5c-0.3,0.1-0.5,0.2-0.6,0.3c-0.1,0-0.1,0-0.2,0c-0.1,0-0.1-0.1-0.1-0.2c0-0.1,0.1-0.3,0.1-0.3
		c0.1-0.1,0.1-0.3,0.1-0.4c0-0.1,0-0.1,0-0.2c0-0.1,0-0.2,0-0.3c0.1-0.1,0.1-0.2,0.1-0.3c0-0.1,0-0.2,0-0.3c0-0.1,0.1-0.3,0.1-0.5
		c0-0.1,0.1-0.3,0.2-0.6c0.1-0.2,0.1-0.5,0.2-1c0-0.1,0.1-0.2,0.1-0.4c0.1-0.2,0.1-0.4,0.1-0.5c0.1-0.3,0.1-0.4,0.2-0.5
		c0-0.1,0-0.1,0.1-0.2c0-0.1,0.1-0.2,0.1-0.2c0-0.2,0-0.3,0-0.3v-0.1c0-0.1,0.1-0.1,0.1-0.1c0-0.1,0-0.1,0-0.1c0-0.1,0-0.1,0-0.2
		v-0.2v-0.1c0-0.1-0.1-0.2-0.2-0.3c-0.1,0-0.2,0-0.3,0c-0.3,0.3-0.5,0.6-0.7,0.8c0,0.1-0.1,0.1-0.1,0.1c0,0,0.1,0.1,0.2,0.2
		c0,0,0,0.1,0,0.1c-0.1,0.1-0.2,0.1-0.2,0.1c0,0.1,0,0.2,0,0.3h0c0.1,0,0.1,0.1,0.1,0.1l0,0.1c0,0.1-0.1,0.2-0.1,0.4
		c0,0.2-0.1,0.3-0.2,0.4c0,0.1,0,0.1-0.1,0.2c0,0.1-0.1,0.1-0.2,0.2c0,0-0.1,0.1-0.1,0.1c0,0.1-0.1,0.1-0.1,0.2
		c0,0.1-0.1,0.2-0.1,0.3c0,0.1-0.1,0.1-0.1,0.2c-0.1,0.1-0.1,0.2-0.1,0.2c0,0.1,0,0.1-0.1,0.2c0,0.1-0.1,0.1-0.1,0.2
		c0,0.1,0,0.1,0,0.1c0,0,0,0.1,0,0.3c0,0.1,0,0.2-0.1,0.3c0,0.1-0.1,0.1,0,0.2c0,0.2,0,0.3-0.1,0.4c-0.1,0.2-0.1,0.3-0.1,0.4
		c0,0.1,0,0.1,0,0.2c0,0,0,0.1,0,0.2s0,0.1,0,0.2c0,0.1,0,0.2,0,0.4c0,0.1,0.1,0.3,0.2,0.5c0.1,0.2,0.2,0.3,0.4,0.3l0.7,0.1
		c0.2,0,0.4,0,0.5-0.1c0.4-0.3,0.6-0.4,0.7-0.5c0.1,0,0.3-0.1,0.4-0.2c0.2-0.1,0.3-0.2,0.4-0.2l0.3-0.2c0.2-0.2,0.4-0.4,0.5-0.7
		C38.5,29.5,38.5,29.5,38.4,29.4z M34.8,29c0,0,0,0.1,0,0.1c0,0,0,0.1,0,0.1l-0.1,0c0,0,0,0,0-0.1c0,0,0-0.1,0-0.1L34.8,29
		C34.8,29,34.8,28.9,34.8,29C34.8,29,34.8,29,34.8,29z M34.9,28.7C34.9,28.7,34.9,28.7,34.9,28.7C34.8,28.7,34.8,28.7,34.9,28.7
		c-0.1-0.1-0.1-0.1-0.1-0.1l0-0.1c0,0,0,0,0,0c0,0,0,0,0,0c0.1,0,0.1,0,0.1,0.1L34.9,28.7C34.9,28.7,34.9,28.7,34.9,28.7z
		 M35.1,30.9C35.1,31,35.1,31,35.1,30.9C35.1,30.9,35.1,30.9,35.1,30.9c-0.1,0-0.1-0.1-0.1-0.1c0,0,0-0.1,0-0.1c0,0,0-0.1,0-0.1
		c0.1,0,0.1,0,0.1,0C35.2,30.8,35.2,30.9,35.1,30.9L35.1,30.9z M35.1,27.9c0,0.1,0,0.1,0,0.2c0,0,0,0,0,0c0,0,0,0,0,0l0-0.1
		c0,0,0,0,0-0.1c0-0.2,0-0.3,0.1-0.3c0,0,0-0.1,0.1-0.1c0,0,0,0.1,0,0.1C35.2,27.8,35.2,27.8,35.1,27.9z M35.3,27.5L35.3,27.5
		c-0.1-0.1-0.1-0.1-0.1-0.2c0,0,0,0,0.1,0C35.3,27.3,35.3,27.4,35.3,27.5C35.3,27.4,35.3,27.4,35.3,27.5
		C35.3,27.5,35.3,27.5,35.3,27.5z M35.5,26.8c0,0.1,0,0.1-0.1,0.2c0,0.1,0,0.1-0.1,0.2c0,0,0,0-0.1,0c0,0,0,0-0.1,0.1
		c0-0.2,0-0.4,0-0.6c0,0,0-0.1,0-0.1c0-0.1,0-0.1,0.1-0.1c0,0,0,0,0.1-0.1c0,0,0,0.1,0,0.2C35.5,26.7,35.5,26.8,35.5,26.8z"/>
	<path class="st0" d="M35,25C35,25,35,25,35,25c0-0.1,0-0.1,0-0.1c0-0.1-0.1-0.1-0.1-0.1L34.8,25c0,0,0,0,0,0.1c0,0,0,0,0,0
		c0,0,0,0,0.1,0C34.9,25.1,35,25.1,35,25C35,25,35,25,35,25z"/>
	<path class="st0" d="M34.9,26.1L34.9,26.1C34.9,26,34.9,26,34.9,26.1C34.9,26,34.9,26,34.9,26.1C34.9,26,34.9,26,34.9,26.1z"/>
	<path class="st0" d="M34.5,26.4c0,0,0.1,0,0.1-0.1C34.6,26.3,34.5,26.4,34.5,26.4z"/>
	<path class="st0" d="M34.7,25.4C34.7,25.4,34.7,25.3,34.7,25.4C34.7,25.3,34.7,25.3,34.7,25.4C34.7,25.3,34.6,25.3,34.7,25.4
		c-0.1-0.1-0.1,0-0.2,0c0,0,0,0.1-0.1,0.1l0.1,0C34.5,25.5,34.6,25.5,34.7,25.4C34.6,25.4,34.7,25.4,34.7,25.4
		C34.7,25.4,34.7,25.4,34.7,25.4z"/>
</g>
</svg>
