<?xml version="1.0" encoding="utf-8"?>
<!-- Generator: Adobe Illustrator 22.0.1, SVG Export Plug-In . SVG Version: 6.00 Build 0)  -->
<svg version="1.1" id="Layer_1" xmlns="http://www.w3.org/2000/svg" xmlns:xlink="http://www.w3.org/1999/xlink" x="0px" y="0px"
	 viewBox="0 0 35.9 36" style="enable-background:new 0 0 35.9 36;" xml:space="preserve">
<style type="text/css">
	.st0{fill:#F6F5F2;}
</style>
<g>
	<path class="st0" d="M19.6,22.6c-0.2-0.1-0.5,0-0.6,0.3c-0.2,0.5-0.3,0.9-0.5,1.2c-0.1,0.2,0,0.5,0.2,0.6c0.1,0,0.1,0,0.2,0
		c0.2,0,0.3-0.1,0.4-0.3c0.2-0.4,0.3-0.8,0.5-1.3C20,22.9,19.8,22.6,19.6,22.6z"/>
	<path class="st0" d="M21.4,17c-0.2,0.3-0.5,0.7-0.7,1.2c-0.1,0.2,0,0.5,0.2,0.6c0.1,0,0.1,0,0.2,0c0.2,0,0.3-0.1,0.4-0.3
		c0.2-0.4,0.4-0.8,0.6-1.1c0.1-0.2,0.1-0.5-0.1-0.6C21.9,16.7,21.6,16.8,21.4,17z"/>
	<path class="st0" d="M15.7,27.4c-0.4,0.1-0.8,0.2-1.2,0.3c-0.2,0-0.4,0.2-0.4,0.5c0,0.2,0.2,0.4,0.4,0.4c0,0,0,0,0,0
		c0.5-0.1,1-0.2,1.4-0.3c0.2-0.1,0.3-0.4,0.3-0.6C16.2,27.4,15.9,27.3,15.7,27.4z"/>
	<path class="st0" d="M18.4,25.4c-0.2-0.1-0.5-0.1-0.6,0.1c-0.1,0.1-0.1,0.2-0.2,0.3c-0.2,0.3-0.4,0.5-0.6,0.7
		c-0.2,0.2-0.2,0.5,0,0.6c0.1,0.1,0.2,0.1,0.3,0.1c0.1,0,0.2,0,0.3-0.1c0.3-0.2,0.5-0.5,0.7-0.8c0.1-0.1,0.1-0.2,0.2-0.3
		C18.7,25.8,18.6,25.6,18.4,25.4z"/>
	<path class="st0" d="M35.5,1.4L23.9,0c0,0,0,0-0.1,0c0,0,0,0-0.1,0L12.1,1.4L0.5,0C0.4,0,0.2,0,0.2,0.1S0,0.3,0,0.4v33.7
		c0,0.2,0.2,0.4,0.4,0.4L12.1,36c0,0,0,0,0.1,0s0,0,0.1,0l11.6-1.4L35.4,36c0,0,0,0,0.1,0c0.1,0,0.2,0,0.3-0.1
		c0.1-0.1,0.2-0.2,0.2-0.3V1.8C35.9,1.6,35.8,1.4,35.5,1.4z M11.7,27.5c-0.1,0-0.2,0-0.3,0.1c-0.2,0-0.4,0.3-0.4,0.5
		c0,0.2,0.2,0.4,0.4,0.4c0,0,0.1,0,0.1,0c0,0,0.1,0,0.1,0V35L0.9,33.8v-8.8h0c1-0.2,3.6-1.2,5.2-5.5c1.5-3.9,4.5-4.3,5.6-4.3V27.5z
		 M11.7,14.2c-1.3,0-4.8,0.6-6.4,4.9c-0.2,0.6-0.5,1.2-0.8,1.7c-0.1-0.3-0.2-0.6-0.3-0.9c-0.1-0.2-0.3-0.4-0.6-0.3
		c-0.2,0.1-0.4,0.3-0.3,0.6c0.1,0.4,0.3,0.8,0.4,1.3c0,0.1,0.1,0.2,0.2,0.2c-1.2,1.6-2.4,2.2-3.1,2.4v-7.5c0,0,0,0,0.1,0
		c0.1,0,0.1,0,0.2,0c0.2,0,0.4-0.1,0.4-0.3c0.1-0.2,0-0.5-0.3-0.6c-0.1,0-0.2-0.1-0.4-0.1V1l10.8,1.3V14.2z M23.4,33.8L12.6,35v-6.6
		c0,0,0.1,0,0.1,0c0,0,0.1,0,0.1,0c0.2,0,0.4-0.1,0.4-0.4c0-0.2-0.1-0.5-0.4-0.5c-0.1,0-0.2,0-0.3-0.1V15.1c1.1,0,4.1,0.5,5.6,4.3
		c1.6,4.3,4.2,5.3,5.2,5.5V33.8z M22.7,16.2c0.1,0.2,0.2,0.3,0.4,0.3c0.1,0,0.1,0,0.2,0c0,0,0,0,0.1,0V24c-0.7-0.2-1.9-0.8-3.1-2.4
		c0.1-0.1,0.1-0.1,0.2-0.2c0.1-0.4,0.3-0.8,0.4-1.3c0.1-0.2,0-0.5-0.3-0.6c-0.2-0.1-0.5,0-0.6,0.3c-0.1,0.3-0.2,0.6-0.3,0.9
		c-0.3-0.5-0.5-1-0.8-1.7c-1.6-4.3-5.1-4.9-6.4-4.9v-12L23.4,1v14.6h0c-0.1,0-0.2,0.1-0.4,0.1C22.8,15.8,22.6,16,22.7,16.2z M35,35
		l-10.8-1.3v-8.7c1.2,0.2,4.2,1.1,5.6,4.4c0.8,2,1.9,3.2,3.2,3.7c0.5,0.2,0.9,0.3,1.3,0.3c0.3,0,0.5,0,0.7-0.1V35z M35,8.4L35,8.4
		l-0.2,0c-0.2,0-0.4,0.2-0.4,0.5c0,0.2,0.2,0.4,0.4,0.4c0,0,0,0,0,0l0.2,0v23.2c-0.3,0.1-1,0.2-1.7-0.1c-1.1-0.4-2-1.5-2.7-3.2
		c-1.6-3.9-5.2-4.8-6.4-5v-7.9c0.1,0,0.2-0.1,0.3-0.1c0.2-0.1,0.4-0.3,0.3-0.6c-0.1-0.2-0.3-0.4-0.6-0.3c0,0,0,0,0,0V1L35,2.2V8.4z"
		/>
	<path class="st0" d="M26,15.5c0.1,0,0.1,0,0.2,0c0.4-0.2,0.8-0.4,1.1-0.6c0.2-0.1,0.3-0.4,0.1-0.6C27.3,14,27,14,26.8,14.1
		c-0.3,0.2-0.7,0.4-1,0.6c-0.2,0.1-0.3,0.4-0.2,0.6C25.6,15.5,25.8,15.5,26,15.5z"/>
	<path class="st0" d="M28.4,13.9c0.1,0,0.2,0,0.3-0.1c0.4-0.4,0.6-0.7,0.8-1.1c0.1-0.2,0-0.5-0.2-0.6c-0.2-0.1-0.5,0-0.6,0.2
		c-0.1,0.3-0.3,0.6-0.6,0.9c-0.2,0.2-0.2,0.5,0,0.6C28.1,13.9,28.2,13.9,28.4,13.9z"/>
	<path class="st0" d="M29.5,11.3c0.1,0,0.2,0.1,0.2,0.1c0.2,0,0.3-0.1,0.4-0.2c0.2-0.4,0.4-0.7,0.7-0.9c0.2-0.2,0.2-0.5,0-0.6
		c-0.2-0.2-0.5-0.2-0.6,0c-0.3,0.3-0.6,0.6-0.8,1.1C29.3,10.9,29.3,11.2,29.5,11.3z"/>
	<path class="st0" d="M31.9,9.6c0,0,0.1,0,0.1,0c0.3-0.1,0.7-0.2,1.1-0.2c0.2,0,0.4-0.2,0.4-0.5c0-0.2-0.2-0.4-0.5-0.4
		c-0.5,0.1-0.9,0.1-1.3,0.3c-0.2,0.1-0.4,0.3-0.3,0.6C31.6,9.5,31.7,9.6,31.9,9.6z"/>
	<path class="st0" d="M2.7,18.6c0.1,0.2,0.2,0.3,0.4,0.3c0.1,0,0.1,0,0.2,0c0.2-0.1,0.3-0.4,0.2-0.6c-0.2-0.5-0.5-0.9-0.7-1.2
		c-0.1-0.2-0.4-0.3-0.6-0.1C2,17,1.9,17.3,2.1,17.5C2.3,17.8,2.5,18.1,2.7,18.6z"/>
	<path class="st0" d="M5.7,24c-0.2-0.4-0.3-0.8-0.5-1.2c-0.1-0.2-0.3-0.4-0.6-0.3c-0.2,0.1-0.4,0.3-0.3,0.6c0.2,0.5,0.3,0.9,0.5,1.3
		c0.1,0.2,0.2,0.3,0.4,0.3c0.1,0,0.1,0,0.2,0C5.7,24.5,5.8,24.3,5.7,24z"/>
	<path class="st0" d="M6.7,25.8c-0.1-0.1-0.1-0.2-0.2-0.3c-0.1-0.2-0.4-0.3-0.6-0.1c-0.2,0.1-0.3,0.4-0.1,0.6
		c0.1,0.1,0.1,0.2,0.2,0.3c0.2,0.3,0.4,0.6,0.7,0.8c0.1,0.1,0.2,0.1,0.3,0.1c0.1,0,0.2,0,0.3-0.1c0.2-0.2,0.2-0.5,0-0.6
		C7,26.3,6.8,26.1,6.7,25.8z"/>
	<path class="st0" d="M8.2,28.2c0.4,0.2,0.9,0.3,1.4,0.3c0,0,0,0,0,0c0.2,0,0.4-0.2,0.4-0.4c0-0.2-0.2-0.5-0.4-0.5
		c-0.4,0-0.8-0.1-1.2-0.3c-0.2-0.1-0.5,0-0.6,0.3C7.9,27.9,8,28.1,8.2,28.2z"/>
	<path class="st0" d="M3.4,10.3c-0.2,0.2-0.2,0.5,0,0.6c0.2,0.2,0.5,0.2,0.6,0l1.3-1.4v4.7c0,0.2,0.2,0.4,0.4,0.4
		c0.2,0,0.4-0.2,0.4-0.4V9.5l1.3,1.4C7.7,11,7.8,11,7.9,11c0.1,0,0.2,0,0.3-0.1c0.2-0.2,0.2-0.5,0-0.6l-2-2V7.4l1.3,1.4
		c0.1,0.1,0.2,0.1,0.3,0.1c0.1,0,0.2,0,0.3-0.1c0.2-0.2,0.2-0.5,0-0.6l-2-2V5.5l1.3,1.4C7.7,6.9,7.8,7,7.9,7c0.1,0,0.2,0,0.3-0.1
		c0.2-0.2,0.2-0.5,0-0.6L6.1,4.1c0,0,0,0,0,0C6,4,5.9,3.9,5.8,3.9C5.7,3.9,5.6,4,5.5,4.1c0,0,0,0,0,0L3.4,6.2
		c-0.2,0.2-0.2,0.5,0,0.6C3.5,7,3.8,7,4,6.8l1.3-1.4v0.7l-2,2c-0.2,0.2-0.2,0.5,0,0.6c0.2,0.2,0.5,0.2,0.6,0l1.3-1.4v0.8L3.4,10.3z"
		/>
	<path class="st0" d="M27.9,21.3c-0.2,0.2-0.2,0.5,0,0.6c0.2,0.2,0.5,0.2,0.6,0l1.3-1.4v4.7c0,0.2,0.2,0.4,0.4,0.4s0.4-0.2,0.4-0.4
		v-4.7l1.3,1.4c0.1,0.1,0.2,0.1,0.3,0.1c0.1,0,0.2,0,0.3-0.1c0.2-0.2,0.2-0.5,0-0.6l-2-2v-0.8l1.3,1.4c0.1,0.1,0.2,0.1,0.3,0.1
		c0.1,0,0.2,0,0.3-0.1c0.2-0.2,0.2-0.5,0-0.6l-2-2v-0.7l1.3,1.4c0.1,0.1,0.2,0.1,0.3,0.1c0.1,0,0.2,0,0.3-0.1c0.2-0.2,0.2-0.5,0-0.6
		l-2.1-2.1c0,0,0,0,0,0c-0.1-0.1-0.2-0.1-0.3-0.1S30.1,15,30,15.1c0,0,0,0,0,0l-2.1,2.1c-0.2,0.2-0.2,0.5,0,0.6
		c0.2,0.2,0.5,0.2,0.6,0l1.3-1.4v0.7l-2,2c-0.2,0.2-0.2,0.5,0,0.6c0.2,0.2,0.5,0.2,0.6,0l1.3-1.4v0.8L27.9,21.3z"/>
</g>
</svg>
