<?xml version="1.0" encoding="utf-8"?>
<!-- Generator: Adobe Illustrator 22.0.1, SVG Export Plug-In . SVG Version: 6.00 Build 0)  -->
<svg version="1.1" id="Layer_1" xmlns="http://www.w3.org/2000/svg" xmlns:xlink="http://www.w3.org/1999/xlink" x="0px" y="0px"
	 viewBox="0 0 19.6 28" style="enable-background:new 0 0 19.6 28;" xml:space="preserve">
<style type="text/css">
	.st0{fill:#231E1C;}
</style>
<g>
	<path class="st0" d="M1.9,28h15.8c1,0,1.9-0.8,1.9-1.9V1.9c0-1-0.8-1.9-1.9-1.9H1.9C0.8,0,0,0.8,0,1.9v24.3C0,27.2,0.9,28,1.9,28z
		 M0.7,1.9c0-0.7,0.5-1.2,1.2-1.2h15.8c0.7,0,1.2,0.5,1.2,1.2v24.3c0,0.7-0.5,1.2-1.2,1.2H1.9c-0.7,0-1.2-0.5-1.2-1.2L0.7,1.9
		L0.7,1.9z"/>
	<path class="st0" d="M2,23.6h15.6c0.2,0,0.3-0.1,0.3-0.3V3.2c0-0.2-0.1-0.3-0.3-0.3H2C1.8,2.8,1.7,3,1.7,3.2v20.1
		C1.7,23.4,1.8,23.6,2,23.6z M2.4,3.5h14.9v19.4H2.4V3.5z"/>
	<path class="st0" d="M9.5,2.2c0.1,0.1,0.1,0.1,0.2,0.1c0.1,0,0.2,0,0.2-0.1c0,0,0.1-0.1,0.1-0.1c0,0,0-0.1,0-0.1c0-0.1,0-0.1,0-0.1
		s0-0.1-0.1-0.1C9.9,1.6,9.8,1.6,9.7,1.6c0,0,0,0-0.1,0c0,0,0,0-0.1,0l0,0c0,0-0.1,0.1-0.1,0.1s0,0.1,0,0.1s0,0.1,0,0.1
		C9.5,2.1,9.5,2.2,9.5,2.2z"/>
	<path class="st0" d="M9.8,24.2c-0.7,0-1.3,0.6-1.3,1.3c0,0.7,0.6,1.3,1.3,1.3c0.7,0,1.3-0.6,1.3-1.3C11.1,24.7,10.5,24.2,9.8,24.2z
		 M9.8,26c-0.3,0-0.6-0.2-0.6-0.6s0.2-0.6,0.6-0.6c0.3,0,0.6,0.2,0.6,0.6C10.4,25.8,10.1,26,9.8,26z"/>
</g>
</svg>
