<?xml version="1.0" encoding="utf-8"?>
<!-- Generator: Adobe Illustrator 22.0.1, SVG Export Plug-In . SVG Version: 6.00 Build 0)  -->
<svg version="1.1" id="Layer_1" xmlns="http://www.w3.org/2000/svg" xmlns:xlink="http://www.w3.org/1999/xlink" x="0px" y="0px"
	 viewBox="0 0 23.8 23.8" style="enable-background:new 0 0 23.8 23.8;" xml:space="preserve">
<title>LifeTrap</title>
<g>
	<path d="M22.5,0L11.9,0.2c-0.3,0-0.7,0.1-0.9,0.4L0.4,11.1c0,0,0,0,0,0c-0.5,0.5-0.5,1.3,0,1.9l10.4,10.4c0.2,0.2,0.6,0.4,0.9,0.4
		c0.3,0,0.7-0.1,0.9-0.4l10.6-10.6c0.2-0.2,0.4-0.5,0.4-0.9l0.2-10.6c0,0,0,0,0-0.1C23.8,0.6,23.2,0,22.5,0z M22.8,11.9
		c0,0.1-0.1,0.2-0.1,0.3L12.1,22.8c-0.2,0.2-0.5,0.2-0.7,0L1,12.4c0,0,0,0,0,0c-0.2-0.2-0.2-0.5,0-0.7L11.6,1.1
		C11.7,1,11.8,1,11.9,1l10.6-0.2c0.1,0,0.3,0.1,0.4,0.2C23,1.1,23,1.2,23,1.4L22.8,11.9z"/>
	<path d="M17.8,3.6c-0.7,0.7-0.7,1.7,0,2.4c0.7,0.7,1.7,0.7,2.4,0c0.7-0.7,0.7-1.7,0-2.4C19.6,3,18.5,3,17.8,3.6z"/>
	<path d="M4.8,11c-0.1-0.1-0.2-0.1-0.3,0L4,11.5c-0.1,0.1-0.1,0.2,0,0.3l7.9,7.9c0.1,0.1,0.2,0.1,0.3,0l0.5-0.5
		c0.1-0.1,0.1-0.2,0-0.3L4.8,11z"/>
	<path d="M8.1,7.8C8,7.7,7.8,7.7,7.7,7.8L7.3,8.3c-0.1,0.1-0.1,0.2,0,0.3l7.9,7.9c0.1,0.1,0.2,0.1,0.3,0l0.5-0.5
		c0.1-0.1,0.1-0.2,0-0.3L8.1,7.8z"/>
</g>
</svg>
