<?xml version="1.0" encoding="utf-8"?>
<!-- Generator: Adobe Illustrator 22.0.1, SVG Export Plug-In . SVG Version: 6.00 Build 0)  -->
<svg version="1.1" id="Layer_1" xmlns="http://www.w3.org/2000/svg" xmlns:xlink="http://www.w3.org/1999/xlink" x="0px" y="0px"
	 viewBox="0 0 31.1 31.1" style="enable-background:new 0 0 31.1 31.1;" xml:space="preserve">
<style type="text/css">
	.st0{fill:#4BACE1;}
	.st1{fill:#FFFFFF;}
</style>
<g>
	<path class="st0" d="M0,15.6C0,7,7,0,15.6,0c8.6,0,15.6,7,15.6,15.6c0,8.6-7,15.6-15.6,15.6C7,31.1,0,24.2,0,15.6z"/>
	<g id="Het1PX.tif">
		<g>
			<path class="st1" d="M23.9,9.5c0,0.4-0.2,0.8-0.2,1.3c-0.8,3.6-1.5,7.2-2.3,10.8c0,0.2-0.1,0.4-0.2,0.6c-0.2,0.3-0.4,0.4-0.8,0.3
				c-0.2,0-0.4-0.2-0.6-0.3c-1.2-0.9-2.3-1.7-3.5-2.6c-0.1-0.1-0.2-0.1-0.4,0c-0.6,0.6-1.1,1.1-1.7,1.7c-0.2,0.2-0.5,0.3-0.8,0.3
				c-0.2,0-0.4-0.1-0.4-0.3c-0.4-1.1-0.7-2.2-1.1-3.3c-0.1-0.4-0.3-0.8-0.4-1.1c0-0.1-0.1-0.2-0.2-0.2c-1.1-0.3-2.3-0.7-3.4-1.1
				c-0.1,0-0.3-0.1-0.4-0.2c-0.3-0.2-0.3-0.5-0.1-0.7c0.2-0.2,0.4-0.3,0.7-0.4c1.5-0.6,3.1-1.2,4.6-1.8c3.3-1.3,6.6-2.6,10-3.8
				c0,0,0.1,0,0.1,0C23.4,8.4,23.9,8.8,23.9,9.5z M13.5,20.6c0.1,0,0.1-0.1,0.1-0.1c0.1-0.8,0.2-1.6,0.2-2.4c0-0.2,0.1-0.4,0.2-0.5
				c2.2-1.9,4.3-3.9,6.5-5.8c0.1-0.1,0.3-0.2,0.4-0.4c0.1-0.1,0.1-0.1,0.1-0.2c0-0.1-0.1-0.1-0.2-0.1c-0.2,0-0.3,0.1-0.4,0.2
				c-2.7,1.7-5.3,3.4-8,5c-0.2,0.1-0.2,0.2-0.1,0.3c0.3,1,0.7,2,1,3C13.2,20,13.3,20.3,13.5,20.6z"/>
		</g>
	</g>
</g>
</svg>
