<?xml version="1.0" encoding="utf-8"?>
<!-- Generator: Adobe Illustrator 22.0.1, SVG Export Plug-In . SVG Version: 6.00 Build 0)  -->
<svg version="1.1" id="Layer_1" xmlns="http://www.w3.org/2000/svg" xmlns:xlink="http://www.w3.org/1999/xlink" x="0px" y="0px"
	 viewBox="0 0 31.6 31.6" style="enable-background:new 0 0 31.6 31.6;" xml:space="preserve">
<style type="text/css">
	.st0{fill:#7D529D;}
	.st1{fill:#F2F2F2;}
</style>
<g>
	<path class="st0" d="M0,15.8C0,7.1,7.1,0,15.8,0s15.8,7.1,15.8,15.8s-7.1,15.8-15.8,15.8S0,24.5,0,15.8z"/>
	<g>
		<g id="g4780">
			<g id="g15" transform="matrix(1.452588,0,0,1.452588,-115.17955,-97.147891)">
				<path id="path17-6" class="st1" d="M94.9,80.4c-0.4-0.3-0.7-0.5-1.1-0.8c-0.7-0.5-1.4-0.6-2,0.3c-0.3,0.5-0.7,0.5-1.2,0.3
					c-1.2-0.6-2.2-1.4-2.8-2.7c-0.2-0.6-0.2-1.1,0.3-1.5c0.3-0.2,0.6-0.5,0.6-0.9c0-0.6-1.5-2.6-2.1-2.8c-0.2-0.1-0.5-0.1-0.7,0
					c-1.3,0.5-1.9,1.6-1.4,2.9c1.6,3.9,4.4,6.6,8.2,8.3c0.2,0.1,0.5,0.1,0.6,0.2c0.9,0,1.9-0.8,2.2-1.7C96,81.1,95.4,80.8,94.9,80.4
					L94.9,80.4z"/>
				<path id="path19-1" class="st1" d="M90.6,72.5c2.8,0.4,4.1,1.8,4.5,4.6c0,0.3-0.1,0.7,0.3,0.7s0.3-0.4,0.3-0.6
					c0-2.7-2.3-5.1-5-5.2c-0.2,0-0.6-0.1-0.7,0.3C90,72.6,90.4,72.5,90.6,72.5L90.6,72.5z"/>
				<path id="path21-2" class="st1" d="M91.1,73.3c-0.3,0-0.6-0.2-0.7,0.2c-0.1,0.4,0.3,0.4,0.6,0.4c1.7,0.4,2.3,1,2.6,2.7
					c0,0.3,0,0.6,0.4,0.6c0.3,0,0.2-0.4,0.2-0.6C94.3,75,92.9,73.5,91.1,73.3L91.1,73.3z"/>
				<path id="path23" class="st1" d="M91.3,74.7c-0.2,0-0.4,0-0.4,0.2c-0.1,0.3,0.1,0.4,0.3,0.4c0.7,0.1,1.1,0.5,1.2,1.2
					c0,0.2,0.1,0.3,0.3,0.3c0.3,0,0.3-0.3,0.3-0.5C93,75.6,92.1,74.7,91.3,74.7L91.3,74.7z"/>
			</g>
		</g>
	</g>
</g>
</svg>
