<?xml version="1.0" encoding="utf-8"?>
<!-- Generator: Adobe Illustrator 22.0.1, SVG Export Plug-In . SVG Version: 6.00 Build 0)  -->
<svg version="1.1" id="Layer_1" xmlns="http://www.w3.org/2000/svg" xmlns:xlink="http://www.w3.org/1999/xlink" x="0px" y="0px"
	 viewBox="0 0 31 31" style="enable-background:new 0 0 31 31;" xml:space="preserve">
<style type="text/css">
	.st0{fill:#43B649;}
	.st1{fill:#F2F2F2;}
</style>
<g>
	<ellipse class="st0" cx="15.5" cy="15.5" rx="15.5" ry="15.5"/>
	<g>
		<path class="st1" d="M19.6,17.2c-0.2-0.1-1.3-0.7-1.4-0.8c-0.2-0.1-0.3-0.1-0.5,0.1c-0.2,0.2-0.6,0.7-0.7,0.8s-0.3,0.2-0.5,0
			c-0.2-0.1-0.9-0.4-1.7-1.1c-0.6-0.6-1-1.3-1.1-1.5s0-0.3,0.1-0.4c0.1-0.1,0.2-0.2,0.3-0.4c0.1-0.1,0.2-0.2,0.2-0.4
			c0.1-0.1,0-0.3,0-0.4c0-0.1-0.4-1.2-0.6-1.6c-0.2-0.4-0.3-0.4-0.5-0.4c-0.1,0-0.3,0-0.4,0s-0.4,0-0.6,0.2s-0.8,0.7-0.8,1.8
			s0.7,2.1,0.8,2.3c0.1,0.1,1.4,2.5,3.6,3.4c2.2,0.9,2.2,0.7,2.6,0.6c0.4,0,1.3-0.5,1.5-1s0.2-0.9,0.2-1
			C19.9,17.4,19.8,17.4,19.6,17.2L19.6,17.2z M15.6,22.4c-1.4,0-2.8-0.4-3.9-1.2L9,22.1l0.9-2.6c-0.8-1.2-1.3-2.6-1.3-4.1
			c0-3.9,3.2-7,7-7c3.9,0,7,3.2,7,7C22.7,19.2,19.5,22.4,15.6,22.4L15.6,22.4z M15.6,6.9c-4.7,0-8.5,3.8-8.5,8.5
			c0,1.6,0.4,3.1,1.2,4.4l-1.5,4.5l4.7-1.5c1.2,0.7,2.6,1.1,4.1,1.1c4.7,0,8.5-3.8,8.5-8.5C24.1,10.6,20.3,6.9,15.6,6.9L15.6,6.9z"
			/>
	</g>
</g>
</svg>
