<svg xmlns="http://www.w3.org/2000/svg" xmlns:xlink="http://www.w3.org/1999/xlink" width="361" height="92" viewBox="0 0 361 92"><defs><path id="ut6za" d="M539 348v-92h361v92zm358.02-2v-87.5h-12.5V296H822v-37.5h-12.5v50h75V346zm-134.03 0v-87.5h-87.5V346zm-75-37.5V271h62.5v12.5H713v25zm0 25V321h37.5v-25h25v37.5zM628.96 346v-87.5h-12.5V296h-62.5v-37.5h-12.51v50h75V346z"/><path id="ut6zb" d="M884.51 346v-37.5h-75v-50H822V296h62.5v-37.5h12.5V346zm-209.03 0v-87.5H763V346zm37.5-37.5v-25h37.51V271H688v37.5zm37.51 25V296h-25v25h-37.5v12.5zM616.47 346v-37.5h-75.01v-50h12.5V296h62.5v-37.5h12.5V346z"/><clipPath id="ut6zc"><use fill="#fff" xlink:href="#ut6za"/></clipPath></defs><g><g transform="translate(-539 -256)"><use fill="#fff" fill-opacity="0" stroke="#fff" stroke-miterlimit="50" stroke-width="4" clip-path="url(&quot;#ut6zc&quot;)" xlink:href="#ut6zb"/></g></g></svg>