<?xml version="1.0" encoding="utf-8"?>
<!-- Generator: Adobe Illustrator 22.0.1, SVG Export Plug-In . SVG Version: 6.00 Build 0)  -->
<svg version="1.1" id="Layer_1" xmlns="http://www.w3.org/2000/svg" xmlns:xlink="http://www.w3.org/1999/xlink" x="0px" y="0px"
	 viewBox="0 0 67 74.4" style="enable-background:new 0 0 67 74.4;" xml:space="preserve">
<style type="text/css">
	.st0{fill:#8AC630;}
	.st1{fill:#434C5C;}
</style>
<g>
	<path class="st0" d="M7.8,54.7L7.8,54.7c-1.4,0-2.6-1.2-2.6-2.6V40.6c0-1.4,1.2-2.6,2.6-2.6h0c1.4,0,2.6,1.2,2.6,2.6v11.5
		C10.4,53.5,9.3,54.7,7.8,54.7z"/>
	<path class="st0" d="M59.3,54.4L59.3,54.4c-1.4,0-2.6-1.2-2.6-2.6V40.3c0-1.4,1.2-2.6,2.6-2.6h0c1.4,0,2.6,1.2,2.6,2.6v11.5
		C61.9,53.2,60.7,54.4,59.3,54.4z"/>
	<circle class="st0" cx="41.8" cy="69.6" r="4.2"/>
	<g>
		<path class="st1" d="M41,59.2C41,59.2,41,59.3,41,59.2c0.1,0.1,0.1,0.1,0.1,0.1c0,0,0,0,0.1,0c0,0,0,0,0.1,0c0,0,0,0,0,0
			c0,0,0.1,0,0.1,0c0,0,0,0,0,0h0c0.1,0,0.2,0,0.3-0.1c0,0,0,0,0,0c0,0,0.1,0,0.1,0c0,0,0,0,0,0c0,0,0,0,0.1-0.1c0,0,0,0,0,0
			c0,0,0,0,0,0c0,0,0,0,0-0.1c0,0,0,0,0-0.1c0,0,0,0,0-0.1c0,0,0,0,0-0.1c0,0,0,0,0-0.1c0,0,0,0,0-0.1c0,0,0,0,0,0l0-5.4l3.6,0
			c1.8,0,3.3-1.5,3.3-3.3V36.9c0-1.8-1.5-3.3-3.3-3.3H21.3c-0.8,0-1.6,0.3-2.2,0.8C18.4,35.1,18,36,18,36.9v13.2
			c0,1.8,1.5,3.3,3.3,3.3h13.3L41,59.2C41,59.2,41,59.2,41,59.2z M40.7,52.7l0,4.5l-5.5-5c0,0,0,0,0,0c0,0,0,0,0,0c0,0,0,0-0.1,0
			c0,0,0,0,0,0c0,0-0.1,0-0.1,0c0,0,0,0,0,0c0,0-0.1,0-0.1,0c0,0,0,0,0,0H21.3c-1.1,0-1.9-0.9-1.9-1.9V36.9c0-0.5,0.2-1.1,0.7-1.4
			c0.4-0.3,0.8-0.5,1.3-0.5h24.4c1.1,0,1.9,0.9,1.9,1.9v13.2c0,1.1-0.9,1.9-1.9,1.9l-4.3,0C41,52,40.7,52.3,40.7,52.7z"/>
		<path class="st1" d="M62.3,39c-0.3-1-1.2-1.8-2.3-1.8V34c2-0.3,3.5-2,3.5-4.1c0-16.5-13.4-30-30-30C17,0,3.5,13.4,3.5,30
			C3.5,32,5.1,33.7,7,34v3.2c-1.1,0-2,0.8-2.3,1.8C1.9,40.2,0,43,0,46.1c0,3.1,1.9,5.9,4.7,7.1c0.3,1,1.3,1.8,2.4,1.8h1.2
			c1.4,0,2.5-1.1,2.5-2.5V39.8c0-1.4-1.1-2.5-2.5-2.5V34c2-0.3,3.5-2,3.5-4.1c0-11.9,9.7-21.7,21.7-21.7S55.2,18,55.2,30
			c0,2.1,1.5,3.8,3.5,4.1v3.2c-1.4,0-2.4,1.1-2.4,2.5v12.7c0,1.4,1.1,2.5,2.5,2.5h0.5v7.2l-13.1,5.1c-0.8-1.5-2.4-2.5-4.3-2.5
			c-2.7,0-4.9,2.2-4.9,4.9c0,2.7,2.2,4.9,4.9,4.9c2.7,0,4.9-2.2,4.9-4.9c0-0.4,0-0.8-0.1-1.1l13.6-5.2c0,0,0,0,0,0c0,0,0,0,0.1,0
			c0,0,0,0,0.1,0c0,0,0,0,0,0c0,0,0,0,0.1-0.1c0,0,0,0,0,0c0,0,0,0,0.1-0.1c0,0,0,0,0,0c0,0,0-0.1,0-0.1c0,0,0,0,0,0
			c0,0,0-0.1,0-0.1c0,0,0,0,0,0c0,0,0-0.1,0-0.1c0,0,0,0,0,0v-7.7c0.8-0.2,1.5-0.9,1.7-1.7c2.8-1.2,4.7-4,4.7-7.1
			C67,43,65.1,40.2,62.3,39z M4.6,51.6c-2-1.1-3.2-3.2-3.2-5.5s1.3-4.4,3.2-5.5V51.6z M41.8,73.1c-2,0-3.5-1.6-3.5-3.5
			s1.6-3.5,3.5-3.5c2,0,3.5,1.6,3.5,3.5S43.8,73.1,41.8,73.1z M9.5,39.8v12.7c0,0.7-0.5,1.2-1.2,1.2H7.1c-0.7,0-1.2-0.5-1.2-1.2
			V39.8c0-0.7,0.5-1.2,1.2-1.2h0.6c0,0,0,0,0,0c0,0,0,0,0,0h0.6C8.9,38.6,9.5,39.1,9.5,39.8z M56.5,30c0-12.7-10.3-23-23-23
			s-23,10.3-23,23c0,1.6-1.3,2.8-2.8,2.8c-1.5,0-2.8-1.3-2.8-2.8c0-15.8,12.8-28.6,28.6-28.6c15.8,0,28.6,12.8,28.6,28.6
			c0,1.6-1.3,2.8-2.8,2.8C57.8,32.8,56.5,31.5,56.5,30z M61.1,52.4c0,0.7-0.5,1.2-1.2,1.2h-1.2c-0.7,0-1.2-0.5-1.2-1.2V39.8
			c0-0.7,0.5-1.2,1.2-1.2h1.2c0.7,0,1.2,0.5,1.2,1.2V52.4z M62.4,51.6V40.6c2,1.1,3.2,3.2,3.2,5.5C65.7,48.4,64.4,50.5,62.4,51.6z"
			/>
	</g>
</g>
</svg>
