<?xml version="1.0" encoding="utf-8"?>
<!-- Generator: Adobe Illustrator 22.0.1, SVG Export Plug-In . SVG Version: 6.00 Build 0)  -->
<svg version="1.1" id="Layer_1" xmlns="http://www.w3.org/2000/svg" xmlns:xlink="http://www.w3.org/1999/xlink" x="0px" y="0px"
	 viewBox="0 0 67.6 62.1" style="enable-background:new 0 0 67.6 62.1;" xml:space="preserve">
<style type="text/css">
	.st0{fill:#8BC63F;}
	.st1{fill:#434D5D;}
</style>
<g>
	<path class="st0" d="M54.4,17V6.3c0-3.2,2.6-5.8,5.8-5.8h0.9c3.2,0,5.8,2.6,5.8,5.8V17"/>
	<g>
		<path class="st1" d="M9,62.1h37.2c5,0,9-3.9,9.1-8.9c0,0,0,0,0-0.1V17.4h12.3V6.9c0-3.8-3.1-6.9-6.9-6.9h-44
			c-3.6,0-6.5,2.9-6.6,6.5L9.8,47H0V53c0,4.9,3.8,8.9,8.6,9.1H9z M66.2,6.9v9.1H55.3V6.9c0.3-3,3.1-5.2,6.1-4.8
			C63.9,2.3,65.9,4.3,66.2,6.9z M11.5,6.5c0-2.8,2.3-5,5.1-5h39.8c-1.7,1.3-2.7,3.3-2.7,5.4v46.2c0,4.2-3.4,7.6-7.6,7.6
			s-7.6-3.4-7.6-7.6V47H11.2L11.5,6.5z M1.5,53.1v-4.7h35.8V53c0,3,1.5,5.9,4.1,7.5H9C4.9,60.5,1.5,57.2,1.5,53.1z"/>
		<rect x="20.6" y="9.3" class="st1" width="12.8" height="1.5"/>
	</g>
	<g>
		<path class="st1" d="M34.4,26.2c0,0,0-0.1,0-0.1C34.3,26.1,34.3,26.2,34.4,26.2C34.3,26.2,34.3,26.2,34.4,26.2z"/>
		<path class="st1" d="M21.8,32.6C21.8,32.6,21.8,32.6,21.8,32.6L21.8,32.6L21.8,32.6C21.8,32.6,21.8,32.6,21.8,32.6L21.8,32.6
			C21.8,32.6,21.8,32.6,21.8,32.6z"/>
		<path class="st1" d="M35.3,39.9c0.2,0,0.3-0.1,0.4-0.3c0.1-0.1,0.1-0.2,0-0.3c-0.1,0.2-0.3,0.2-0.4,0.3
			C35.3,39.7,35.3,39.8,35.3,39.9C35.3,39.9,35.3,39.9,35.3,39.9z"/>
		<path class="st1" d="M21.7,32.4L21.7,32.4l-0.1,0l0,0l-0.1,0l0,0l0,0l0.1,0c0,0,0,0,0.1,0L21.7,32.4l0,0.2c0,0,0,0,0,0l0,0
			C21.8,32.5,21.8,32.5,21.7,32.4L21.7,32.4z"/>
		<path class="st1" d="M36,34.3c0,0-0.1,0-0.1,0C35.9,34.3,36,34.3,36,34.3C36,34.3,36,34.3,36,34.3z"/>
		<path class="st1" d="M45.7,26.3c0-0.1-0.1-0.3-0.2-0.4c0.5-0.6,0.4-1,0.3-1.3c-0.1-0.2-0.2-0.3-0.5-0.4c0.3-0.5,0.3-1,0-1.3
			c-0.1-0.1-0.2-0.1-0.2-0.2c0.3-0.7,0.2-1.5-0.3-1.9c-0.1-0.1-0.2-0.1-0.3-0.2c0,0,0-0.1,0-0.1c0.1-1.1-0.1-1.7-0.7-2
			c-0.1,0-0.2-0.1-0.3-0.1c-0.4,0-0.7,0.2-0.9,0.6c-0.1,0.1-0.1,0.2-0.2,0.3c0,0,0-0.1,0-0.1l0.1-0.1L42,18.6
			c-0.3-0.5-0.8-0.6-1.1-0.7c-0.1,0-0.2-0.1-0.2-0.1c0,0,0,0,0-0.1c-0.1-0.2-0.4-0.5-0.9-0.7c-0.1,0-0.2,0-0.3,0
			c-0.6,0-1.1,0.4-1.4,0.7c0,0,0,0-0.1,0.1c-0.1,0.1-0.1,0.2-0.2,0.3c-0.1,0-0.1-0.1-0.2-0.1v0v-0.8h-0.3v-0.3h-0.8h-0.3h-0.8v0.2
			c-0.1-0.2-0.2-0.3-0.3-0.5c-0.2-0.2-0.5-0.5-0.9-0.6v-0.1v-0.3v-0.8h-0.4v-0.4H33h-0.3H32v0.4h-0.4v0.8v0.3v0.1
			c-0.4,0.1-0.8,0.4-1,0.6c-0.2,0.2-0.3,0.4-0.3,0.6h-0.1v-0.3h-0.8h-0.3h-0.8v0.3h-0.3V18v0c-0.1,0-0.2,0.1-0.2,0.1
			c0-0.1-0.1-0.2-0.2-0.3c0,0,0,0-0.1-0.1c-0.4-0.4-0.9-0.7-1.4-0.7c0,0,0,0,0,0c0,0,0,0,0,0c-0.1,0-0.2,0-0.3,0
			c-0.5,0.1-0.8,0.5-0.9,0.7c0,0,0,0.1-0.1,0.1c0,0,0,0,0,0c0,0-0.1,0-0.2,0c-0.3,0.1-0.8,0.2-1.1,0.7l-0.3,0.5c0,0,0,0,0,0
			c-0.3-0.4-0.6-0.6-0.9-0.6c-0.1,0-0.2,0-0.3,0c-0.9,0.3-0.8,1.5-0.7,1.9c0,0,0,0.1,0,0.1c-0.1,0-0.2,0.1-0.3,0.2
			c-0.5,0.4-0.6,1.3-0.3,1.9c-0.1,0.1-0.2,0.1-0.3,0.2c-0.3,0.3-0.3,0.8,0,1.3c-0.2,0.1-0.4,0.3-0.5,0.4c-0.2,0.4-0.1,0.9,0.3,1.3
			c-0.1,0.1-0.2,0.3-0.2,0.4c-0.1,0.2-0.1,0.7,0.3,1.2c-0.1,0.1-0.1,0.2-0.1,0.4c-0.1,0.4,0.1,0.8,0.6,1.1c0,0.1,0,0.2,0,0.3
			c0,0.4,0.2,0.8,0.7,1c0,0.1,0,0.2,0,0.3c0,0.1,0.1,0.2,0.2,0.4l-0.3,0.2L21,31.5l-1.2-0.4l0.1,0.4l-0.3,0l0.1,0.3l-0.2,0l0.3,0.5
			l-0.3,0.1l0.6,0.6l0,0l0.5,0.6c0,0,0,0,0.1,0.1V34l0.2,0l0,0h0.3c0,0,0.1,0.1,0.1,0.1l0,0.3l0.7,0c0.1,0,0.1,0,0.2,0
			c0.5,0.9,0.8,1.4,1,1.7c0,0.1,0.1,0.2,0.1,0.3c0,0,0,0,0,0.1c0,0.1,0.1,0.1,0.1,0.2c0,0.2,0.1,0.4,0.2,0.5
			c-0.1,0.1-0.1,0.3-0.1,0.5c0,0.3,0.2,0.8,0.6,1.1c0,0,0,0,0,0.1c0.2,0.4,0.6,0.7,1.3,0.8c0,0.1,0.1,0.2,0.2,0.4
			c0.1,0.1,0.2,0.2,0.3,0.2c0.1,0.1,0.1,0.1,0.2,0.2c0.2,0.3,0.5,0.5,0.9,0.5c0.1,0,0.1,0,0.2,0c0.1,0,0.2-0.1,0.3-0.1L27,41.8
			l1.4-0.3l0.1,0c0.2,0,0.3-0.1,0.4-0.1c0.1,0.1,0.3,0.2,0.5,0.2c0.2,0.1,0.4,0.1,0.6,0.1c0.2,0,0.4,0,0.6-0.1
			c0.2,0.2,0.5,0.3,0.8,0.4c0.3,0.5,0.8,0.8,1.5,0.8c0.6,0,1.1-0.3,1.4-0.8c0.3-0.1,0.6-0.2,0.8-0.4c0.2,0.1,0.4,0.1,0.6,0.1
			c0.2,0,0.4,0,0.5-0.1c0.2-0.1,0.4-0.2,0.5-0.3c0.1,0.1,0.3,0.1,0.4,0.1l0.1,0l1.4,0.3l-0.6-1.3L38,40.4c0,0,0-0.1,0.1-0.2
			c0.1-0.3,0.2-0.8-0.1-1.4c0.1-0.2,0.1-0.3,0.1-0.5c0.2,0.1,0.8,0.3,1.4,0.6c0.2,0.1,0.4,0.2,0.6,0.2c0.1,0,0.3,0,0.4-0.1
			c0.1,0,0.2-0.1,0.3-0.2c0.8-0.1,1.2-0.2,1.6-0.9c0-0.1,0.1-0.1,0.1-0.2c0.5-0.4,0.8-1.1,0.8-1.7c0-0.8-0.4-1.5-1-1.9v-0.1v-0.3
			v-0.8h-0.4v-0.2c0,0,0,0,0-0.1c0.1,0,0.1,0,0.2,0c0.4,0,0.8-0.2,1-0.5c0.1-0.2,0.2-0.4,0.2-0.6c0.5-0.1,0.8-0.5,0.9-0.9
			c0-0.1,0-0.2,0-0.3c0.5-0.2,0.7-0.6,0.7-1c0-0.1,0-0.2,0-0.3c0.5-0.3,0.6-0.8,0.6-1.1c0-0.1-0.1-0.3-0.1-0.4
			C45.8,27,45.8,26.6,45.7,26.3z M38.5,18.3C38.5,18.3,38.5,18.3,38.5,18.3c0.2-0.3,0.6-0.5,0.9-0.5c0,0,0.1,0,0.1,0
			c0.3,0.1,0.4,0.2,0.5,0.4c0.1,0.1,0.1,0.2,0.2,0.2c0.1,0.1,0.3,0.1,0.4,0.2c0.3,0.1,0.5,0.1,0.7,0.4l0,0c0,0,0,0.1,0.1,0.1
			c0.1,0.2,0,0.5-0.2,0.7c-0.1,0.1-0.3,0.3-0.3,0.5c0,0,0,0.1,0,0.1c0,0,0.1,0.1,0.1,0.1c0.1,0,0.1,0,0.2-0.1
			c0.1-0.1,0.2-0.2,0.3-0.2c0,0,0.1,0,0.1,0c0,0,0,0,0.1,0.1c-0.1,0.1-0.1,0.2-0.2,0.4c0,0,0,0,0,0c0,0,0,0,0,0c0,0,0,0,0,0
			c0,0,0,0,0,0c-0.1,0.1-0.1,0.2-0.2,0.3c-0.1,0.1-0.2,0.2-0.4,0.2c0,0,0,0,0,0c-0.1,0-0.2,0-0.2-0.1c0.1,0.2,0.2,0.4,0.1,0.6
			c0,0,0,0-0.1,0.1c-0.2,0-0.4,0.1-0.6,0.3l0,0c0.3-0.4,0.2-0.5,0.1-0.8c-0.1-0.1-0.2-0.2-0.2-0.4c-0.1-0.4,0.3-1.1,0.5-1.3
			c0.1-0.1,0.2-0.3,0.2-0.3c0,0-0.1-0.1-0.1-0.1c-0.1,0-0.2,0.1-0.3,0.1c0,0-0.1,0-0.1,0c-0.2-0.1-0.4-0.2-0.5-0.4
			c-0.1-0.1-0.1-0.1-0.2-0.1c-0.1,0.2-0.1,0.4,0,0.6c0,0.1,0.1,0.2,0.1,0.3c0.1,0.5,0,0.9-0.2,1.1c-0.1,0.1-0.1,0.1-0.2,0.2
			c-0.1,0-0.2-0.1-0.3-0.1c0,0-0.1-0.1-0.1-0.1c0,0,0.1-0.1,0.1-0.1c0.1-0.2,0.1-0.6-0.1-1c0-0.1-0.1-0.2-0.1-0.2
			c0-0.1,0-0.3-0.1-0.4C38.3,18.6,38.4,18.4,38.5,18.3z M34.7,21.5c-0.3-0.1-0.5-0.3-0.7-0.6l0.1-0.1c0.2,0.1,0.4,0.1,0.6,0.1V21.5z
			 M33.3,21.3C33.3,21.3,33.3,21.3,33.3,21.3l0.1,0.4c-0.1,0-0.2,0.1-0.3,0.1l-0.3,0.1l-0.3-0.1c-0.1,0-0.2-0.1-0.3-0.1l0.1-0.4
			c0,0,0,0,0,0l0.3-0.5l-0.3-0.3c0.2,0,0.3,0,0.5,0c0.2,0,0.3,0,0.5,0l-0.3,0.3L33.3,21.3z M31,20.9c0.2,0,0.5,0,0.6-0.1l0.1,0.1
			c-0.2,0.3-0.4,0.5-0.7,0.6V20.9z M37.6,19c0,0.1,0,0.2,0.1,0.3c0,0.2-0.2,0.4-0.3,0.6c0,0.1-0.1,0.1-0.1,0.2l-0.1,0
			c-0.4,0-0.8,0-1.1,0.1c-0.2,0-0.5,0-0.7,0c0-0.1-0.1-0.2-0.2-0.3c-0.1-0.2-0.3-0.4-0.3-0.6c0-0.1,0.1-0.1,0.1-0.2
			c0-0.1,0.1-0.1,0.1-0.2h0.2c0.2,0.3,0.5,0.6,0.9,0.6c0.4,0,0.8-0.2,0.9-0.6h0.2v-0.1c0,0,0,0,0.1,0C37.6,18.9,37.6,19,37.6,19z
			 M36.2,17.7h0.3V18h0c-0.1,0-0.1,0-0.2,0c-0.1,0-0.2,0-0.3,0h0.1V17.7z M31.2,17.1c0.1-0.2,0.4-0.3,0.8-0.4c0,0,0.1,0,0.1,0
			c0.2,0,0.5,0.1,0.7,0.2v-0.2c-0.1-0.1-0.1-0.2-0.1-0.3c0-0.1,0.1-0.2,0.2-0.3v-0.1c-0.1,0-0.2-0.1-0.3-0.3h-0.1v-0.3h0.1
			c0-0.1,0.1-0.2,0.3-0.3v-0.2H33v0.2c0.1,0,0.2,0.1,0.3,0.3h0.1v0.3h-0.1c0,0.1-0.1,0.2-0.3,0.3v0.1c0.1,0.1,0.2,0.2,0.2,0.3
			c0,0.1,0,0.2-0.1,0.2v0.2c0.2-0.1,0.4-0.2,0.6-0.2c0,0,0.1,0,0.1,0c0.4,0,0.6,0.2,0.8,0.4c0.3,0.4,0.3,0.8,0.1,1.1
			c0,0-0.1,0.1-0.1,0.1c-0.3,0.3-0.4,0.5-0.4,0.8c0,0.1-0.1,0.1-0.1,0.2l0,0v0.6l-0.1,0c-0.4-0.1-0.8-0.2-1.2-0.2
			c-0.4,0-0.8,0.1-1.2,0.2l-0.1,0v-0.6l0,0c0-0.1-0.1-0.3-0.2-0.4c-0.1-0.2-0.2-0.4-0.4-0.6C30.9,18,30.8,17.6,31.2,17.1z
			 M29.2,17.7h0.3V18h0.1c-0.1,0-0.2,0-0.3,0c-0.1,0-0.1,0-0.2,0h0V17.7z M28.2,18.8L28.2,18.8l0.3,0.1c0.2,0.3,0.5,0.6,0.9,0.6
			c0.4,0,0.8-0.2,0.9-0.6h0.2v-0.1c0,0,0,0,0,0c0.1,0.1,0.1,0.2,0.2,0.3c0,0,0,0.1,0.1,0.1c0,0.2-0.1,0.5-0.3,0.7
			c-0.1,0.1-0.1,0.2-0.2,0.3c-0.2,0-0.5,0-0.7,0c-0.4,0-0.8-0.1-1.2-0.1c0-0.1-0.1-0.1-0.1-0.2c-0.1-0.2-0.3-0.4-0.3-0.6
			c0-0.1,0.1-0.2,0.1-0.3C28,19,28.1,18.9,28.2,18.8C28.1,18.9,28.2,18.8,28.2,18.8z M24.2,20.1c0.1,0,0.2,0.1,0.3,0.2
			c0.1,0.1,0.1,0.1,0.2,0.1c0,0,0.1,0,0.1-0.1c0,0,0-0.1,0-0.1c0-0.2-0.2-0.4-0.3-0.5c-0.2-0.2-0.3-0.5-0.2-0.7c0,0,0-0.1,0.1-0.1
			l0,0c0.2-0.3,0.4-0.3,0.7-0.4c0.1,0,0.3-0.1,0.4-0.2c0.1-0.1,0.2-0.1,0.2-0.2c0.1-0.2,0.2-0.3,0.5-0.4c0,0,0.1,0,0.1,0
			c0.3,0,0.7,0.2,0.9,0.5c0,0,0,0,0,0c0.1,0.1,0.1,0.3,0.1,0.5c0,0.1-0.1,0.2-0.1,0.3c0,0.1-0.1,0.2-0.1,0.3c-0.2,0.5-0.2,0.8-0.1,1
			c0,0,0.1,0.1,0.1,0.1c0,0,0,0-0.1,0.1c-0.1,0-0.2,0.1-0.3,0.1c-0.1,0-0.2-0.1-0.2-0.2c-0.2-0.2-0.3-0.6-0.2-1.1
			c0-0.1,0.1-0.2,0.1-0.3c0.1-0.2,0.2-0.4,0-0.6c-0.1,0-0.1,0.1-0.2,0.1C26.1,18.8,26,19,25.8,19c0,0-0.1,0-0.1,0
			c-0.1,0-0.2,0-0.3-0.1c-0.1,0-0.1,0.1-0.1,0.1c0,0.1,0,0.2,0.2,0.3c0.2,0.2,0.6,0.9,0.5,1.3c-0.1,0.2-0.1,0.3-0.2,0.4
			c-0.2,0.2-0.3,0.4,0.1,0.8l0,0c-0.2-0.2-0.4-0.3-0.6-0.3c0,0,0,0,0-0.1c-0.1-0.2,0-0.4,0.1-0.6C25,21,25,21.1,24.9,21.1
			c0,0,0,0,0,0c-0.1,0-0.2-0.1-0.3-0.1c-0.1-0.2-0.2-0.4-0.3-0.6c0-0.1-0.1-0.2-0.1-0.2C24.1,20.2,24.1,20.1,24.2,20.1
			C24.1,20.1,24.2,20.1,24.2,20.1z M23.5,19.2C23.5,19.2,23.5,19.2,23.5,19.2C23.5,19.2,23.5,19.2,23.5,19.2L23.5,19.2z M43.9,26.2
			c0.1,0,0.1,0,0.2,0c0.5,0,0.8,0.1,0.9,0.3c0.1,0.2-0.1,0.4-0.5,0.7c-0.1,0.1-0.3,0.1-0.6,0.2c0.5,0.1,0.8,0.3,0.8,0.5
			c0,0.2-0.1,0.4-0.5,0.5c-0.2,0.1-0.5,0.1-0.8,0.1c0,0-0.1,0-0.1,0c0,0,0,0,0,0c0.5,0.1,0.8,0.4,0.8,0.7c0,0.2-0.2,0.4-0.6,0.4
			c-0.1,0-0.1,0-0.2,0c-0.2,0-0.4,0-0.7-0.1c0,0,0,0,0,0c0.5,0.2,0.7,0.6,0.7,0.8c0,0.2-0.3,0.3-0.7,0.3c-0.2,0-0.5-0.1-0.8-0.3
			c0.1,0.1,0.1,0.1,0.2,0.2c0.4,0.4,0.5,0.8,0.3,1c-0.1,0.1-0.2,0.2-0.4,0.2c-0.1,0-0.2,0-0.4-0.1c-0.2-0.1-0.4-0.2-0.7-0.5
			c0.2,0.4,0.3,0.7,0.1,0.9c-0.1,0.1-0.2,0.1-0.3,0.1c-0.1,0-0.2,0-0.4-0.1c-0.2-0.1-0.4-0.3-0.7-0.5c0.2,0.4,0.2,0.7,0.1,0.9
			c-0.1,0.1-0.2,0.1-0.3,0.1c-0.1,0-0.3,0-0.4-0.1c-0.2-0.1-0.4-0.3-0.6-0.5c0.1,0.3,0,0.6-0.2,0.7c-0.1,0.1-0.1,0.1-0.2,0.1
			c-0.1,0-0.3-0.1-0.4-0.2c-0.1-0.1-0.2-0.2-0.3-0.3c0,0.2,0,0.4-0.1,0.4c-0.1,0-0.1,0.1-0.2,0.1c-0.1,0-0.3-0.1-0.4-0.2l-0.1-0.1
			c-0.3-0.3-0.7-0.6-0.9-1.5c0,0,0-0.1,0-0.1c0,0-0.1-0.1-0.1-0.2v1.4c0,0,0.1,0,0.1,0c0.1,0,0.1,0,0.2,0c0.2,0,0.4,0.2,0.5,0.4
			c0.2,0.2,0.4,0.5,1.1,0.5l0,0.1c0.2,0.1,0.4,0.2,0.5,0.4c0.2,0.3,0.2,0.7,0.2,1c0,0.4,0,0.7,0.3,0.8l0.1,0l0,0.1
			c-0.1,0.1-0.3,0.2-0.4,0.2c0,0,0,0,0,0c-0.1,0-0.2-0.1-0.3-0.2c0,0,0-0.1,0-0.1c0,0.3,0,0.5,0.2,0.8l0.1,0.1l-0.1,0c0,0,0,0-0.1,0
			c-0.2,0-0.4-0.1-0.5-0.2c0,0,0-0.1-0.1-0.1c0,0.1,0,0.2-0.1,0.2l-0.1,0l0-0.1c0-0.1-0.1-0.2-0.1-0.2c0,0-0.1-0.1-0.1-0.1
			c0,0,0,0.1,0,0.1c0,0.1,0,0.2,0.1,0.3c0.1,0.2,0.5,0.2,1,0.3c0.3,0,0.7,0.1,1.2,0.2c0,0,0,0,0,0c0,0,0.1-0.1,0.1-0.2
			c0-0.1,0.1-0.3,0.2-0.4c0-0.1-0.1-0.3-0.1-0.5c0-0.8,0.6-1.5,1.4-1.6v-0.4h-0.4v-0.3h0.4v-0.4h0.3v0.4h0.4v0.3h-0.4v0.4
			c0.8,0.1,1.4,0.8,1.4,1.6c0,0.6-0.3,1-0.7,1.3c0,0.1,0,0.2-0.1,0.3c-0.2,0.4-0.4,0.4-1.3,0.5l-0.1,0c0,0.1-0.1,0.2-0.1,0.2
			c0,0-0.1,0-0.1,0c-0.1,0-0.2,0-0.3-0.1c-0.5-0.2-1.5-0.7-1.8-0.7c-0.4,0-1-0.1-1.4-0.1c-0.4,0-0.8-0.1-0.9-0.1
			c-0.1,0-0.2,0-0.3-0.1c0-0.1-0.1-0.2,0.1-0.4v-0.4c-0.1,0-0.2,0.1-0.3,0.1c-0.2,0-0.4-0.1-0.5-0.3l-0.1-0.1l0.1,0c0,0,0,0,0.1,0
			c0.2,0,0.3,0,0.4-0.1c0.1-0.1,0.1-0.3,0.1-0.5c0-0.2-0.1-0.3-0.2-0.4c-0.1-0.1-0.3-0.1-0.5-0.1c-0.1,0-0.2,0-0.3,0l-0.1,0
			c0,0.1-0.1,0.3-0.1,0.4c-0.4,0.8-0.3,0.9,0,1.1c0.1,0,0.1,0.1,0.2,0.1c0.3,0.1,0.4,0.2,0.5,0.7c0.3,0.2,0.6,0.3,0.8,0.5
			c0.1,0.1,0.4,0.4,0.8,0.4c0,0,0.1,0,0.1,0c0.1,0,0.3-0.1,0.3-0.3c0-0.1,0-0.1,0-0.2l-0.1-0.1l0.1,0c0.3,0,0.4,0.4,0.4,0.8
			c0,0.3-0.1,0.5-0.3,0.6c0.5,0.4,0.4,0.9,0.3,1.3c0,0.2-0.1,0.5,0,0.7l0.1,0.1l-0.1,0c-0.4-0.1-0.5-0.5-0.5-0.8c0,0,0,0,0-0.1
			c0,0.5-0.2,0.8-0.7,1c-0.1,0-0.2,0-0.3,0c-0.2,0-0.4-0.1-0.6-0.2c0,0-0.1,0-0.1,0c-0.3,0.3-0.8,0.5-1.2,0.6c0,0.1,0,0.2-0.1,0.2
			c-0.1,0.3-0.4,0.4-0.8,0.4c-0.4,0-0.7-0.2-0.8-0.4c0-0.1-0.1-0.2-0.1-0.2c-0.4,0-0.9-0.2-1.2-0.5c0,0,0,0,0,0c0,0-0.1,0-0.1,0
			C30.4,40.9,30.2,41,30,41c-0.1,0-0.2,0-0.3,0c-0.5-0.2-0.7-0.5-0.7-1c0,0,0,0,0,0.1c0,0.3-0.1,0.7-0.5,0.8l-0.1,0l0.1-0.1
			c0.1-0.2,0-0.4,0-0.7c-0.1-0.4-0.2-0.8,0.3-1.3c-0.2-0.1-0.3-0.3-0.3-0.6c0-0.3,0-0.5,0.2-0.7c-0.4,0.1-0.9,0.2-1.1,0.4
			c-0.1,0.1-0.2,0.1-0.3,0.2c-0.1,0.1-0.2,0.1-0.3,0.2c0,0-0.1,0.1-0.1,0.1c0.1,0.2,0.1,0.3,0.1,0.4c0,0,0,0,0,0
			c0.1,0,0.1,0,0.2,0.1c0,0.1,0,0.1,0,0.2c0,0,0.1,0,0.1,0.1c0,0,0,0.1,0,0.1c0,0,0,0,0,0c0.1,0.1,0.2,0.1,0.2,0.3
			c0,0.2-0.1,0.4-0.3,0.4c0,0,0,0-0.1,0c-0.2,0-0.3-0.1-0.4-0.3c-0.1,0-0.1,0-0.2-0.1c0,0,0-0.1,0-0.1c0,0,0,0,0,0
			c-0.1,0-0.1,0-0.2-0.1c0-0.1,0-0.2,0-0.3c-0.1-0.1-0.2-0.2-0.4-0.4c0,0,0,0,0,0c-0.5-0.1-0.9-0.2-1-0.4c0-0.1,0-0.1,0-0.2l0-0.1
			l0.1,0c0.2,0.1,0.3,0.2,0.5,0.2c-0.1-0.1-0.1-0.1-0.2-0.2c0,0,0,0,0,0c-0.3,0-0.6-0.1-0.7-0.1c-0.1-0.1-0.2-0.3-0.2-0.4
			c0-0.2,0.2-0.3,0.4-0.4c0,0,0.1,0,0.1,0c0-0.1,0-0.1,0-0.2c-0.1,0-0.2,0-0.3-0.1c0,0,0-0.1,0-0.1c-0.1-0.1-0.2-0.2-0.2-0.4
			c0,0,0-0.1,0-0.1c0,0-0.1,0-0.1-0.1c0,0,0-0.1,0-0.2c0,0-0.1,0-0.1-0.1c0-0.1,0-0.1,0-0.2c-0.2-0.2-0.6-0.7-1.1-1.7
			c-0.1-0.2-0.1-0.3-0.2-0.4c0,0,0,0-0.1,0c0,0,0,0,0,0c-0.1,0-0.3-0.1-0.3-0.2c0,0.1-0.1,0.1-0.1,0.1c0,0,0,0,0,0c0,0-0.1,0-0.2,0
			l0,0c-0.1,0-0.2-0.1-0.2-0.1c0,0,0-0.1,0-0.1l-0.1-0.1l0.1,0c0,0,0-0.1,0-0.1l0.1,0l0,0h0l0-0.1c0,0,0,0,0.1,0l0-0.1l0,0
			c0,0,0,0-0.1,0l-0.1,0l0,0c0,0-0.1,0-0.1,0l0,0c0,0,0,0,0,0c0,0,0,0,0,0l0,0c0,0-0.1,0-0.1,0l0-0.1l0,0c0,0,0,0,0,0l0,0
			c0,0,0,0,0,0c0,0,0,0,0,0v0c0,0-0.1,0-0.1-0.1c0,0-0.1,0-0.1-0.1l0,0c0,0-0.1,0-0.1,0l0,0c0,0,0,0,0,0c0,0-0.1-0.1-0.1-0.1l0-0.1
			l-0.1-0.1l0.1,0l-0.1-0.2l0,0l-0.1-0.2l0,0l-0.1-0.2l0.5,0.2l0,0l0-0.1l0,0l0,0l0.3-0.2l0.1,0.1l0,0l0.1,0l0-0.1l0,0l0-0.1
			l0.3-0.2l0,0l0.1,0l0.1,0l0,0l0.1-0.5l0.2,0.1l0,0l0.1,0.1l0,0l0.1,0.2l0,0l0.1,0.2l0,0l0,0l0-0.1l0.1,0.2l0,0c0,0,0,0,0,0.1
			c0,0,0,0,0,0l0.1,0c0,0,0,0.1,0,0.1c0,0,0,0.1,0,0.1l0,0c0,0,0,0,0,0c0,0,0,0,0,0l0,0c0,0,0,0,0,0l0,0l0.1,0c0,0,0,0-0.1,0.1v0
			c0,0-0.1,0.1-0.1,0.1l0,0c0,0,0,0.1-0.1,0.1l0,0l0.1,0c0,0,0,0,0,0l0.1,0l0,0l0-0.1c0,0,0.1,0,0.1,0l0,0.1l0,0c0,0,0,0,0.1,0.1
			l0,0l0,0.1c0,0,0,0.1,0,0.2c0,0.1-0.1,0.1-0.1,0.1l0,0c0,0-0.1,0-0.2,0c0.1,0.1,0.1,0.3,0,0.4c0.1,0.1,0.2,0.2,0.3,0.3l0.2,0.3
			c0.6,0.8,0.9,1.2,1,1.5c0,0,0,0,0,0c0.1,0,0.2,0,0.2,0.1c0,0,0,0.1,0,0.1c0.1,0,0.1,0,0.1,0.1c0,0,0,0.1,0,0.1
			c0.1,0,0.1,0,0.2,0.1c0.1,0.1,0.2,0.2,0.2,0.3c0,0,0,0,0,0c0,0,0.1,0,0.1,0.1c0.1,0.1,0.1,0.2,0,0.3c0.1,0,0.1,0.1,0.2,0.1
			c0.1-0.1,0.1-0.1,0.2-0.2c0.1-0.1,0.2-0.1,0.3-0.1c0,0,0,0,0,0c0.2,0,0.3,0.2,0.4,0.4c0.1,0.2,0.2,0.3,0.3,0.3c0,0,0,0,0,0
			c0.8-0.1,1.4-0.3,2-0.7c0-0.1,0-0.2-0.1-0.3c0,0,0,0,0,0c-0.1,0.1-0.1,0.2-0.1,0.2l0,0.1l-0.1,0c-0.1,0-0.1-0.1-0.1-0.2
			c0,0,0,0.1-0.1,0.1c-0.1,0.1-0.3,0.2-0.5,0.2c0,0,0,0-0.1,0l-0.1,0l0.1-0.1c0.2-0.2,0.2-0.4,0.2-0.8c0,0,0,0.1,0,0.1
			c-0.1,0.1-0.2,0.2-0.3,0.2c0,0,0,0,0,0c-0.2,0-0.3-0.1-0.4-0.2l0-0.1l0.1,0c0.3-0.1,0.3-0.4,0.3-0.8c0-0.3,0-0.7,0.2-1
			c0.1-0.2,0.3-0.3,0.5-0.4l0-0.1c0.6,0,0.9-0.3,1.1-0.5c0.1-0.2,0.3-0.3,0.5-0.4c0.1,0,0.1,0,0.2,0c0,0,0,0,0,0v-1.2c0,0,0,0,0,0
			c0,0,0,0,0,0.1c-0.2,0.9-0.6,1.3-0.9,1.5c0,0-0.1,0-0.1,0.1c-0.1,0.1-0.3,0.2-0.4,0.2c-0.1,0-0.2,0-0.2-0.1
			c-0.1,0-0.2-0.2-0.1-0.4c-0.1,0.1-0.2,0.2-0.3,0.3c-0.1,0.1-0.3,0.2-0.4,0.2c-0.1,0-0.1,0-0.2-0.1c-0.1-0.1-0.2-0.4-0.2-0.7
			c-0.2,0.2-0.4,0.4-0.6,0.5c-0.1,0.1-0.3,0.1-0.4,0.1c-0.1,0-0.2,0-0.3-0.1c-0.2-0.2-0.1-0.5,0.1-0.9c-0.3,0.3-0.5,0.5-0.7,0.5
			c-0.1,0.1-0.3,0.1-0.4,0.1c-0.1,0-0.2,0-0.3-0.1c-0.2-0.2-0.1-0.6,0.2-1c-0.3,0.3-0.6,0.4-0.8,0.5c-0.1,0-0.2,0.1-0.3,0.1
			c-0.1,0-0.3-0.1-0.3-0.2c-0.2-0.2,0-0.6,0.3-1c0.1-0.1,0.1-0.2,0.2-0.2c-0.3,0.2-0.6,0.3-0.9,0.3c-0.4,0-0.6-0.1-0.7-0.3
			c-0.1-0.3,0.2-0.6,0.7-0.8c0,0,0,0,0,0c-0.2,0.1-0.5,0.1-0.6,0.1c-0.1,0-0.1,0-0.2,0c-0.4-0.1-0.6-0.2-0.6-0.4
			c0-0.3,0.3-0.6,0.8-0.7c0,0,0,0,0,0c0,0-0.1,0-0.1,0c-0.4,0-0.7,0-0.8-0.1c-0.3-0.1-0.5-0.3-0.5-0.5c0-0.3,0.4-0.5,0.9-0.5
			c-0.3-0.1-0.5-0.1-0.6-0.2c-0.5-0.3-0.5-0.6-0.5-0.7c0.1-0.2,0.4-0.3,0.9-0.3c0.1,0,0.1,0,0.2,0c0.1,0,0.2,0,0.3,0
			c-0.4-0.2-0.7-0.4-1.1-0.7c-0.3-0.3-0.4-0.5-0.4-0.7c0.1-0.1,0.2-0.2,0.4-0.2c0.2,0,0.5,0,0.7,0.1c0.2,0.1,0.4,0.1,0.5,0.2
			c-0.4-0.3-0.7-0.6-1-1c-0.3-0.3-0.3-0.6-0.2-0.7c0-0.1,0.1-0.1,0.2-0.1c0.2,0,0.6,0.2,0.9,0.3c0,0,0.1,0,0.1,0.1
			c-0.3-0.3-0.6-0.7-0.8-1.2c-0.2-0.4-0.2-1,0-1.2c0,0,0.1-0.1,0.2-0.1c0.1,0,0.2,0,0.3,0.2c0.3,0.2,0.5,0.5,0.7,0.7
			c-0.3-0.5-0.5-1.1-0.6-1.7c0-0.3-0.1-1.1,0.2-1.2c0,0,0,0,0.1,0c0.1,0,0.3,0.2,0.3,0.3c0.2,0.3,0.4,0.6,0.5,0.8
			c0,0.2,0,0.4,0.1,0.6c0,0.1,0.1,0.4,0.1,0.6c0,0.2,0.1,0.6,0.6,0.7l0,0l0.1,0l0.4,0.1l0,0c0.1,0.1,0.1,0.2,0.2,0.2
			c0,0,0.1-0.1,0.1-0.1c0.2,0.1,0.4,0.2,0.5,0.3l0,0c0,0,0,0.1,0.1,0.1c0.2,0.4,0.4,0.7,0.6,1c0,0,0,0,0.1,0c0,0,0,0,0,0
			c0.1,0,0.1,0,0.2,0.1c0.3,0.2,0.5,0.4,0.6,0.6c0.3,0.3,0.7,0.6,1,0.9c0.3,0.3,0.5,0.6,0.4,0.9c0,0.2-0.2,0.4-0.4,0.6
			c-0.3,0.3-0.4,0.6-0.3,0.9c0.1,0.3,0.4,0.4,0.8,0.4c0,0,0,0,0.1,0c0.3,0,0.7-0.1,1-0.5c-0.1,0-0.2-0.1-0.4-0.3
			c-0.2-0.2-0.3-0.6-0.2-0.8l0-0.1l0.1,0.1c0.1,0.2,0.4,0.2,0.7,0.2c0.1,0,0.2,0,0.3,0c-0.1,0-0.1,0-0.2-0.1l-0.1-0.1l0.1,0
			c0.1,0,0.3-0.1,0.4-0.1c0,0-0.1,0-0.1,0c-0.2,0-0.4-0.2-0.4-0.5l0.1-0.1c0.1,0.1,0.2,0.2,0.3,0.2c0,0,0,0,0,0
			c0.2,0,0.3-0.1,0.5-0.4c0.4-0.6,0.2-1,0-1.5c0-0.1-0.1-0.2-0.1-0.3l-0.1,0c-0.2-0.3-0.3-0.4-0.5-0.5c-0.1,0-0.1-0.1-0.2-0.1
			c0,0.1-0.2,0.1-0.3,0.1c-0.1,0-0.3,0-0.5-0.1c-0.1,0-0.2,0-0.3,0c-0.2,0-0.3,0-0.4,0.1c-0.1,0.1-0.2,0.3-0.1,0.5l0,0.1l-0.1,0
			c0,0,0,0,0,0c0,0-0.3-0.1-0.3-0.5c0-0.2,0.1-0.4,0.3-0.5c0,0,0,0,0,0c-0.1,0.1-0.2,0.1-0.3,0.2l-0.1,0c-0.3,0.2-0.5,0.3-0.7,0.3
			c-0.1,0-0.2,0-0.2,0c-0.2-0.1-0.4-0.3-0.6-0.7l0.1-0.1c0.2,0.2,0.4,0.2,0.6,0.2c0.2,0,0.3,0,0.5-0.1c0.2-0.1,0.5-0.2,0.7-0.2
			c0.1,0,0.3,0,0.4,0.1c-0.1-0.1-0.1-0.1-0.1-0.1c-0.3-0.1-0.5-0.2-0.7-0.2c-0.3,0-0.5,0.1-0.6,0.4l-0.1,0c0-0.1,0-0.3-0.1-0.4
			c-0.1-0.3-0.1-0.6,0.1-0.8c0,0,0,0,0,0c0.4,0.1,0.8,0.1,1.1,0.1l0.7,0l0-0.3l0.1,0l0.1,0c0.2-0.1,0.4-0.1,0.7-0.1
			c0.2,0,0.4,0,0.6,0.1l0.1,0l0.9,0.2v-0.1c0.2,0,0.3,0,0.4-0.1l0,0.1l0.1,0c-0.1,0.2-0.2,0.3-0.4,0.3c0.2,0.1,0.3,0.2,0.5,0.3
			c0.2,0.1,0.5,0.3,0.8,0.3l0,0.1c-0.1,0-0.3,0.1-0.4,0.1c-0.1,0-0.1,0-0.2,0c0.3,0.3,0.4,0.5,0.5,0.8c0.1,0.2,0.2,0.4,0.4,0.5
			l0,0.1c0,0,0,0,0,0c-0.1,0-0.2,0-0.2,0c0.2,0.4,0.4,0.9,0.4,1.4l0,0l0,0c0,0,0,0,0,0c0,0.1,0,0.1,0,0.2c0-0.1,0-0.1,0-0.2l0,0l0,0
			c0-0.5,0.2-1,0.4-1.4c-0.1,0-0.1,0-0.2,0c0,0,0,0,0,0l0-0.1c0.2-0.1,0.3-0.3,0.4-0.5c0.1-0.2,0.2-0.5,0.5-0.8c-0.1,0-0.1,0-0.2,0
			c-0.1,0-0.3,0-0.4-0.1l0-0.1c0.3-0.1,0.5-0.2,0.8-0.3c0.2-0.1,0.3-0.2,0.5-0.3c-0.2-0.1-0.3-0.2-0.4-0.3l0.1,0l0-0.1
			c0,0,0.2,0,0.4,0.1v0l0.9-0.2l0.1,0c0.2-0.1,0.4-0.1,0.7-0.1c0.2,0,0.4,0,0.6,0.1l0.1,0l0,0l0,0.3l0.7,0c0.3,0,0.7,0,1.1-0.1
			c0,0,0,0,0.1,0.1c0.1,0.1,0.1,0.2,0.1,0.3l0,0l0,0c0,0.1,0,0.3,0,0.5c0,0.1,0,0.3-0.1,0.4l-0.1,0c-0.1-0.3-0.4-0.4-0.6-0.4
			c-0.2,0-0.5,0.1-0.7,0.2c0,0-0.1,0.1-0.2,0.1c0.1,0,0.3-0.1,0.4-0.1c0.2,0,0.4,0.1,0.7,0.2c0.2,0.1,0.4,0.1,0.5,0.1
			c0.2,0,0.4-0.1,0.6-0.2l0.1,0.1c-0.1,0.3-0.3,0.6-0.6,0.7c-0.1,0-0.2,0-0.2,0c-0.2,0-0.5-0.1-0.7-0.3l-0.1,0
			c-0.1-0.1-0.2-0.1-0.4-0.2c0,0,0,0,0.1,0c0.2,0.1,0.3,0.3,0.3,0.5c0,0.4-0.3,0.5-0.3,0.5c0,0,0,0,0,0l-0.1,0l0-0.1
			c0-0.3,0-0.4-0.1-0.5c-0.1-0.1-0.2-0.1-0.4-0.1c-0.1,0-0.2,0-0.3,0c-0.2,0-0.3,0.1-0.5,0.1c-0.1,0-0.2,0-0.3-0.1
			c-0.1,0.1-0.1,0.1-0.2,0.1c-0.1,0.1-0.3,0.2-0.5,0.5l0,0c0,0.1-0.1,0.2-0.1,0.3c-0.2,0.5-0.4,0.9,0,1.5c0.2,0.2,0.3,0.4,0.5,0.4
			c0,0,0,0,0,0c0.1,0,0.2-0.1,0.3-0.2l0.1,0.1c-0.1,0.3-0.3,0.5-0.4,0.5c0,0-0.1,0-0.1,0c0.1,0,0.2,0.1,0.4,0.1l0.1,0L36,26.8
			c0,0-0.1,0.1-0.2,0.1c0.1,0,0.2,0,0.3,0c0.3,0,0.6-0.1,0.7-0.2l0.1-0.1l0,0.1c0.1,0.2-0.1,0.6-0.2,0.8c-0.1,0.1-0.3,0.2-0.4,0.3
			c0.2,0.4,0.6,0.5,1,0.5c0,0,0,0,0.1,0c0.4,0,0.7-0.2,0.8-0.4c0.1-0.3,0-0.6-0.3-0.9c-0.3-0.1-0.4-0.3-0.4-0.6
			c0-0.3,0.1-0.6,0.4-0.9c0.5-0.5,1-0.9,1.5-1.4l0.1-0.1l0,0.1c0,0,0,0.1,0,0.1c0-0.1,0.1-0.1,0.1-0.2l0,0c0.2-0.3,0.6-0.7,0.8-1.1
			c0-0.1,0-0.1,0.1-0.1c0.2-0.1,0.3-0.2,0.5-0.3c0,0,0.1,0.1,0.1,0.1c0.1-0.1,0.1-0.2,0.2-0.2l0,0l0.4-0.1c0.5-0.1,0.6-0.5,0.6-0.7
			c0-0.2,0.1-0.4,0.1-0.6c0.1-0.2,0.1-0.4,0.1-0.6c0.2-0.3,0.4-0.6,0.6-0.9c0-0.1,0.2-0.3,0.3-0.3c0,0,0,0,0.1,0
			c0.2,0.1,0.3,0.7,0.2,1.2c-0.1,0.7-0.3,1.2-0.6,1.7c0.2-0.2,0.5-0.5,0.8-0.7c0.1-0.1,0.2-0.2,0.3-0.2c0.1,0,0.1,0,0.2,0.1
			c0.2,0.2,0.2,0.7,0,1.2c-0.2,0.5-0.5,0.8-0.8,1.2c0,0,0,0,0.1,0c0.4-0.2,0.7-0.3,0.9-0.3c0.1,0,0.2,0,0.2,0.1
			c0.1,0.1,0,0.3-0.2,0.7c-0.3,0.4-0.7,0.7-1,1c0.1-0.1,0.3-0.1,0.5-0.2c0.2-0.1,0.5-0.1,0.7-0.1c0.2,0,0.4,0,0.4,0.2
			c0.1,0.2,0,0.4-0.3,0.7c-0.3,0.3-0.7,0.5-1.1,0.7C43.7,26.2,43.8,26.2,43.9,26.2z M39.6,33.6L39.6,33.6v0.4V34
			c-0.3,0.2-0.5,0.4-0.6,0.6c0-0.3,0-0.7-0.2-1.1c0.1,0,0.1-0.1,0.2-0.1c0,0,0,0,0,0C39.2,33.5,39.4,33.6,39.6,33.6
			C39.6,33.6,39.6,33.6,39.6,33.6z M26.7,35l-0.8,0.3l0.4,0.6c-0.1,0-0.1,0-0.2,0l-0.1,0l-0.1,0c0,0-0.1,0-0.1,0
			c-0.1-0.2-0.2-0.3-0.4-0.4c0,0,0,0,0,0c0-0.1-0.1-0.1-0.1-0.1c0,0,0,0,0-0.1C25.2,35,25.1,35,25,34.9c-0.2-0.3-0.5-0.7-0.9-1.3
			l-0.2-0.2c0.1-0.1,0.1-0.2,0.1-0.3c0,0,0-0.1,0-0.1c0.2,0.1,0.4,0.2,0.7,0.2c0.1,0,0.3,0,0.4-0.1c0,0,0,0.1,0.1,0.1
			c0.2,0.2,0.5,0.4,0.9,0.4c0.2,0,0.4,0,0.6-0.1c0,0,0.1,0,0.1,0.1c0,0,0.1,0.1,0.1,0.1c-0.2,0.5-0.2,0.9-0.2,1.3
			C26.7,34.9,26.7,34.9,26.7,35z M28.9,24.1c0.2,0,0.3,0.1,0.5,0.1c0.1,0,0.1,0,0.1,0c0.1,0.1,0.1,0.1,0.2,0.2l0.1,0.2
			C30,24.9,30,25,30,25.1L29.9,25l-0.5,0.3l-0.1,0.1l-0.2,0.1l-0.4-0.6l-0.1,0.2c-0.1-0.1-0.1-0.1-0.2-0.2c0,0,0,0,0,0l0.7,0
			L28.9,24.1z M37.3,24.8C37.3,24.8,37.3,24.8,37.3,24.8c-0.1,0.1-0.2,0.2-0.2,0.3L37,24.9l-0.4,0.5l-0.2-0.1l-0.1-0.1L35.8,25
			l-0.1,0.1c0-0.1,0-0.3,0.1-0.6c0,0,0,0,0,0l0.1-0.1c0.1-0.1,0.1-0.1,0.2-0.2c0,0,0.1,0,0.1,0c0.2,0,0.4,0,0.5-0.1l0,0.7L37.3,24.8
			z"/>
		<path class="st1" d="M22,33.3C22,33.3,22,33.3,22,33.3L22,33.3L22,33.3z"/>
		<path class="st1" d="M36.3,33.6C36.3,33.6,36.2,33.6,36.3,33.6C36.2,33.6,36.2,33.6,36.3,33.6C36.3,33.6,36.3,33.6,36.3,33.6z"/>
		<path class="st1" d="M34.3,34.7c0-0.1,0.1-0.2,0.2-0.2v-0.1c-0.1,0-0.1,0-0.2,0C34.3,34.5,34.3,34.6,34.3,34.7z"/>
		<path class="st1" d="M34.4,38.2c0.2,0.2,0.4,0.4,0.5,0.6c0.1-0.1,0.1-0.3,0-0.5c-0.3-0.5-0.7-0.7-1-1c-0.1-0.1-0.2-0.1-0.3-0.2
			C33.9,37.6,34.2,37.9,34.4,38.2z"/>
		<path class="st1" d="M31.3,36.4c0.1,0,0.1-0.1,0.2-0.1c0.4-0.2,0.4-0.3,0-1.1c-0.1-0.1-0.1-0.3-0.1-0.4l-0.1,0c-0.1,0-0.2,0-0.3,0
			c-0.2,0-0.4,0-0.5,0.1c-0.1,0.1-0.2,0.2-0.2,0.4c0,0.2,0,0.4,0.1,0.5c0.1,0.1,0.3,0.1,0.4,0.1c0,0,0,0,0.1,0l0.1,0L31,36
			c-0.1,0.2-0.3,0.3-0.5,0.3c-0.1,0-0.2,0-0.3-0.1c0,0,0,0-0.1,0c0.1,0.4,0.2,0.9,0.1,1c-0.1,0.2-0.5,0.2-1,0.2c-0.1,0-0.3,0-0.4,0
			l0,0c0,0.1,0,0.1,0,0.2c0.1,0.1,0.2,0.2,0.3,0.3c0,0,0.1,0,0.1,0c0.3,0,0.7-0.3,0.8-0.4c0.2-0.2,0.5-0.3,0.9-0.5
			C30.9,36.7,31,36.6,31.3,36.4z"/>
		<path class="st1" d="M30.7,38.4c-0.1,0.2-0.1,0.3,0,0.4c0.1-0.2,0.3-0.4,0.5-0.6c0.2-0.3,0.5-0.6,0.7-0.9c-0.1,0-0.1,0.1-0.2,0.1
			C31.4,37.7,31,37.9,30.7,38.4z"/>
		<path class="st1" d="M30,39.4c0,0.1,0,0.2,0,0.3c0.1,0.1,0.2,0.2,0.3,0.2c0,0,0,0,0,0c0-0.1,0-0.2,0-0.3
			C30.2,39.6,30.1,39.5,30,39.4z"/>
		<path class="st1" d="M29.5,33.6C29.5,33.6,29.4,33.6,29.5,33.6C29.4,33.6,29.4,33.6,29.5,33.6C29.5,33.6,29.5,33.6,29.5,33.6z"/>
		<path class="st1" d="M32.6,34.8C32.6,34.8,32.6,34.8,32.6,34.8C32.6,34.8,32.6,34.8,32.6,34.8C32.6,34.8,32.6,34.8,32.6,34.8z"/>
		<path class="st1" d="M33.1,34.8c0,0,0-0.1,0-0.1C33,34.7,33,34.7,33.1,34.8C33,34.8,33,34.8,33.1,34.8z"/>
		<path class="st1" d="M31.4,34.4c-0.1,0-0.1,0-0.2,0v0c0.1,0.1,0.1,0.1,0.2,0.2C31.4,34.6,31.4,34.5,31.4,34.4z"/>
		<path class="st1" d="M22.6,33C22.6,33,22.6,33,22.6,33C22.7,33.1,22.7,33,22.6,33C22.7,33,22.7,33,22.6,33
			C22.6,33,22.6,33,22.6,33z"/>
		<path class="st1" d="M22.4,32.2C22.3,32.2,22.3,32.2,22.4,32.2C22.3,32.2,22.3,32.2,22.4,32.2l-0.1-0.1l0,0c0,0,0-0.1,0-0.1l0-0.1
			l0,0l0,0l0,0.1l0,0l-0.1,0l0,0.1l0.1,0.1C22.2,32.2,22.3,32.2,22.4,32.2L22.4,32.2L22.4,32.2C22.4,32.2,22.4,32.3,22.4,32.2
			L22.4,32.2C22.4,32.2,22.4,32.2,22.4,32.2z"/>
		<path class="st1" d="M22.9,32.7C22.9,32.7,22.9,32.7,22.9,32.7C22.9,32.7,22.9,32.7,22.9,32.7L22.9,32.7z"/>
		<path class="st1" d="M29.8,34.2c0,0-0.1,0-0.1,0c0,0,0,0,0,0.1C29.7,34.3,29.8,34.3,29.8,34.2z"/>
		<path class="st1" d="M22.3,33.2C22.3,33.2,22.3,33.2,22.3,33.2C22.4,33.3,22.4,33.2,22.3,33.2C22.4,33.2,22.4,33.2,22.3,33.2
			C22.3,33.2,22.3,33.2,22.3,33.2z"/>
		<path class="st1" d="M26,37.3C26,37.3,26,37.3,26,37.3C26,37.3,26,37.3,26,37.3C26,37.3,26,37.3,26,37.3z"/>
	</g>
</g>
</svg>
