<?xml version="1.0" encoding="utf-8"?>
<!-- Generator: Adobe Illustrator 22.0.1, SVG Export Plug-In . SVG Version: 6.00 Build 0)  -->
<svg version="1.1" id="Layer_1" xmlns="http://www.w3.org/2000/svg" xmlns:xlink="http://www.w3.org/1999/xlink" x="0px" y="0px"
	 viewBox="0 0 73 67" style="enable-background:new 0 0 73 67;" xml:space="preserve">
<style type="text/css">
	.st0{fill:#8AC630;}
	.st1{fill:#434C5C;}
</style>
<g>
	<rect x="31.3" y="41.2" class="st0" width="18.3" height="10"/>
	<g>
		<path class="st1" d="M62.4,20.6c0.1-7.3-3-13.6-8.5-17.4C48.3-0.6,41.1-1,34.7,1.9c-0.9,0.4-1.9,1.4-2.9,2.4c-1,1-2.2,2.2-3.1,2.4
			c-0.9,0.2-2,0-3-0.1c-1-0.2-2-0.3-3-0.2c-7.6,1.1-12.5,6.5-13.9,15.2C3,24-0.5,30.2,0.1,37.4c0.5,6.3,4.4,13.3,12,14.9
			c1.9,0.4,3.9,0.5,6,0.5c0.9,0,1.7,0,2.6,0l0.9,0c1,0,2-0.1,2.9-0.1c0,0,0,0,0.1,0v13.5c0,0.5,0.4,0.9,0.9,0.9h31.3
			c0.5,0,0.9-0.4,0.9-0.9V52.6c0.1,0,0.2,0,0.3,0c1-0.1,2-0.2,3-0.4c8.7-1.5,11.9-9.3,12-15.4C73.1,30.3,69.8,22.6,62.4,20.6z
			 M55.9,65.2H26.4V25.5h29.5V65.2z M60.7,50.4c-0.9,0.2-1.9,0.3-2.8,0.4c0,0-0.1,0-0.1,0V24.6c0-0.5-0.4-0.9-0.9-0.9H25.5
			c-0.5,0-0.9,0.4-0.9,0.9v26.2c0,0,0,0-0.1,0c-0.9,0-1.9,0-2.9,0.1l-0.9,0c-2.8,0.1-5.7,0.1-8.2-0.4C5.7,49.1,2.3,42.8,1.9,37.2
			c-0.4-5,1.5-11.7,8.1-14.1c0.3-0.1,0.5-0.4,0.6-0.7c0.8-5.8,3.7-13,12.4-14.2c0.7-0.1,1.6,0,2.5,0.2c1.2,0.2,2.5,0.4,3.7,0.1
			c1.4-0.3,2.7-1.7,3.9-2.9c0.8-0.8,1.7-1.7,2.3-2c5.8-2.7,12.3-2.3,17.4,1.2c5.2,3.6,8,9.6,7.7,16.5c0,0.5,0.3,0.8,0.7,0.9
			c7,1.5,10,8.6,9.9,14.5C71.1,42.2,68.3,49.1,60.7,50.4z"/>
		<path class="st1" d="M31.4,30.6h18.3c0.5,0,0.9-0.4,0.9-0.9c0-0.5-0.4-0.9-0.9-0.9H31.4c-0.5,0-0.9,0.4-0.9,0.9
			C30.5,30.2,30.9,30.6,31.4,30.6z"/>
		<path class="st1" d="M31.4,36.1h18.3c0.5,0,0.9-0.4,0.9-0.9c0-0.5-0.4-0.9-0.9-0.9H31.4c-0.5,0-0.9,0.4-0.9,0.9
			C30.5,35.7,30.9,36.1,31.4,36.1z"/>
		<path class="st1" d="M31.4,51.5h18.3c0.5,0,0.9-0.4,0.9-0.9v-9.7c0-0.5-0.4-0.9-0.9-0.9H31.4c-0.5,0-0.9,0.4-0.9,0.9v9.7
			C30.5,51.1,30.9,51.5,31.4,51.5z M32.3,41.8h16.5v7.9H32.3V41.8z"/>
		<path class="st1" d="M31.4,57.3H39c0.5,0,0.9-0.4,0.9-0.9s-0.4-0.9-0.9-0.9h-7.6c-0.5,0-0.9,0.4-0.9,0.9S30.9,57.3,31.4,57.3z"/>
		<path class="st1" d="M49.7,55.4h-7.1c-0.5,0-0.9,0.4-0.9,0.9s0.4,0.9,0.9,0.9h7.1c0.5,0,0.9-0.4,0.9-0.9S50.2,55.4,49.7,55.4z"/>
		<path class="st1" d="M31.4,61.8h18.3c0.5,0,0.9-0.4,0.9-0.9c0-0.5-0.4-0.9-0.9-0.9H31.4c-0.5,0-0.9,0.4-0.9,0.9
			C30.5,61.4,30.9,61.8,31.4,61.8z"/>
	</g>
</g>
</svg>
