<?xml version="1.0" encoding="utf-8"?>
<!-- Generator: Adobe Illustrator 22.0.1, SVG Export Plug-In . SVG Version: 6.00 Build 0)  -->
<svg version="1.1"
	 id="Layer_1" xmlns:cc="http://creativecommons.org/ns#" xmlns:dc="http://purl.org/dc/elements/1.1/" xmlns:inkscape="http://www.inkscape.org/namespaces/inkscape" xmlns:rdf="http://www.w3.org/1999/02/22-rdf-syntax-ns#" xmlns:sodipodi="http://sodipodi.sourceforge.net/DTD/sodipodi-0.dtd" xmlns:svg="http://www.w3.org/2000/svg"
	 xmlns="http://www.w3.org/2000/svg" xmlns:xlink="http://www.w3.org/1999/xlink" x="0px" y="0px" viewBox="0 0 61.1 69.1"
	 style="enable-background:new 0 0 61.1 69.1;" xml:space="preserve">
<style type="text/css">
	.st0{fill:#8AC630;}
	.st1{fill:#434C5C;}
</style>
<g>
	<circle class="st0" cx="38.7" cy="20.1" r="7.7"/>
	<g transform="translate(0,-952.36218)">
		<path class="st1" d="M0.8,952.4c-0.4,0-0.8,0.4-0.8,0.8v67.5c0,0.4,0.4,0.8,0.8,0.8h43.5c0.4,0,0.8-0.4,0.8-0.8v-33.8h15.3
			c0.5,0,0.8-0.4,0.8-0.8v-27.3c0-0.5-0.4-0.8-0.8-0.8H45v-4.9c0-0.4-0.4-0.8-0.8-0.8H0.8L0.8,952.4z M1.7,953.9h41.8v4H16.9h-0.1
			c-0.4,0-0.7,0.4-0.7,0.8v2.4H1.7V953.9z M17.7,959.6h41.8v25.7H36.2c-0.2,0-0.3,0.1-0.5,0.2l-9.9,7.1v-6.5c0-0.5-0.4-0.8-0.8-0.8
			h-7.2C17.7,985.3,17.7,959.6,17.7,959.6z M1.7,962.8h14.5v23.3c0,0.5,0.4,0.8,0.8,0.8h7.2v7.2c0,0.5,0.4,0.8,0.8,0.8
			c0.2,0,0.4-0.1,0.5-0.2l11-7.9h6.9v21.7H1.7V962.8z M1.7,1010.2h41.8v9.6H1.7V1010.2z M16.8,1014.2c-0.5,0-0.8,0.4-0.7,0.9
			c0,0.5,0.4,0.8,0.9,0.7h11.3c0.5,0,0.8-0.4,0.8-0.8c0-0.5-0.4-0.8-0.8-0.8l0,0L16.8,1014.2C16.9,1014.2,16.8,1014.2,16.8,1014.2z
			 M38.5,981.3c4.8,0,8.7-3.9,8.7-8.7c0-4.8-3.9-8.7-8.7-8.7s-8.7,3.9-8.7,8.7C29.8,977.4,33.7,981.3,38.5,981.3z M38.5,965.6
			c3.9,0,7,3.1,7,7c0,3.9-3.1,7-7,7s-7-3.1-7-7C31.4,968.7,34.6,965.6,38.5,965.6z M37.5,970.8h1.7v5.4h-1.7V970.8z M37.5,968.9h1.7
			v1.2h-1.7V968.9z"/>
	</g>
</g>
</svg>
