<?xml version="1.0" encoding="utf-8"?>
<!-- Generator: Adobe Illustrator 22.0.1, SVG Export Plug-In . SVG Version: 6.00 Build 0)  -->
<svg version="1.1"
	 id="Layer_1" xmlns:cc="http://creativecommons.org/ns#" xmlns:dc="http://purl.org/dc/elements/1.1/" xmlns:inkscape="http://www.inkscape.org/namespaces/inkscape" xmlns:rdf="http://www.w3.org/1999/02/22-rdf-syntax-ns#" xmlns:sodipodi="http://sodipodi.sourceforge.net/DTD/sodipodi-0.dtd" xmlns:svg="http://www.w3.org/2000/svg"
	 xmlns="http://www.w3.org/2000/svg" xmlns:xlink="http://www.w3.org/1999/xlink" x="0px" y="0px" viewBox="0 0 59 70.5"
	 style="enable-background:new 0 0 59 70.5;" xml:space="preserve">
<style type="text/css">
	.st0{fill:#8AC630;}
	.st1{fill:#434C5C;}
	.st2{fill:#434D5D;}
</style>
<g>
	<circle class="st0" cx="45.4" cy="56.8" r="12.8"/>
	<g>
		<polygon class="st1" points="37.7,38.5 12.2,38.5 12.2,38.7 12.2,40.1 37.7,40.1 		"/>
		<path class="st1" d="M35.9,44.8H12.2v0.2v1.4h21.9C34.7,45.8,35.2,45.3,35.9,44.8z"/>
		<path class="st1" d="M1.6,64.4V1.6h46.7v40.1c0.5,0.1,1.1,0.2,1.6,0.4V0H0v0.8V66h32.8c-0.4-0.5-0.7-1-1-1.6H1.6z"/>
		<path class="st1" d="M12.2,51.2v1.4h18.3c0.2-0.5,0.3-1.1,0.6-1.6H12.2V51.2z"/>
		<path class="st1" d="M45.5,43.5L45.5,43.5C38,43.5,32,49.5,32,57S38,70.5,45.5,70.5S59,64.5,59,57C59,49.5,52.9,43.5,45.5,43.5z
			 M45.5,68.9c-6.6,0-11.9-5.3-11.9-11.9c0-6.6,5.3-11.9,11.9-11.9v0c6.6,0,11.9,5.3,11.9,11.9C57.4,63.6,52.1,68.9,45.5,68.9z"/>
		<polygon class="st1" points="43.2,59.6 40.4,56.7 39.2,57.9 42.1,60.7 43.2,61.8 51.7,53.3 50.6,52.2 		"/>
	</g>
	<g>
		<path class="st2" d="M26.4,17.9L26.4,17.9C26.3,17.8,26.3,17.9,26.4,17.9C26.3,17.9,26.3,17.9,26.4,17.9z"/>
		<path class="st2" d="M15.7,23.3L15.7,23.3L15.7,23.3L15.7,23.3L15.7,23.3L15.7,23.3L15.7,23.3z"/>
		<path class="st2" d="M27.2,29.5c0.2,0,0.3-0.1,0.3-0.3c0.1-0.1,0.1-0.2,0-0.3c-0.1,0.2-0.3,0.2-0.3,0.3
			C27.2,29.3,27.2,29.4,27.2,29.5L27.2,29.5z"/>
		<path class="st2" d="M15.6,23.1L15.6,23.1L15.6,23.1L15.6,23.1h-0.2l0,0l0,0H15.6C15.5,23.1,15.5,23.1,15.6,23.1L15.6,23.1v0.2
			l0,0l0,0C15.7,23.2,15.7,23.2,15.6,23.1L15.6,23.1z"/>
		<path class="st2" d="M27.8,24.8L27.8,24.8L27.8,24.8L27.8,24.8z"/>
		<path class="st2" d="M36,18c0-0.1-0.1-0.3-0.2-0.3c0.4-0.5,0.3-0.8,0.3-1.1c-0.1-0.2-0.2-0.3-0.4-0.3c0.3-0.4,0.3-0.8,0-1.1
			c-0.1-0.1-0.2-0.1-0.2-0.2c0.3-0.6,0.2-1.3-0.3-1.6c-0.1-0.1-0.2-0.1-0.3-0.2V13c0.1-0.9-0.1-1.4-0.6-1.7c-0.1,0-0.2-0.1-0.3-0.1
			c-0.3,0-0.6,0.2-0.8,0.5c-0.1,0.1-0.1,0.2-0.2,0.3v-0.1l0.1-0.1l-0.4-0.4c-0.3-0.4-0.7-0.5-0.9-0.6c-0.1,0-0.2-0.1-0.2-0.1
			s0,0,0-0.1c-0.1-0.2-0.3-0.4-0.8-0.6c-0.1,0-0.2,0-0.3,0c-0.5,0-0.9,0.3-1.2,0.6c0,0,0,0-0.1,0.1c-0.1,0.1-0.1,0.2-0.2,0.3
			c-0.1,0-0.1-0.1-0.2-0.1l0,0v-0.7h-0.3V10h-0.7H28h-0.7v0.2C27.2,10,27.1,9.9,27,9.7c-0.2-0.2-0.4-0.4-0.8-0.5V9.1V8.9V8.2h-0.3
			V7.8h-0.7H25h-0.6v0.3H24v0.7v0.3v0.1c-0.3,0.1-0.7,0.3-0.8,0.5c-0.2,0.2-0.3,0.3-0.3,0.5h-0.1V10h-0.7h-0.3h-0.7v0.3H21v0.7l0,0
			c-0.1,0-0.2,0.1-0.2,0.1c0-0.1-0.1-0.2-0.2-0.3c0,0,0,0-0.1-0.1c-0.3-0.3-0.8-0.6-1.2-0.6l0,0l0,0c-0.1,0-0.2,0-0.3,0
			c-0.4,0.1-0.7,0.4-0.8,0.6c0,0,0,0.1-0.1,0.1l0,0c0,0-0.1,0-0.2,0c-0.3,0.1-0.7,0.2-0.9,0.6l-0.3,0.4l0,0
			c-0.3-0.3-0.5-0.5-0.8-0.5c-0.1,0-0.2,0-0.3,0c-0.8,0.3-0.7,1.3-0.6,1.6v0.1c-0.1,0-0.2,0.1-0.3,0.2c-0.4,0.3-0.5,1.1-0.3,1.6
			c-0.1,0.1-0.2,0.1-0.3,0.2c-0.3,0.3-0.3,0.7,0,1.1c-0.2,0.1-0.3,0.3-0.4,0.3c-0.2,0.3-0.1,0.8,0.3,1.1c-0.1,0.1-0.2,0.3-0.2,0.3
			c-0.1,0.2-0.1,0.6,0.3,1c-0.1,0.1-0.1,0.2-0.1,0.3c-0.1,0.3,0.1,0.7,0.5,0.9c0,0.1,0,0.2,0,0.3c0,0.3,0.2,0.7,0.6,0.8
			c0,0.1,0,0.2,0,0.3s0.1,0.2,0.2,0.3L15.4,22L15,22.4L14,22l0.1,0.3h-0.3l0.1,0.3h-0.2l0.3,0.4l-0.3,0.1l0.5,0.5l0,0l0.4,0.5
			c0,0,0,0,0.1,0.1v0.3H15l0,0h0.3l0.1,0.1v0.3h0.6c0.1,0,0.1,0,0.2,0c0.4,0.8,0.7,1.2,0.8,1.4c0,0.1,0.1,0.2,0.1,0.3c0,0,0,0,0,0.1
			c0,0.1,0.1,0.1,0.1,0.2c0,0.2,0.1,0.3,0.2,0.4c-0.1,0.1-0.1,0.3-0.1,0.4c0,0.3,0.2,0.7,0.5,0.9c0,0,0,0,0,0.1
			c0.2,0.3,0.5,0.6,1.1,0.7c0,0.1,0.1,0.2,0.2,0.3c0.1,0.1,0.2,0.2,0.3,0.2c0.1,0.1,0.1,0.1,0.2,0.2c0.2,0.3,0.4,0.4,0.8,0.4
			c0.1,0,0.1,0,0.2,0c0.1,0,0.2-0.1,0.3-0.1l-0.4,0.8l1.2-0.3h0.1c0.2,0,0.3-0.1,0.3-0.1c0.1,0.1,0.3,0.2,0.4,0.2
			c0.2,0.1,0.3,0.1,0.5,0.1c0.2,0,0.3,0,0.5-0.1c0.2,0.2,0.4,0.3,0.7,0.3c0.3,0.4,0.7,0.7,1.3,0.7c0.5,0,0.9-0.3,1.2-0.7
			c0.3-0.1,0.5-0.2,0.7-0.3c0.2,0.1,0.3,0.1,0.5,0.1c0.2,0,0.3,0,0.4-0.1c0.2-0.1,0.3-0.2,0.4-0.3c0.1,0.1,0.3,0.1,0.3,0.1h0.1
			L30,31l-0.5-1.1h0c0,0,0-0.1,0.1-0.2c0.1-0.3,0.2-0.7-0.1-1.2c0.1-0.2,0.1-0.3,0.1-0.4c0.2,0.1,0.7,0.3,1.2,0.5
			c0.2,0.1,0.3,0.2,0.5,0.2c0.1,0,0.3,0,0.3-0.1c0.1,0,0.2-0.1,0.3-0.2c0.7-0.1,1-0.2,1.4-0.8c0-0.1,0.1-0.1,0.1-0.2
			c0.4-0.3,0.7-0.9,0.7-1.4c0-0.7-0.3-1.3-0.8-1.6v-0.1v-0.3v-0.7h-0.3v-0.2c0,0,0,0,0-0.1c0.1,0,0.1,0,0.2,0c0.3,0,0.7-0.2,0.8-0.4
			c0.1-0.2,0.2-0.3,0.2-0.5c0.4-0.1,0.7-0.4,0.8-0.8c0-0.1,0-0.2,0-0.3c0.4-0.2,0.6-0.5,0.6-0.8c0-0.1,0-0.2,0-0.3
			c0.4-0.3,0.5-0.7,0.5-0.9c0-0.1-0.1-0.3-0.1-0.3C36.1,18.6,36.1,18.2,36,18z M29.9,11.2L29.9,11.2c0.2-0.3,0.5-0.4,0.8-0.4h0.1
			c0.3,0.1,0.3,0.2,0.4,0.3c0.1,0.1,0.1,0.2,0.2,0.2c0.1,0.1,0.3,0.1,0.3,0.2c0.3,0.1,0.4,0.1,0.6,0.3l0,0c0,0,0,0.1,0.1,0.1
			c0.1,0.2,0,0.4-0.2,0.6c-0.1,0.1-0.3,0.3-0.3,0.4v0.1L32,13c0.1,0,0.1,0,0.2-0.1c0.1-0.1,0.2-0.2,0.3-0.2h0.1c0,0,0,0,0.1,0.1
			c-0.1,0.1-0.1,0.2-0.2,0.3l0,0l0,0l0,0l0,0c-0.1,0.1-0.1,0.2-0.2,0.3c-0.1,0.1-0.2,0.2-0.3,0.2l0,0c-0.1,0-0.2,0-0.2-0.1
			c0.1,0.2,0.2,0.3,0.1,0.5c0,0,0,0-0.1,0.1c-0.2,0-0.3,0.1-0.5,0.3l0,0c0.3-0.3,0.2-0.4,0.1-0.7c-0.1-0.1-0.2-0.2-0.2-0.3
			c-0.1-0.3,0.3-0.9,0.4-1.1c0.1-0.1,0.2-0.3,0.2-0.3l-0.1-0.1c-0.1,0-0.2,0.1-0.3,0.1h-0.1c-0.2-0.1-0.3-0.2-0.4-0.3
			c-0.1-0.1-0.1-0.1-0.2-0.1c-0.1,0.2-0.1,0.3,0,0.5c0,0.1,0.1,0.2,0.1,0.3c0.1,0.4,0,0.8-0.2,0.9c-0.1,0.1-0.1,0.1-0.2,0.2
			c-0.1,0-0.2-0.1-0.3-0.1l-0.1-0.1l0.1-0.1c0.1-0.2,0.1-0.5-0.1-0.8c0-0.1-0.1-0.2-0.1-0.2c0-0.1,0-0.3-0.1-0.3
			C29.7,11.4,29.8,11.2,29.9,11.2z M26.7,13.9c-0.3-0.1-0.4-0.3-0.6-0.5l0.1-0.1c0.2,0.1,0.3,0.1,0.5,0.1
			C26.7,13.4,26.7,13.9,26.7,13.9z M25.5,13.7L25.5,13.7l0.1,0.3c-0.1,0-0.2,0.1-0.3,0.1l-0.3,0.1l-0.3-0.1c-0.1,0-0.2-0.1-0.3-0.1
			l0.1-0.3l0,0l0.3-0.4L24.6,13c0.2,0,0.3,0,0.4,0c0.2,0,0.3,0,0.4,0l-0.3,0.3L25.5,13.7z M23.5,13.4c0.2,0,0.4,0,0.5-0.1l0.1,0.1
			c-0.2,0.3-0.3,0.4-0.6,0.5V13.4z M29.1,11.8c0,0.1,0,0.2,0.1,0.3c0,0.2-0.2,0.3-0.3,0.5c0,0.1-0.1,0.1-0.1,0.2h-0.1
			c-0.3,0-0.7,0-0.9,0.1c-0.2,0-0.4,0-0.6,0c0-0.1-0.1-0.2-0.2-0.3c-0.1-0.2-0.3-0.3-0.3-0.5c0-0.1,0.1-0.1,0.1-0.2s0.1-0.1,0.1-0.2
			h0.2c0.2,0.3,0.4,0.5,0.8,0.5c0.3,0,0.7-0.2,0.8-0.5h0.2v-0.1c0,0,0,0,0.1,0C29.1,11.7,29.1,11.8,29.1,11.8z M28,10.7h0.3v0.3l0,0
			c-0.1,0-0.1,0-0.2,0c-0.1,0-0.2,0-0.3,0h0.1L28,10.7L28,10.7z M23.7,10.1c0.1-0.2,0.3-0.3,0.7-0.3h0.1c0.2,0,0.4,0.1,0.6,0.2V9.8
			C25,9.7,25,9.6,25,9.5c0-0.1,0.1-0.2,0.2-0.3V9.2c-0.1,0-0.2-0.1-0.3-0.3h-0.1V8.7h0.1c0-0.1,0.1-0.2,0.3-0.3V8.3h0.1v0.2
			c0.1,0,0.2,0.1,0.3,0.3h0.1V9h-0.1c0,0.1-0.1,0.2-0.3,0.3v0.1c0.1,0.1,0.2,0.2,0.2,0.3c0,0.1,0,0.2-0.1,0.2v0.2
			c0.2-0.1,0.3-0.2,0.5-0.2h0.1c0.3,0,0.5,0.2,0.7,0.3c0.3,0.3,0.3,0.7,0.1,0.9l-0.1,0.1c-0.3,0.3-0.3,0.4-0.3,0.7
			c0,0.1-0.1,0.1-0.1,0.2l0,0v0.5h-0.1c-0.3-0.1-0.7-0.2-1-0.2c-0.3,0-0.7,0.1-1,0.2H24v-0.5l0,0c0-0.1-0.1-0.3-0.2-0.3
			c-0.1-0.2-0.2-0.3-0.3-0.5C23.5,10.9,23.4,10.6,23.7,10.1z M22,10.7h0.3v0.3h0.1c-0.1,0-0.2,0-0.3,0c-0.1,0-0.1,0-0.2,0l0,0
			L22,10.7L22,10.7z M21.2,11.6L21.2,11.6l0.3,0.1c0.2,0.3,0.4,0.5,0.8,0.5s0.7-0.2,0.8-0.5h0.2v-0.1l0,0c0.1,0.1,0.1,0.2,0.2,0.3
			c0,0,0,0.1,0.1,0.1c0,0.2-0.1,0.4-0.3,0.6c-0.1,0.1-0.1,0.2-0.2,0.3c-0.2,0-0.4,0-0.6,0c-0.3,0-0.7-0.1-1-0.1
			c0-0.1-0.1-0.1-0.1-0.2C21.2,12.4,21,12.2,21,12c0-0.1,0.1-0.2,0.1-0.3C21,11.8,21.1,11.7,21.2,11.6
			C21.1,11.7,21.2,11.6,21.2,11.6z M17.8,12.7c0.1,0,0.2,0.1,0.3,0.2c0.1,0.1,0.1,0.1,0.2,0.1c0,0,0.1,0,0.1-0.1v-0.1
			c0-0.2-0.2-0.3-0.3-0.4c-0.2-0.2-0.3-0.4-0.2-0.6c0,0,0-0.1,0.1-0.1l0,0c0.2-0.3,0.3-0.3,0.6-0.3c0.1,0,0.3-0.1,0.3-0.2
			c0.1-0.1,0.2-0.1,0.2-0.2c0.1-0.2,0.2-0.3,0.4-0.3h0.1c0.3,0,0.6,0.2,0.8,0.4l0,0c0.1,0.1,0.1,0.3,0.1,0.4c0,0.1-0.1,0.2-0.1,0.3
			c0,0.1-0.1,0.2-0.1,0.3c-0.2,0.4-0.2,0.7-0.1,0.8l0.1,0.1c0,0,0,0-0.1,0.1c-0.1,0-0.2,0.1-0.3,0.1c-0.1,0-0.2-0.1-0.2-0.2
			c-0.2-0.2-0.3-0.5-0.2-0.9c0-0.1,0.1-0.2,0.1-0.3c0.1-0.2,0.2-0.3,0-0.5c-0.1,0-0.1,0.1-0.2,0.1c-0.1,0.3-0.2,0.4-0.3,0.4H19
			c-0.1,0-0.2,0-0.3-0.1c-0.1,0-0.1,0.1-0.1,0.1c0,0.1,0,0.2,0.2,0.3c0.2,0.2,0.5,0.8,0.4,1.1c-0.1,0.2-0.1,0.3-0.2,0.3
			c-0.2,0.2-0.3,0.3,0.1,0.7l0,0c-0.2-0.2-0.3-0.3-0.5-0.3c0,0,0,0,0-0.1c-0.1-0.2,0-0.3,0.1-0.5c-0.3,0.2-0.3,0.3-0.4,0.3l0,0
			c-0.1,0-0.2-0.1-0.3-0.1c-0.1-0.2-0.2-0.3-0.3-0.5C17.8,12.9,17.8,12.8,17.8,12.7C17.7,12.8,17.7,12.7,17.8,12.7
			C17.7,12.7,17.8,12.7,17.8,12.7z M17.2,11.9L17.2,11.9L17.2,11.9L17.2,11.9z M34.5,17.9c0.1,0,0.1,0,0.2,0c0.4,0,0.7,0.1,0.8,0.3
			c0.1,0.2-0.1,0.3-0.4,0.6c-0.1,0.1-0.3,0.1-0.5,0.2c0.4,0.1,0.7,0.3,0.7,0.4s-0.1,0.3-0.4,0.4c-0.2,0.1-0.4,0.1-0.7,0.1H34l0,0
			c0.4,0.1,0.7,0.3,0.7,0.6c0,0.2-0.2,0.3-0.5,0.3c-0.1,0-0.1,0-0.2,0c-0.2,0-0.3,0-0.6-0.1l0,0c0.4,0.2,0.6,0.5,0.6,0.7
			c0,0.2-0.3,0.3-0.6,0.3c-0.2,0-0.4-0.1-0.7-0.3c0.1,0.1,0.1,0.1,0.2,0.2c0.3,0.3,0.4,0.7,0.3,0.8c-0.1,0.1-0.2,0.2-0.3,0.2
			c-0.1,0-0.2,0-0.3-0.1c-0.2-0.1-0.3-0.2-0.6-0.4c0.2,0.3,0.3,0.6,0.1,0.8c-0.1,0.1-0.2,0.1-0.3,0.1c-0.1,0-0.2,0-0.3-0.1
			s-0.3-0.3-0.6-0.4c0.2,0.3,0.2,0.6,0.1,0.8c-0.1,0.1-0.2,0.1-0.3,0.1c-0.1,0-0.3,0-0.3-0.1c-0.2-0.1-0.3-0.3-0.5-0.4
			c0.1,0.3,0,0.5-0.2,0.6c-0.1,0.1-0.1,0.1-0.2,0.1c-0.1,0-0.3-0.1-0.3-0.2c-0.1-0.1-0.2-0.2-0.3-0.3c0,0.2,0,0.3-0.1,0.3
			c-0.1,0-0.1,0.1-0.2,0.1c-0.1,0-0.3-0.1-0.3-0.2l-0.1-0.1c-0.3-0.3-0.6-0.5-0.8-1.3v-0.1c0,0-0.1-0.1-0.1-0.2v1.2h0.1
			c0.1,0,0.1,0,0.2,0c0.2,0,0.3,0.2,0.4,0.3c0.2,0.2,0.3,0.4,0.9,0.4v0.1c0.2,0.1,0.3,0.2,0.4,0.3c0.2,0.3,0.2,0.6,0.2,0.8
			c0,0.3,0,0.6,0.3,0.7h0.1v0.1c-0.1,0.1-0.3,0.2-0.3,0.2l0,0c-0.1,0-0.2-0.1-0.3-0.2v-0.1c0,0.3,0,0.4,0.2,0.7l0.1,0.1h-0.1
			c0,0,0,0-0.1,0c-0.2,0-0.3-0.1-0.4-0.2c0,0,0-0.1-0.1-0.1c0,0.1,0,0.2-0.1,0.2h-0.1v-0.1c0-0.1-0.1-0.2-0.1-0.2l-0.1-0.1v0.1
			c0,0.1,0,0.2,0.1,0.3c0.1,0.2,0.4,0.2,0.8,0.3c0.3,0,0.6,0.1,1,0.2l0,0c0,0,0.1-0.1,0.1-0.2c0-0.1,0.1-0.3,0.2-0.3
			c0-0.1-0.1-0.3-0.1-0.4c0-0.7,0.5-1.3,1.2-1.4V24h-0.3v-0.3h0.3v-0.3H32v0.3h0.3V24H32v0.3c0.7,0.1,1.2,0.7,1.2,1.4
			c0,0.5-0.3,0.8-0.6,1.1c0,0.1,0,0.2-0.1,0.3c-0.2,0.3-0.3,0.3-1.1,0.4h-0.1c0,0.1-0.1,0.2-0.1,0.2h-0.1c-0.1,0-0.2,0-0.3-0.1
			c-0.4-0.2-1.3-0.6-1.5-0.6c-0.3,0-0.8-0.1-1.2-0.1c-0.3,0-0.7-0.1-0.8-0.1c-0.1,0-0.2,0-0.3-0.1c0-0.1-0.1-0.2,0.1-0.3V26
			c-0.1,0-0.2,0.1-0.3,0.1c-0.2,0-0.3-0.1-0.4-0.3l-0.1-0.1h0.1c0,0,0,0,0.1,0c0.2,0,0.3,0,0.3-0.1c0.1-0.1,0.1-0.3,0.1-0.4
			c0-0.2-0.1-0.3-0.2-0.3c-0.1-0.1-0.3-0.1-0.4-0.1c-0.1,0-0.2,0-0.3,0h-0.1c0,0.1-0.1,0.3-0.1,0.3c-0.3,0.7-0.3,0.8,0,0.9
			c0.1,0,0.1,0.1,0.2,0.1c0.3,0.1,0.3,0.2,0.4,0.6c0.3,0.2,0.5,0.3,0.7,0.4c0.1,0.1,0.3,0.3,0.7,0.3h0.1c0.1,0,0.3-0.1,0.3-0.3
			c0-0.1,0-0.1,0-0.2l-0.1-0.1h0.1c0.3,0,0.3,0.3,0.3,0.7c0,0.3-0.1,0.4-0.3,0.5c0.4,0.3,0.3,0.8,0.3,1.1c0,0.2-0.1,0.4,0,0.6
			l0.1,0.1h-0.1c-0.3-0.1-0.4-0.4-0.4-0.7c0,0,0,0,0-0.1c0,0.4-0.2,0.7-0.6,0.8c-0.1,0-0.2,0-0.3,0c-0.2,0-0.3-0.1-0.5-0.2h-0.1
			c-0.3,0.3-0.7,0.4-1,0.5c0,0.1,0,0.2-0.1,0.2c-0.1,0.3-0.3,0.3-0.7,0.3c-0.3,0-0.6-0.2-0.7-0.3c0-0.1-0.1-0.2-0.1-0.2
			c-0.3,0-0.8-0.2-1-0.4l0,0h-0.1c-0.2,0.3-0.3,0.4-0.5,0.4c-0.1,0-0.2,0-0.3,0c-0.4-0.2-0.6-0.4-0.6-0.8c0,0,0,0,0,0.1
			c0,0.3-0.1,0.6-0.4,0.7h-0.1l0.1-0.1c0.1-0.2,0-0.3,0-0.6c-0.1-0.3-0.2-0.7,0.3-1.1c-0.2-0.1-0.3-0.3-0.3-0.5c0-0.3,0-0.4,0.2-0.6
			c-0.3,0.1-0.8,0.2-0.9,0.3c-0.1,0.1-0.2,0.1-0.3,0.2c-0.1,0.1-0.2,0.1-0.3,0.2l-0.1,0.1c0.1,0.2,0.1,0.3,0.1,0.3l0,0
			c0.1,0,0.1,0,0.2,0.1c0,0.1,0,0.1,0,0.2c0,0,0.1,0,0.1,0.1V29l0,0c0.1,0.1,0.2,0.1,0.2,0.3c0,0.2-0.1,0.3-0.3,0.3c0,0,0,0-0.1,0
			c-0.2,0-0.3-0.1-0.3-0.3c-0.1,0-0.1,0-0.2-0.1v-0.1l0,0c-0.1,0-0.1,0-0.2-0.1c0-0.1,0-0.2,0-0.3c-0.1-0.1-0.2-0.2-0.3-0.3l0,0
			c-0.4-0.1-0.8-0.2-0.8-0.3c0-0.1,0-0.1,0-0.2v-0.1h0.1c0.2,0.1,0.3,0.2,0.4,0.2c-0.1-0.1-0.1-0.1-0.2-0.2l0,0
			c-0.3,0-0.5-0.1-0.6-0.1c-0.1-0.1-0.2-0.3-0.2-0.3c0-0.2,0.2-0.3,0.3-0.3h0.1c0-0.1,0-0.1,0-0.2c-0.1,0-0.2,0-0.3-0.1v-0.1
			c-0.1-0.1-0.2-0.2-0.2-0.3v-0.1c0,0-0.1,0-0.1-0.1c0,0,0-0.1,0-0.2c0,0-0.1,0-0.1-0.1s0-0.1,0-0.2c-0.2-0.2-0.5-0.6-0.9-1.4
			c-0.1-0.2-0.1-0.3-0.2-0.3c0,0,0,0-0.1,0l0,0c-0.1,0-0.3-0.1-0.3-0.2c0,0.1-0.1,0.1-0.1,0.1l0,0c0,0-0.1,0-0.2,0l0,0
			c-0.1,0-0.2-0.1-0.2-0.1v-0.1l-0.1-0.1h0.1v-0.1H16l0,0l0,0v-0.1c0,0,0,0,0.1,0v-0.1l0,0c0,0,0,0-0.1,0h-0.1l0,0h-0.1l0,0l0,0l0,0
			l0,0h-0.1v-0.1l0,0l0,0l0,0l0,0l0,0l0,0c0,0-0.1,0-0.1-0.1c0,0-0.1,0-0.1-0.1l0,0h-0.1l0,0l0,0l-0.1-0.1v-0.1L15.3,23h0.1
			l-0.1-0.2l0,0l-0.1-0.2l0,0l-0.1-0.2l0.4,0.2l0,0v-0.1l0,0l0,0l0.3-0.2l0.1,0.1l0,0H16v-0.1l0,0v-0.1l0.3-0.2l0,0h0.1h0.1l0,0
			l0.1-0.4l0.2,0.1l0,0l0.1,0.1l0,0l0.1,0.2l0,0l0.1,0.2l0,0l0,0v-0.1l0.1,0.2l0,0c0,0,0,0,0,0.1l0,0h0.1v0.1v0.1l0,0l0,0l0,0l0,0
			l0,0l0,0h0.1c0,0,0,0-0.1,0.1l0,0L17,22.7l0,0c0,0,0,0.1-0.1,0.1l0,0H17l0,0h0.1l0,0v-0.1h0.1v0.1l0,0c0,0,0,0,0.1,0.1l0,0V23
			c0,0,0,0.1,0,0.2c0,0.1-0.1,0.1-0.1,0.1l0,0c0,0-0.1,0-0.2,0c0.1,0.1,0.1,0.3,0,0.3c0.1,0.1,0.2,0.2,0.3,0.3l0.2,0.3
			c0.5,0.7,0.8,1,0.8,1.3l0,0c0.1,0,0.2,0,0.2,0.1v0.1c0.1,0,0.1,0,0.1,0.1v0.1c0.1,0,0.1,0,0.2,0.1c0.1,0.1,0.2,0.2,0.2,0.3l0,0
			c0,0,0.1,0,0.1,0.1c0.1,0.1,0.1,0.2,0,0.3c0.1,0,0.1,0.1,0.2,0.1c0.1-0.1,0.1-0.1,0.2-0.2c0.1-0.1,0.2-0.1,0.3-0.1l0,0
			c0.2,0,0.3,0.2,0.3,0.3c0.1,0.2,0.2,0.3,0.3,0.3l0,0c0.7-0.1,1.2-0.3,1.7-0.6c0-0.1,0-0.2-0.1-0.3l0,0c-0.1,0.1-0.1,0.2-0.1,0.2
			v0.1h-0.1c-0.1,0-0.1-0.1-0.1-0.2c0,0,0,0.1-0.1,0.1c-0.1,0.1-0.3,0.2-0.4,0.2c0,0,0,0-0.1,0h-0.1l0.1-0.1
			c0.2-0.2,0.2-0.3,0.2-0.7v0.1c-0.1,0.1-0.2,0.2-0.3,0.2l0,0c-0.2,0-0.3-0.1-0.3-0.2v-0.1h0.1c0.3-0.1,0.3-0.3,0.3-0.7
			c0-0.3,0-0.6,0.2-0.8c0.1-0.2,0.3-0.3,0.4-0.3v-0.1c0.5,0,0.8-0.3,0.9-0.4c0.1-0.2,0.3-0.3,0.4-0.3c0.1,0,0.1,0,0.2,0l0,0v-1l0,0
			c0,0,0,0,0,0.1c-0.2,0.8-0.5,1.1-0.8,1.3c0,0-0.1,0-0.1,0.1c-0.1,0.1-0.3,0.2-0.3,0.2s-0.2,0-0.2-0.1c-0.1,0-0.2-0.2-0.1-0.3
			c-0.1,0.1-0.2,0.2-0.3,0.3c-0.1,0.1-0.3,0.2-0.3,0.2c-0.1,0-0.1,0-0.2-0.1c-0.1-0.1-0.2-0.3-0.2-0.6c-0.2,0.2-0.3,0.3-0.5,0.4
			c-0.1,0.1-0.3,0.1-0.3,0.1s-0.2,0-0.3-0.1c-0.2-0.2-0.1-0.4,0.1-0.8c-0.3,0.3-0.4,0.4-0.6,0.4c-0.1,0.1-0.3,0.1-0.3,0.1
			c-0.1,0-0.2,0-0.3-0.1c-0.2-0.2-0.1-0.5,0.2-0.8c-0.3,0.3-0.5,0.3-0.7,0.4c-0.1,0-0.2,0.1-0.3,0.1s-0.3-0.1-0.3-0.2
			c-0.2-0.2,0-0.5,0.3-0.8c0.1-0.1,0.1-0.2,0.2-0.2c-0.3,0.2-0.5,0.3-0.8,0.3c-0.3,0-0.5-0.1-0.6-0.3c-0.1-0.3,0.2-0.5,0.6-0.7l0,0
			c-0.2,0.1-0.4,0.1-0.5,0.1c-0.1,0-0.1,0-0.2,0c-0.3-0.1-0.5-0.2-0.5-0.3c0-0.3,0.3-0.5,0.7-0.6l0,0h-0.1c-0.3,0-0.6,0-0.7-0.1
			c-0.3-0.1-0.4-0.3-0.4-0.4c0-0.3,0.3-0.4,0.8-0.4c-0.3-0.1-0.4-0.1-0.5-0.2c-0.4-0.3-0.4-0.5-0.4-0.6c0.1-0.2,0.3-0.3,0.8-0.3
			c0.1,0,0.1,0,0.2,0c0.1,0,0.2,0,0.3,0c-0.3-0.2-0.6-0.3-0.9-0.6c-0.3-0.3-0.3-0.4-0.3-0.6c0.1-0.1,0.2-0.2,0.3-0.2
			c0.2,0,0.4,0,0.6,0.1c0.2,0.1,0.3,0.1,0.4,0.2c-0.3-0.3-0.6-0.5-0.8-0.8c-0.3-0.3-0.3-0.5-0.2-0.6c0-0.1,0.1-0.1,0.2-0.1
			c0.2,0,0.5,0.2,0.8,0.3c0,0,0.1,0,0.1,0.1c-0.3-0.3-0.5-0.6-0.7-1c-0.2-0.3-0.2-0.8,0-1c0,0,0.1-0.1,0.2-0.1s0.2,0,0.3,0.2
			c0.3,0.2,0.4,0.4,0.6,0.6c-0.3-0.4-0.4-0.9-0.5-1.4c0-0.3-0.1-0.9,0.2-1c0,0,0,0,0.1,0c0.1,0,0.3,0.2,0.3,0.3
			c0.2,0.3,0.3,0.5,0.4,0.7c0,0.2,0,0.3,0.1,0.5c0,0.1,0.1,0.3,0.1,0.5s0.1,0.5,0.5,0.6l0,0h0.1l0.3,0.1l0,0
			c0.1,0.1,0.1,0.2,0.2,0.2l0.1-0.1c0.2,0.1,0.3,0.2,0.4,0.3l0,0c0,0,0,0.1,0.1,0.1c0.2,0.3,0.3,0.6,0.5,0.8c0,0,0,0,0.1,0l0,0
			c0.1,0,0.1,0,0.2,0.1c0.3,0.2,0.4,0.3,0.5,0.5c0.3,0.3,0.6,0.5,0.8,0.8c0.3,0.3,0.4,0.5,0.3,0.8c0,0.2-0.2,0.3-0.3,0.5
			c-0.3,0.3-0.3,0.5-0.3,0.8s0.3,0.3,0.7,0.3c0,0,0,0,0.1,0c0.3,0,0.6-0.1,0.8-0.4c-0.1,0-0.2-0.1-0.3-0.3S21.9,18.1,22,18v-0.1
			l0.1,0.1c0.1,0.2,0.3,0.2,0.6,0.2c0.1,0,0.2,0,0.3,0c-0.1,0-0.1,0-0.2-0.1L22.7,18h0.1c0.1,0,0.3-0.1,0.3-0.1H23
			c-0.2,0-0.3-0.2-0.3-0.4l0.1-0.1c0.1,0.1,0.2,0.2,0.3,0.2l0,0c0.2,0,0.3-0.1,0.4-0.3c0.3-0.5,0.2-0.8,0-1.3c0-0.1-0.1-0.2-0.1-0.3
			h-0.1c-0.2-0.3-0.3-0.3-0.4-0.4c-0.1,0-0.1-0.1-0.2-0.1c0,0.1-0.2,0.1-0.3,0.1c-0.1,0-0.3,0-0.4-0.1c-0.1,0-0.2,0-0.3,0
			c-0.2,0-0.3,0-0.3,0.1c-0.1,0.1-0.2,0.3-0.1,0.4v0.1h-0.1l0,0c0,0-0.3-0.1-0.3-0.4c0-0.2,0.1-0.3,0.3-0.4l0,0
			C21.2,15,21.1,15,21,15.1h-0.1c-0.3,0.2-0.4,0.3-0.6,0.3c-0.1,0-0.2,0-0.2,0c-0.2-0.1-0.3-0.3-0.5-0.6l0.1-0.1
			c0.2,0.2,0.3,0.2,0.5,0.2s0.3,0,0.4-0.1c0.2-0.1,0.4-0.2,0.6-0.2c0.1,0,0.3,0,0.3,0.1c-0.1-0.1-0.1-0.1-0.1-0.1
			c-0.3-0.1-0.4-0.2-0.6-0.2c-0.3,0-0.4,0.1-0.5,0.3h-0.1c0-0.1,0-0.3-0.1-0.3c-0.1-0.3-0.1-0.5,0.1-0.7l0,0
			c0.3,0.1,0.7,0.1,0.9,0.1h0.6v-0.3h0.1H22c0.2-0.1,0.3-0.1,0.6-0.1c0.2,0,0.3,0,0.5,0.1h0.1l0.8,0.2v-0.1c0.2,0,0.3,0,0.3-0.1v0.1
			h0.1c-0.1,0.2-0.2,0.3-0.3,0.3c0.2,0.1,0.3,0.2,0.4,0.3c0.2,0.1,0.4,0.3,0.7,0.3v0.1c-0.1,0-0.3,0.1-0.3,0.1c-0.1,0-0.1,0-0.2,0
			c0.3,0.3,0.3,0.4,0.4,0.7c0.1,0.2,0.2,0.3,0.3,0.4v0.1l0,0c-0.1,0-0.2,0-0.2,0c0.2,0.3,0.3,0.8,0.3,1.2l0,0l0,0l0,0
			c0,0.1,0,0.1,0,0.2c0-0.1,0-0.1,0-0.2l0,0l0,0c0-0.4,0.2-0.8,0.3-1.2c-0.1,0-0.1,0-0.2,0l0,0v-0.1c0.2-0.1,0.3-0.3,0.3-0.4
			c0.1-0.2,0.2-0.4,0.4-0.7c-0.1,0-0.1,0-0.2,0c-0.1,0-0.3,0-0.3-0.1v-0.1c0.3-0.1,0.4-0.2,0.7-0.3c0.2-0.1,0.3-0.2,0.4-0.3
			c-0.2-0.1-0.3-0.2-0.3-0.3h0.1v-0.1c0,0,0.2,0,0.3,0.1l0,0l0.8-0.2H28c0.2-0.1,0.3-0.1,0.6-0.1c0.2,0,0.3,0,0.5,0.1h0.1l0,0v0.3
			h0.6c0.3,0,0.6,0,0.9-0.1c0,0,0,0,0.1,0.1c0.1,0.1,0.1,0.2,0.1,0.3l0,0l0,0c0,0.1,0,0.3,0,0.4c0,0.1,0,0.3-0.1,0.3h-0.1
			c-0.1-0.3-0.3-0.3-0.5-0.3c-0.2,0-0.4,0.1-0.6,0.2c0,0-0.1,0.1-0.2,0.1c0.1,0,0.3-0.1,0.3-0.1c0.2,0,0.3,0.1,0.6,0.2
			c0.2,0.1,0.3,0.1,0.4,0.1c0.2,0,0.3-0.1,0.5-0.2l0.1,0.1c-0.1,0.3-0.3,0.5-0.5,0.6c-0.1,0-0.2,0-0.2,0c-0.2,0-0.4-0.1-0.6-0.3
			h-0.1C30,15,29.9,15,29.7,14.9c0,0,0,0,0.1,0c0.2,0.1,0.3,0.3,0.3,0.4c0,0.3-0.3,0.4-0.3,0.4l0,0h-0.1v-0.1c0-0.3,0-0.3-0.1-0.4
			c-0.1-0.1-0.2-0.1-0.3-0.1c-0.1,0-0.2,0-0.3,0c-0.2,0-0.3,0.1-0.4,0.1c-0.1,0-0.2,0-0.3-0.1c-0.1,0.1-0.1,0.1-0.2,0.1
			c-0.1,0.1-0.3,0.2-0.4,0.4l0,0c0,0.1-0.1,0.2-0.1,0.3c-0.2,0.4-0.3,0.8,0,1.3c0.2,0.2,0.3,0.3,0.4,0.3l0,0c0.1,0,0.2-0.1,0.3-0.2
			l0.1,0.1c-0.1,0.3-0.3,0.4-0.3,0.4H28c0.1,0,0.2,0.1,0.3,0.1h0.1l-0.7,0.4c0,0-0.1,0.1-0.2,0.1c0.1,0,0.2,0,0.3,0
			c0.3,0,0.5-0.1,0.6-0.2l0.1-0.1v0.1c0.1,0.2-0.1,0.5-0.2,0.7c-0.1,0.1-0.3,0.2-0.3,0.3c0.2,0.3,0.5,0.4,0.8,0.4c0,0,0,0,0.1,0
			c0.3,0,0.6-0.2,0.7-0.3c0.1-0.3,0-0.5-0.3-0.8c-0.3-0.1-0.3-0.3-0.3-0.5c0-0.3,0.1-0.5,0.3-0.8c0.4-0.4,0.8-0.8,1.3-1.2l0.1-0.1
			v0.1v0.1c0-0.1,0.1-0.1,0.1-0.2l0,0c0.2-0.3,0.5-0.6,0.7-0.9c0-0.1,0-0.1,0.1-0.1c0.2-0.1,0.3-0.2,0.4-0.3l0.1,0.1
			c0.1-0.1,0.1-0.2,0.2-0.2l0,0l0.3-0.1c0.4-0.1,0.5-0.4,0.5-0.6c0-0.2,0.1-0.3,0.1-0.5c0.1-0.2,0.1-0.3,0.1-0.5
			c0.2-0.3,0.3-0.5,0.5-0.8c0-0.1,0.2-0.3,0.3-0.3c0,0,0,0,0.1,0c0.2,0.1,0.3,0.6,0.2,1c-0.1,0.6-0.3,1-0.5,1.4
			c0.2-0.2,0.4-0.4,0.7-0.6c0.1-0.1,0.2-0.2,0.3-0.2c0.1,0,0.1,0,0.2,0.1c0.2,0.2,0.2,0.6,0,1s-0.4,0.7-0.7,1c0,0,0,0,0.1,0
			c0.3-0.2,0.6-0.3,0.8-0.3c0.1,0,0.2,0,0.2,0.1c0.1,0.1,0,0.3-0.2,0.6c-0.3,0.3-0.6,0.6-0.8,0.8c0.1-0.1,0.3-0.1,0.4-0.2
			c0.2-0.1,0.4-0.1,0.6-0.1c0.2,0,0.3,0,0.3,0.2c0.1,0.2,0,0.3-0.3,0.6s-0.6,0.4-0.9,0.6C34.3,17.9,34.4,17.9,34.5,17.9z M30.8,24.2
			L30.8,24.2v0.3l0,0c-0.3,0.2-0.4,0.3-0.5,0.5c0-0.3,0-0.6-0.2-0.9c0.1,0,0.1-0.1,0.2-0.1l0,0C30.5,24.1,30.7,24.2,30.8,24.2
			L30.8,24.2z M19.9,25.4l-0.7,0.3l0.3,0.5c-0.1,0-0.1,0-0.2,0h-0.1h-0.1h-0.1c-0.1-0.2-0.2-0.3-0.3-0.3l0,0c0-0.1-0.1-0.1-0.1-0.1
			s0,0,0-0.1c-0.1-0.3-0.2-0.3-0.3-0.3c-0.2-0.3-0.4-0.6-0.8-1.1L17.5,24c0.1-0.1,0.1-0.2,0.1-0.3v-0.1c0.2,0.1,0.3,0.2,0.6,0.2
			c0.1,0,0.3,0,0.3-0.1c0,0,0,0.1,0.1,0.1c0.2,0.2,0.4,0.3,0.8,0.3c0.2,0,0.3,0,0.5-0.1c0,0,0.1,0,0.1,0.1l0.1,0.1
			C19.9,24.7,19.9,25,19.9,25.4C19.9,25.3,19.9,25.3,19.9,25.4z M21.8,16.1c0.2,0,0.3,0.1,0.4,0.1c0.1,0,0.1,0,0.1,0
			c0.1,0.1,0.1,0.1,0.2,0.2l0.1,0.2c0.2,0.3,0.2,0.3,0.2,0.4l-0.1-0.1l-0.4,0.3l-0.1,0.1l-0.2,0.1l-0.3-0.5l-0.1,0.2
			c-0.1-0.1-0.1-0.1-0.2-0.2l0,0h0.6L21.8,16.1z M28.9,16.7L28.9,16.7c-0.1,0.1-0.2,0.2-0.2,0.3l-0.1-0.2l-0.3,0.4l-0.2-0.1L28,17
			l-0.4-0.2l-0.1,0.1c0-0.1,0-0.3,0.1-0.5l0,0l0.1-0.1c0.1-0.1,0.1-0.1,0.2-0.2H28c0.2,0,0.3,0,0.4-0.1v0.6H28.9z"/>
		<path class="st2" d="M15.9,23.9L15.9,23.9L15.9,23.9L15.9,23.9z"/>
		<path class="st2" d="M28,24.2C28,24.2,28,24.2,28,24.2C28,24.2,28,24.2,28,24.2L28,24.2z"/>
		<path class="st2" d="M26.3,25.1c0-0.1,0.1-0.2,0.2-0.2v-0.1c-0.1,0-0.1,0-0.2,0C26.3,24.9,26.3,25,26.3,25.1z"/>
		<path class="st2" d="M26.4,28.1c0.2,0.2,0.3,0.3,0.4,0.5c0.1-0.1,0.1-0.3,0-0.4c-0.3-0.4-0.6-0.6-0.8-0.8
			c-0.1-0.1-0.2-0.1-0.3-0.2C26,27.6,26.3,27.8,26.4,28.1z"/>
		<path class="st2" d="M23.8,26.5c0.1,0,0.1-0.1,0.2-0.1c0.3-0.2,0.3-0.3,0-0.9c-0.1-0.1-0.1-0.3-0.1-0.3h-0.1c-0.1,0-0.2,0-0.3,0
			c-0.2,0-0.3,0-0.4,0.1c-0.1,0.1-0.2,0.2-0.2,0.3s0,0.3,0.1,0.4c0.1,0.1,0.3,0.1,0.3,0.1c0,0,0,0,0.1,0h0.1v0.1
			c-0.1,0.2-0.3,0.3-0.4,0.3c-0.1,0-0.2,0-0.3-0.1c0,0,0,0-0.1,0c0.1,0.3,0.2,0.8,0.1,0.8c-0.1,0.2-0.4,0.2-0.8,0.2
			c-0.1,0-0.3,0-0.3,0l0,0c0,0.1,0,0.1,0,0.2c0.1,0.1,0.2,0.2,0.3,0.3H22c0.3,0,0.6-0.3,0.7-0.3c0.2-0.2,0.4-0.3,0.8-0.4
			C23.5,26.8,23.5,26.7,23.8,26.5z"/>
		<path class="st2" d="M23.3,28.2c-0.1,0.2-0.1,0.3,0,0.3c0.1-0.2,0.3-0.3,0.4-0.5c0.2-0.3,0.4-0.5,0.6-0.8c-0.1,0-0.1,0.1-0.2,0.1
			C23.9,27.6,23.5,27.8,23.3,28.2z"/>
		<path class="st2" d="M22.7,29.1c0,0.1,0,0.2,0,0.3c0.1,0.1,0.2,0.2,0.3,0.2l0,0c0-0.1,0-0.2,0-0.3C22.9,29.3,22.8,29.2,22.7,29.1z
			"/>
		<path class="st2" d="M22.3,24.2C22.3,24.2,22.2,24.2,22.3,24.2C22.2,24.2,22.2,24.2,22.3,24.2L22.3,24.2z"/>
		<path class="st2" d="M24.9,25.2L24.9,25.2L24.9,25.2L24.9,25.2z"/>
		<path class="st2" d="M25.3,25.2L25.3,25.2C25.2,25.1,25.2,25.1,25.3,25.2C25.2,25.2,25.2,25.2,25.3,25.2z"/>
		<path class="st2" d="M23.9,24.8c-0.1,0-0.1,0-0.2,0l0,0c0.1,0.1,0.1,0.1,0.2,0.2C23.9,25,23.9,24.9,23.9,24.8z"/>
		<path class="st2" d="M16.4,23.7L16.4,23.7C16.5,23.7,16.5,23.7,16.4,23.7C16.5,23.7,16.5,23.7,16.4,23.7L16.4,23.7z"/>
		<path class="st2" d="M16.2,23C16.1,23,16.1,23,16.2,23C16.1,23,16.1,23,16.2,23L16.2,23L16.2,23l-0.1-0.2v-0.1l0,0l0,0v0.1l0,0
			h-0.1v0.1L16.2,23C16.1,23,16.1,23,16.2,23L16.2,23L16.2,23C16.2,23,16.2,23.1,16.2,23L16.2,23L16.2,23z"/>
		<path class="st2" d="M16.7,23.4L16.7,23.4L16.7,23.4L16.7,23.4z"/>
		<path class="st2" d="M22.5,24.7L22.5,24.7C22.4,24.7,22.4,24.7,22.5,24.7C22.4,24.8,22.5,24.8,22.5,24.7z"/>
		<path class="st2" d="M16.1,23.8L16.1,23.8C16.2,23.9,16.2,23.8,16.1,23.8C16.2,23.8,16.2,23.8,16.1,23.8L16.1,23.8z"/>
		<path class="st2" d="M19.3,27.3L19.3,27.3L19.3,27.3L19.3,27.3z"/>
	</g>
</g>
</svg>
