<?xml version="1.0" encoding="utf-8"?>
<!-- Generator: Adobe Illustrator 22.0.1, SVG Export Plug-In . SVG Version: 6.00 Build 0)  -->
<svg version="1.1" id="Layer_1" xmlns="http://www.w3.org/2000/svg" xmlns:xlink="http://www.w3.org/1999/xlink" x="0px" y="0px"
	 viewBox="0 0 57 74.7" style="enable-background:new 0 0 57 74.7;" xml:space="preserve">
<style type="text/css">
	.st0{fill:#8BC63F;}
	.st1{fill:#434D5D;}
</style>
<g>
	<circle class="st0" cx="28.5" cy="31.9" r="7.7"/>
	<g>
		<path class="st1" d="M33.2,61.3c-0.9,0-1.5,0.6-1.5,1.5c0,0.9,0.6,1.5,1.5,1.5s1.5-0.6,1.5-1.5S33.9,61.3,33.2,61.3z"/>
		<path class="st1" d="M37.7,61.1c-0.9,0-1.5,0.6-1.5,1.5c0,0.9,0.6,1.5,1.5,1.5c0.9,0,1.5-0.6,1.5-1.5
			C39.2,61.9,38.4,61.1,37.7,61.1z"/>
		<path class="st1" d="M42,61.1c-0.9,0-1.5,0.6-1.5,1.5c0,0.9,0.6,1.5,1.5,1.5c0.9,0,1.5-0.6,1.5-1.5C43.6,61.9,42.9,61.1,42,61.1z"
			/>
		<path class="st1" d="M33.2,55.8c-0.9,0-1.5,0.6-1.5,1.5c0,0.9,0.6,1.5,1.5,1.5s1.5-0.6,1.5-1.5C34.7,56.4,33.9,55.8,33.2,55.8z"/>
		<path class="st1" d="M37.7,55.8c-0.9,0-1.5,0.6-1.5,1.5c0,0.9,0.6,1.5,1.5,1.5c0.9,0,1.5-0.6,1.5-1.5
			C39.2,56.4,38.4,55.8,37.7,55.8z"/>
		<path class="st1" d="M42,55.8c-0.9,0-1.5,0.6-1.5,1.5c0,0.9,0.6,1.5,1.5,1.5c0.9,0,1.5-0.6,1.5-1.5C43.6,56.4,42.9,55.8,42,55.8z"
			/>
		<path class="st1" d="M56.2,29.1h-2.8v-13c0-1.7-1.4-3.1-3.1-3.1h-0.2V8c0-4.4-3.5-8-8-8H14.8c-4.4,0-8,3.5-8,8v5H6.6
			c-1.7,0-3.1,1.4-3.1,3.1v37.2H0.9c-0.5,0-0.9,0.4-0.9,0.9v7.9C0,62.5,0.3,63,0.9,63h2.8v0.9c0,2.3,1.9,4.2,4.2,4.2h1.3v2.6
			c0,2.3,1.9,4.2,4.2,4.2h30.5c2.3,0,4.2-1.9,4.2-4.2V68h1.3c2.3,0,4.2-1.9,4.2-4.2V38.5h2.8c0.4,0,0.9-0.3,0.9-0.9v-7.8
			C57.1,29.5,56.7,29.1,56.2,29.1z M8.5,8c0-3.5,2.8-6.3,6.3-6.3h27.4c3.5,0,6.3,2.9,6.3,6.3v5h-2.8V8c0-1.9-1.6-3.5-3.5-3.5H14.8
			c-1.9,0-3.5,1.6-3.5,3.5v5H8.5V8z M43.9,13c-1.7,0-3.1,1.4-3.1,3.1v13h-4.3c-1.2-3.3-4.4-5.8-8-5.8s-6.9,2.3-8,5.8h-4.3v-13
			c0-1.7-1.4-3.1-3.1-3.1h-0.2V8c0-1,0.9-1.8,1.8-1.8h27.4C43.1,6.2,44,7,44,8v5H43.9z M46.3,66.4H10.8v-9.8c0-1.4,1.2-2.6,2.6-2.6
			h30.5c1.4,0,2.6,1.2,2.6,2.6v9.8H46.3z M16.2,34.7h4.3c1.2,3.3,4.4,5.8,8,5.8s6.9-2.3,8-5.8h4.3v17.6H16.2
			C16.2,52.3,16.2,34.7,16.2,34.7z M40.9,33.1H37c0-0.3,0.1-0.7,0.1-1.2c0-0.4,0-0.7-0.1-1.2h3.8V33.1z M35.4,31.9
			c0,3.7-3.1,6.8-6.8,6.8s-6.8-3.1-6.8-6.8s3.1-6.8,6.8-6.8S35.4,28.1,35.4,31.9z M20.1,33.1h-3.8v-2.2h3.8c0,0.3-0.1,0.7-0.1,1.2
			C20,32.4,20.1,32.7,20.1,33.1z M1.7,61.3v-6.2h1.9v6.2H1.7z M5.2,63.8V16.1c0-0.7,0.6-1.4,1.4-1.4h1l0,0l0,0h4.5l0,0l0,0h1
			c0.7,0,1.4,0.6,1.4,1.4v36.3h-1.3c-2.3,0-4.2,1.9-4.2,4.2v9.8H7.8C6.4,66.4,5.2,65.2,5.2,63.8z M46.3,70.5c0,1.4-1.2,2.6-2.6,2.6
			H13.2c-1.4,0-2.6-1.2-2.6-2.6V68h35.5v2.6H46.3z M51.9,63.8c0,1.4-1.2,2.6-2.6,2.6H48v-9.8c0-2.3-1.9-4.2-4.2-4.2h-1.3V16.1
			c0-0.7,0.6-1.4,1.4-1.4h1l0,0l0,0h4.5l0,0l0,0h1c0.7,0,1.4,0.6,1.4,1.4v47.7H51.9z M55.4,36.8h-1.9v-6.1h1.9V36.8z"/>
		<path class="st1" d="M28.5,55.6H15.4c-0.4,0-0.9,0.3-0.9,0.9v7c0,0.4,0.3,0.9,0.9,0.9h13.1c0.4,0,0.9-0.3,0.9-0.9v-7
			C29.3,55.9,29,55.6,28.5,55.6z M27.7,62.6H16.2v-5.4h11.5V62.6z"/>
	</g>
</g>
</svg>
