<?xml version="1.0" encoding="utf-8"?>
<!-- Generator: Adobe Illustrator 22.0.1, SVG Export Plug-In . SVG Version: 6.00 Build 0)  -->
<svg version="1.1" id="Layer_1" xmlns="http://www.w3.org/2000/svg" xmlns:xlink="http://www.w3.org/1999/xlink" x="0px" y="0px"
	 viewBox="0 0 67 76.7" style="enable-background:new 0 0 67 76.7;" xml:space="preserve">
<style type="text/css">
	.st0{fill:#8AC630;}
	.st1{fill:#434C5C;}
</style>
<g>
	<path class="st0" d="M16,21.2h34.2v5.6l-0.9,1.5l-12.2,2.1l-2.5-4.8l-1-1.1l-1.3,0.1l-1.4,1.2l-0.2,3.6c0,0,0.5,1.1-0.6,1
		s-13.3-2.6-13.3-2.6l-0.1-3.4L16,21.2z"/>
	<path class="st1" d="M50.1,72.1c0.5,0,0.9,0.4,0.9,0.9c0,0.5-0.4,0.9-0.9,0.9c-0.5,0-0.9-0.4-0.9-0.9
		C49.3,72.5,49.7,72.1,50.1,72.1z M17.8,73c0-0.5-0.4-0.9-0.9-0.9c-0.5,0-0.9,0.4-0.9,0.9c0,0.5,0.4,0.9,0.9,0.9S17.8,73.5,17.8,73z
		 M33.3,52.4c2.5,0,4.8-0.3,6.9-0.9c0.4-0.1,0.7-0.6,0.6-1c-0.1-0.5-0.6-0.7-1-0.6c-1.9,0.5-4.1,0.8-6.4,0.8c-2.3,0-4.8-0.3-7-1
		c-0.4-0.1-0.9,0.1-1,0.6c-0.1,0.4,0.1,0.9,0.6,1C28.2,52,30.8,52.4,33.3,52.4z M0,76.7l2.4-16.6C3,56,5.8,52.6,9.7,51.3l12.9-4.2
		c0.8-0.3,1.4-1,1.4-1.8l0.6-5.7c-3.6-2.3-6.3-6-7.2-10.5c-1.1-0.4-1.8-1.4-1.8-2.6V22h-2.6c-0.5,0-0.8-0.4-0.8-0.8
		c0-0.5,0.4-0.8,0.8-0.8h2C15.8,13.4,19.7,5,28.4,2.9V1.6c0-0.6,0.4-1.1,1-1.2c2.8-0.5,5.7-0.5,8.4,0.1c0.6,0.1,1,0.6,1,1.2v1.3
		C46.6,5,51,10.8,51.9,20.3h1.5c0.5,0,0.8,0.4,0.8,0.8S53.9,22,53.4,22H51v4.5c0,1.1-0.6,2-1.5,2.5c-0.9,4.7-3.7,8.6-7.6,10.9
		l0.6,5.2c0.1,0.8,0.6,1.5,1.4,1.8l13.4,4.4c3.9,1.4,6.7,4.7,7.3,8.8L67,76.7h-1.7l-2.4-16.4c-0.5-3.5-2.9-6.3-6.2-7.5l-8.4-2.7V75
		h3.6V53l1.7,0.5v23.3h-7V49.6l-3.3-1.1c-0.8-0.2-1.4-0.7-1.9-1.3c-2.3,1.1-5,1.6-8.3,1.6c-2.8,0-5.8-0.5-8.2-1.5
		c-0.5,0.7-1.1,1.2-1.9,1.4l-2.8,0.9v27.1h-7V53.4l1.7-0.4V75h3.6V50.1l-8.4,2.7c-3.3,1.1-5.7,4-6.2,7.5L1.7,76.7H0z M40.9,45.6
		c0-0.1,0-0.2-0.1-0.3l-0.5-4.6c-2.1,0.9-4.4,1.5-6.8,1.5c-2.6,0-5-0.6-7.2-1.7l-0.5,4.9c0,0.1,0,0.2,0,0.2c2.2,0.8,4.9,1.3,7.6,1.3
		C36.2,47,38.8,46.5,40.9,45.6z M30.1,17.3h7V2c-2.3-0.4-4.6-0.4-7,0V17.3z M16.8,20.3h33.4c-0.9-8.6-4.6-13.7-11.4-15.6v12.6h7.1
		c0.5,0,0.8,0.4,0.8,0.8c0,0.5-0.4,0.8-0.8,0.8H20.8c-0.5,0-0.8-0.4-0.8-0.8c0-0.5,0.4-0.8,0.8-0.8h7.7V4.6
		C20.9,6.6,17.4,14.1,16.8,20.3z M18.3,27.6l10.9,1.8c0.4,0.1,0.8-0.2,0.9-0.6l0.8-3c0.3-1.1,1.3-1.9,2.4-1.9c1.1,0,2.1,0.8,2.4,1.9
		l0.8,3c0.1,0.4,0.5,0.7,0.9,0.6l10.9-1.8c0.5-0.1,0.9-0.6,0.9-1.1V22H17.4v4.5C17.4,27.1,17.8,27.5,18.3,27.6z M33.5,40.5
		c6.8,0,12.6-4.6,14.2-11.1l-9.9,1.7c-0.1,0-0.3,0-0.4,0c-1.1,0-2.1-0.8-2.4-1.9l-0.8-3c-0.1-0.4-0.4-0.6-0.8-0.6s-0.7,0.3-0.8,0.6
		l-0.8,3c-0.3,1.3-1.6,2.1-2.9,1.8l-9.6-1.6C20.9,35.9,26.7,40.5,33.5,40.5z M21.9,70.8h23.3v-1.7H21.9V70.8z M27.1,76.7h12.8V75
		H27.1V76.7z"/>
</g>
</svg>
